/* XPM */
static char *d16fc40101734f0486389dff7ea752d0XrdUk4njPe9PEBqt[] = {
/* columns rows colors chars-per-pixel */
"50 50 138 2 ",
"   c #331407",
".  c #341407",
"X  c #381709",
"o  c #39180A",
"O  c #3C1A0C",
"+  c #3B1E0F",
"@  c #3C1E0F",
"#  c #371F13",
"$  c #3A1D12",
"%  c #3D1F10",
"&  c #342115",
"*  c #3D2517",
"=  c #3B271B",
"-  c #3C271B",
";  c #3F281B",
":  c #3F291C",
">  c #161D26",
",  c #342621",
"<  c #323336",
"1  c #411F0F",
"2  c #402416",
"3  c #412618",
"4  c #40281B",
"5  c #43281A",
"6  c #422A1C",
"7  c #452B1D",
"8  c #4E2918",
"9  c #4A2D1D",
"0  c #482D1E",
"q  c #4C2C1C",
"w  c #5A321F",
"e  c #5B321F",
"r  c #5C331F",
"t  c #64321B",
"y  c #66341D",
"u  c #6A331B",
"i  c #6C331A",
"p  c #6D341A",
"a  c #6D341B",
"s  c #6E341B",
"d  c #70361C",
"f  c #70371C",
"g  c #7C3C1F",
"h  c #533220",
"j  c #5D3320",
"k  c #5A3421",
"l  c #623721",
"z  c #643823",
"x  c #6B3A22",
"c  c #6F3920",
"v  c #6F3E26",
"b  c #723A21",
"n  c #723C24",
"m  c #7D3C20",
"M  c #7C3F25",
"N  c #55443C",
"B  c #7C4025",
"V  c #7E4125",
"C  c #744129",
"Z  c #60493F",
"A  c #2D3C42",
"S  c #2C5066",
"D  c #295068",
"F  c #3A5A6E",
"G  c #424647",
"H  c #6A4E42",
"J  c #7F5645",
"K  c #686D74",
"L  c #6D7279",
"P  c #767276",
"I  c #833F22",
"U  c #874224",
"Y  c #884224",
"T  c #8A4426",
"R  c #8B4426",
"E  c #8A4526",
"W  c #8D4627",
"Q  c #8F4627",
"!  c #81472B",
"~  c #82452C",
"^  c #88472B",
"/  c #86482A",
"(  c #86492C",
")  c #8F4828",
"_  c #8D4B2D",
"`  c #8F4D2E",
"'  c #904727",
"]  c #904728",
"[  c #914A2A",
"{  c #944928",
"}  c #944929",
"|  c #924B2C",
" . c #9A4E2B",
".. c #9B4E2B",
"X. c #915032",
"o. c #995231",
"O. c #9A5331",
"+. c #995332",
"@. c #9E5331",
"#. c #A1502C",
"$. c #A0512D",
"%. c #A1512E",
"&. c #A2512E",
"*. c #A3522E",
"=. c #A7542F",
"-. c #A75430",
";. c #A95630",
":. c #A85631",
">. c #A95631",
",. c #AA5631",
"<. c #AB5731",
"1. c #AB5732",
"2. c #AC5832",
"3. c #AE5933",
"4. c #AF5933",
"5. c #B25C34",
"6. c #B55D36",
"7. c #B96037",
"8. c #BC6138",
"9. c #BC6139",
"0. c #BB653D",
"q. c #C1653B",
"w. c #C1663B",
"e. c #955F48",
"r. c #1971A1",
"t. c #1F76A5",
"y. c #4280A1",
"u. c #498BAF",
"i. c #438EB6",
"p. c #1F91CD",
"a. c #0A8ED4",
"s. c #0A8FD5",
"d. c #2698D5",
"f. c #019CEE",
"g. c #029DEF",
"h. c #0BA2F2",
"j. c #04A3F8",
"k. c #00A7FF",
/* pixels */
"i.0.w.w.w.w.w.w.0.w.w.w.w.w.w.w.w.w.w.w.w.w.w.L j.k.u.w.w.w.w.w.w.w.w.w.w.w.w.w.w.w.w.w.w.w.w.w.w.K ",
"@.<.3.3.3.3.3.3.2.2.3.3.3.3.3.2.3.2.2.5.2.5.2.| N G X.3.3.3.2.2.3.3.5.2.5.2.2.2.3.3.3.3.3.2.1.3.3.I ",
" .=.<.-.-.-.<.-.-.2.<.2.<.2.2.2.-.<.-.<.-.:.-.] j 0 Q <.<.-.<.<.:.:.1.-.-.2.-.:.2.:.<.-.2.1.:.-.<.m ",
" .=.-.<.:.<.-.<.<.-.<.2.-.-.-.:.<.2.2.-.<.-.<.W j 0 Q <.-.<.=.<.:.-.-.<.1.-.2.-.:.:.:.2.:.-.2.2.-.m ",
" .-.2.2.:.2.2.2.-.-.:.:.2.2.:.:.<.-.-.-.-.:.<.W k 0 Q =.<.<.-.-.:.:.:.<.-.-.2.-.1.-.:.1.-.2.-.:.1.m ",
" .-.=.2.:.:.-.2.-.<.:.:.2.2.:.-.-.-.<.2.:.:.<.) w 0 ) 2.-.-.:.:.:.:.2.1.:.2.-.2.-.2.-.2.:.-.2.:.<.m ",
" .-.:.2.:.-.<.-.-.2.:.:.*.:.=.-.:.:.2.-.:.-.2.W w 0 ) 2.-.-.:.2.-.:.-.2.:.:.:.2.:.:.2.2.2.2.-.-.-.m ",
" .-.:.:.:.-.-.<.2.2.:.:.:.:.2.2.:.:.2.<.2.2.<.W w q [ :.:.2.2.2.-.<.2.2.:.:.:.:.2.-.-.:.-.:.:.2.-.m ",
" .=.-.2.-.-.<.:.:.2.2.2.2.-.:.2.2.2.:.:.-.<.<.Q w 0 ) 2.=.<.=.-.:.:.:.-.2.<.2.-.2.2.:.:.-.<.2.:.<.m ",
" .-.<.=.<.-.-.:.:.2.<.-.-.-.:.2.2.2.:.:.<.=.<.[ w q ) =.2.=.:.-.:.-.2.2.-.-.-.-.<.:.:.:.-.2.2.:.-.m ",
" .-.-.-.-.<.-.<.-.-.-.<.-.<.<.-.=.<.-.-.-.<.<.Q w q ) <.2.2.:.:.-.<.<.2.:.:.2.-.-.2.-.:.2.-.:.:.-.m ",
" .-.:.-.-.<.<.-.:.-.<.-.<.-.<.<.<.-.<.-.<.-.<.) w 0 ) 2.2.:.:.:.-.<.<.-.:.:.2.<.2.-.=.2.2.-.-.-.-.m ",
" .-.=.-.-.2.-.<.:.:.=.<.=.<.<.-.-.:.:.:.-.:.2.) w 0 W <.2.=.<.=.<.-.<.-.-.<.;.;.=.:.:.:.<.=.<.-.-.m ",
" .-.<.<.:.-.<.2.:.:.<.<.<.<.-.<.-.-.:.:.2.-.2.) w 0 Q <.=.2.-.<.-.<.-.<.<.=.;.;.-.-.2.:.<.2.-.<.-.m ",
"N f f p f p p p f i i p i u u i i i f s p p p u q 5 t d d p u f d d d d d d f f f f f s d d d d f j ",
"s., @ @ % + + + * + @ @ % % @ + @ + % * + + @ 2 = ; * @ @ @ + * % O % % % % 2 @ @ @ @ 2 % % 1 @ % r.",
"k.A ; = = = : = = = = = = : = 4 - - - - = ; = = = = = = - = = - : ; = = ; = ; = ; = = = = ; = = & g.",
"d.e.+.+.O.O.+.O.@.o.` 4 = 4 ( o.o.o.O.O.O.O.O.O.O.O.O.O.O.O.O.O.O.O.O.` 0 = 4 ! +.O.O.O.O.O.+.+.o.y.",
"e.5.6.6.6.6.6.6.6.6.<.n = z <.5.6.6.5.6.6.6.6.4.6.5.6.6.6.5.5.6.6.6.5.2.x 3 k 2.6.6.5.6.6.6.6.6.6.^ ",
"..%.-.-.2.2.:.:.-.<.-.B 4 z -.-.3.=.=.2.:.:.:.2.<.-.2.-.<.-.<.2.:.:.:.%.b 4 l %.<.=.<.2.-.2.2.:.<.g ",
"..=.3.2.-.2.-.:.<.-.-.M = x @.<.=.2.:.:.3.2.2.2.2.-.2.-.-.-.:.:.:.:.:.%.b 5 l %.-.<.*.:.:.:.:.:.=.g ",
"..%.<.=.2.2.-.-.-.<.@.B = x %.<.<.=.:.:.-.2.2.:.-.-.<.2.<.-.2.:.:.:.2.%.b 5 l %.-.-.2.2.:.:.:.:.<.m ",
"..%.=.2.:.3.<.-.<.-.%.M = x -.<.=.<.-.-.2.-.:.:.-.:.:.2.-.-.2.<.-.:.2.$.b : l %.-.:.:.2.:.2.-.-.-.m ",
"..%.<.=.:.-.-.<.-.<.%.M = x $.-.<.-.<.-.=.-.:.:.:.:.:.:.:.-.<.<.=.2.-.$.b 4 z  .2.-.:.2.2.2.<.=.<.g ",
"..3.=.<.=.=.<.-.:.2.-.B : x $.-.:.:.:.-.-.-.-.<.:.:.-.:.:.2.2.2.:.:.:.%.b 6 l $.-.-.2.2.-.2.:.:.-.m ",
" .%.2.=.<.<.-.-.:.:. .B : z -.2.2.:.:.-.:.-.2.-.2.2.-.<.:.:.-.-.-.-.:.-.b : l $.:.=.<.2.2.2.3.:.<.m ",
" .=.2.<.2.2.2.-.-.:.-.B = x -.-.2.-.-.2.:.:.2.<.<.<.<.-.2.:.-.:.2.=.2.$.b 6 l %.:.:.:.2.*.:.:.:.-.g ",
" .=.=.3.2.:.:.:.<.-. .B = c -.-.<.2.2.2.2.:.-.2.<.-.-.<.2.:.:.:.=.2.=.%.b 4 l  .:.:.:.:.:.:.-.-.<.m ",
" .-.:.:.2.:.:.:.-.<. .B : x -.-.-.:.:.:.-.:.:.2.:.:.:.-.<.1.-.-.:.:.:.$.b 4 l %.2.2.-.-.2.-.2.=.<.g ",
" .-.:.-.=.-.:.:.<.-.-.M = z %.-.-.-.2.2.2.-.:.:.2.:.:.2.<.-.2.2.*.2.:.-.b 5 l  .2.:.=.2.*.2.=.2.-.g ",
" .-.=.-.2.-.:.2.<.<.$.M ; x =.-.-.-.<.<.-.-.-.=.2.-.-.-.-.<.-.-.2.=.-.%.b 4 l $.=.-.-.:.2.=.<.=.<.m ",
"V T W W U W T W U W U c = l U Q ^ U U W W Y W W W ^ Y W W Y W ^ T T W U y 5 w U ^ W W W T T T T W i ",
"t.& o o o o o o o o + 5 = - @ X o o o o o o o o o o o o o o o o o o o o * ; ; @ o o o o o o o o   D ",
"k.A - ; = : = = = = = ; = ; - - : = = = = = = ; ; = = = = = = ; = = = : ; = = = = ; = ; = = - - & g.",
"h.H C C C C C C C C C C C C C C C C C C C C C h ; = 0 C C C C C C C C C C C C C C C C C C C C C v p.",
"P 8.8.8.9.9.9.9.9.9.9.9.8.8.8.8.9.9.9.9.8.9.9.[ 0 ; / 9.9.9.9.9.9.9.9.9.7.9.9.9.9.9.7.9.9.9.9.7.9.J ",
" .%.2.-.:.:.-.:.-.<.2.2.<.-.<.-.-.:.:.2.<.=.<.} r 0 ) =.<.=.2.*.-.-.*.2.-.-.<.-.-.-.-.2.2.<.=.<.<.m ",
" .<.-.-.2.:.-.<.<.-.<.2.<.<.-.<.-.<.:.2.<.<.<.} r 0 ) 2.-.-.=.2.2.-.2.=.:.:.=.<.:.=.2.*.<.=.-.-.-.m ",
" .=.<.-.2.-.<.-.-.<.:.:.-.-.<.-.-.-.<.-.<.=.<.' r 0 ' =.2.:.:.2.-.:.2.2.:.2.2.=.:.:.=.2.2.:.-.2.<.m ",
" .=.-.<.2.<.-.<.-.-.:.-.2.<.-.<.-.<.-.<.-.<.<.[ r q ' 3.-.:.2.2.:.:.2.2.:.:.2.2.:.:.2.2.2.:.:.-.-.m ",
" .2.:.:.<.2.:.:.:.:.:.:.:.:.2.2.2.-.2.:.:.:.2.) j 0 Q -.:.:.2.2.:.:.-.2.-.2.-.<.2.2.2.2.2.-.:.:.<.m ",
" .-.2.:.-.2.:.:.:.:.:.=.:.:.<.2.2.3.*.:.:.:.2.} j 0 ) <.:.-.=.2.:.:.-.-.-.-.2.2.2.2.:.:.2.=.2.2.-.m ",
" .-.-.:.2.<.-.:.:.2.2.2.:.:.=.-.:.:.-.=.2.2.=.[ j 0 ) 2.:.:.:.:.:.2.2.2.-.:.:.2.=.-.:.:.:.:.=.-.2.m ",
" .%.2.-.-.-.-.-.:.2.-.-.:.:.:.:.:.:.-.2.2.2.-.) r 0 ) 2.:.:.-.*.-.2.2.:.:.:.:.:.2.*.:.:.2.:.:.:.-.m ",
"..%.3.2.2.2.<.<.:.-.<.-.2.2.-.2.2.*.2.=.=.2.3.{ r q ) 2.2.2.2.2.2.-.2.<.-.<.<.-.2.2.:.:.2.=.2.=.-.m ",
"..-.-.<.:.:.-.<.:.-.-.<.2.-.-.=.2.2.-.2.2.=.<.' r 0 ' =.:.:.2.-.-.2.-.-.<.2.-.-.-.:.:.:.:.2.-.-.<.m ",
" .-.<.-.:.:.-.2.:.:.-.2.2.2.:.:.:.2.-.-.=.<.<.[ w q [ =.2.-.<.-.2.2.-.:.:.2.:.-.2.<.-.-.:.2.:.:.<.m ",
" .-.-.<.-.-.2.2.2.:.<.2.-.:.:.:.:.-.2.=.<.=.2.[ r 0 ) 2.-.-.-.<.-.:.:.:.:.:.:.-.<.-.2.-.2.2.:.:.2.m ",
" .-.<.<.-.<.-.<.<.-.-.<.-.:.-.-.:.:.-.:.:.:.2.[ 8 & ' <.=.<.<.=.2.<.-.2.-.-.2.2.-.-.:.:.:.:.:.:.2.m ",
"F X .     .             X       X         . . < a.g.S . . .   .                         .   . . . > "
};
