/* XPM */
static char *ccabf88d47634784ce23368075e17b9bScb0IPuNC4ZXtLbb[] = {
/* columns rows colors chars-per-pixel */
"50 50 216 2 ",
"   c #32110D",
".  c #35261B",
"X  c #1A130D",
"o  c #470809",
"O  c #540909",
"+  c #5C0909",
"@  c #530709",
"#  c #620807",
"$  c #640A09",
"%  c #6C0A0A",
"&  c #720A0B",
"*  c #7B0C0B",
"=  c #6B110F",
"-  c #650E10",
";  c #700F11",
":  c #4D2418",
">  c #6B2418",
",  c #483725",
"<  c #792528",
"1  c #7A3A26",
"2  c #753632",
"3  c #574C31",
"4  c #5B5133",
"5  c #695736",
"6  c #704A2E",
"7  c #75653E",
"8  c #796947",
"9  c #786C56",
"0  c #6E5C50",
"q  c #830C0C",
"w  c #8C0D0D",
"e  c #930E0D",
"r  c #9C0E0E",
"t  c #981818",
"y  c #961213",
"u  c #A30F0F",
"i  c #A90F0F",
"p  c #AB100F",
"a  c #A40F10",
"s  c #AA0F10",
"d  c #A61212",
"f  c #AD1111",
"g  c #A41919",
"h  c #B41111",
"j  c #BB1111",
"k  c #B00F10",
"l  c #B31F20",
"z  c #922F2E",
"x  c #B42929",
"c  c #A33838",
"v  c #AA2929",
"b  c #C41212",
"n  c #CC1213",
"m  c #CF1B1B",
"M  c #D41414",
"N  c #DC1415",
"B  c #E41515",
"V  c #EC1515",
"C  c #E81B1B",
"Z  c #F21616",
"A  c #FE1619",
"S  c #FE1A1C",
"D  c #F61817",
"F  c #FE1E20",
"G  c #F72929",
"H  c #F83737",
"J  c #E42E2D",
"K  c #D43836",
"L  c #895134",
"P  c #A6403F",
"I  c #9D663F",
"U  c #ED413D",
"Y  c #985150",
"T  c #A74948",
"R  c #A85453",
"E  c #BC5E5D",
"W  c #986B42",
"Q  c #887749",
"!  c #9A7E49",
"~  c #957C4B",
"^  c #837352",
"/  c #A97E4E",
"(  c #917978",
")  c #D54846",
"_  c #F94A48",
"`  c #FB5858",
"'  c #D0605F",
"]  c #DC6362",
"[  c #CE7271",
"{  c #FA6765",
"}  c #F07675",
"|  c #9A834D",
" . c #95804D",
".. c #9C8551",
"X. c #978858",
"o. c #9F915C",
"O. c #A38B54",
"+. c #A88E54",
"@. c #AB8955",
"#. c #B18955",
"$. c #AA9359",
"%. c #AA9359",
"&. c #B59A5D",
"*. c #9E9777",
"=. c #99816B",
"-. c #B69D61",
";. c #BCA362",
":. c #AEA263",
">. c #C1A664",
",. c #C4A866",
"<. c #CBAD6A",
"1. c #C4AA68",
"2. c #CDB16C",
"3. c #D2B46D",
"4. c #D7B96F",
"5. c #DBBD73",
"6. c #D5B770",
"7. c #E1BF73",
"8. c #DEC175",
"9. c #E1C376",
"0. c #E5C679",
"q. c #ECCB7A",
"w. c #E9C677",
"e. c #F1CE7E",
"r. c #F2D27F",
"t. c #3575A7",
"y. c #7678A6",
"u. c #4383BF",
"i. c #7685B4",
"p. c #3092CF",
"a. c #31A2D4",
"s. c #1B9EEA",
"d. c #1CA2ED",
"f. c #00A7FF",
"g. c #15ACFC",
"h. c #18AEFD",
"j. c #19A8F4",
"k. c #19B0FF",
"l. c #29A6E1",
"z. c #2AA7EB",
"x. c #2CABEC",
"c. c #26A6E8",
"v. c #39ACE7",
"b. c #3BA6E8",
"n. c #2FADF2",
"m. c #25ABF3",
"M. c #2EB5FC",
"N. c #34B2F5",
"B. c #31B8FF",
"V. c #3DBBFD",
"C. c #30B2F9",
"Z. c #3EB2EC",
"A. c #459CD6",
"S. c #5194CA",
"D. c #6198CD",
"F. c #6C97C8",
"G. c #48B0DE",
"H. c #4DABDB",
"J. c #61A4D9",
"K. c #40BDFF",
"L. c #51B4E8",
"P. c #6AB9E7",
"I. c #5CC3FA",
"U. c #71CAF5",
"Y. c #8F8D8D",
"T. c #929292",
"R. c #9C9C9C",
"E. c #B29594",
"W. c #AE938B",
"Q. c #9E9FA0",
"!. c #A5A5A5",
"~. c #ADAAAA",
"^. c #BBB1B1",
"/. c #BCBCBC",
"(. c #B3B3B3",
"). c #B8ABA9",
"_. c #CD908E",
"`. c #F78887",
"'. c #EE9593",
"]. c #D0A29F",
"[. c #F0A09E",
"{. c #CAB1B0",
"}. c #EBA4A4",
"|. c #EBB3B1",
" X c #F7B2B0",
".X c #D3C69A",
"XX c #F5D582",
"oX c #FDDB86",
"OX c #FEDE89",
"+X c #F7D884",
"@X c #E6D186",
"#X c #FEE48B",
"$X c #FFE98E",
"%X c #FEED91",
"&X c #FFF495",
"*X c #FFFC9B",
"=X c #FFF998",
"-X c #FFFEA2",
";X c #C3C3C3",
":X c #CCCCCC",
">X c #C8C7C6",
",X c #D2CCC3",
"<X c #D4D4D4",
"1X c #DCDCDC",
"2X c #D7D6D7",
"3X c #E4DCDB",
"4X c #F5CCCB",
"5X c #DEE1E2",
"6X c #E4E4E4",
"7X c #EBEBEB",
"8X c #E8E6E7",
"9X c #F5ECEB",
"0X c #F4F4F4",
"qX c #F8F6F6",
"wX c #F8F8F8",
"eX c #F3F2F1",
/* pixels */
"f.f.f.f.f.f.f.f.f.f.f.f.f.f.f.f.f.f.f.f.f.f.f.f.f.f.f.f.f.f.f.f.f.f.f.f.f.f.f.f.f.f.f.f.f.f.f.f.f.f.",
"f.f.f.f.f.f.f.f.f.f.f.f.f.f.f.f.f.f.f.f.f.f.f.f.f.f.f.f.f.f.f.f.f.f.f.f.f.f.f.f.f.f.f.f.f.f.f.f.f.f.",
"f.f.f.f.f.f.f.f.f.f.f.f.f.f.f.f.f.f.f.f.f.f.k.V.K.K.K.B.f.f.f.f.f.f.f.f.f.f.f.f.f.f.f.f.f.f.f.f.f.f.",
"f.f.f.f.f.f.f.f.f.f.f.f.f.f.f.f.f.f.f.j.G.A.} ` ` ` { } F.L.N.f.f.f.f.f.f.f.f.f.f.f.f.f.f.f.f.f.f.f.",
"f.f.f.f.f.f.f.f.f.f.f.f.f.f.f.f.h.b.S.C D G } '.}.}.'.{ G G H i.n.f.f.f.f.f.f.f.f.f.f.f.f.f.f.f.f.f.",
"f.f.f.f.f.f.f.f.f.f.f.f.f.f.f.s.C V V _ }.5X5X7X7X7XeX0X9X X_ S A y.z.f.f.f.f.f.f.f.f.f.f.f.f.f.f.f.",
"f.f.f.f.f.f.f.f.f.f.f.f.f.j.S.M B C `.1X8X8X7X7XeXeX0X0XqXqX9X`.F S S y.n.f.f.f.f.f.f.f.f.f.f.f.f.f.",
"f.f.f.f.f.f.f.f.f.f.f.f.s.n M B C '.1X5X8X7XeXeXeX0X0XqXqXwXqXqX[.G S A F J.f.f.f.f.f.f.f.f.f.f.f.f.",
"f.f.f.f.f.f.f.f.f.f.f.s.n M M C _.5X5X7X7X7X7XeXeX0X0XwXwXwXwXwXqX`.F S S F D.f.f.f.f.f.f.f.f.f.f.f.",
"f.f.f.f.f.f.f.f.f.f.s.b n M N ) 2X5X5X8X7X7X0X0X0X0XwXwXwXwXwXwXqXqX` S S S A D.f.f.f.f.f.f.f.f.f.f.",
"f.f.f.f.f.f.f.f.f.d.j b n M N ].3X3X6X8X7X7X0X0XqXwXwXwXwXwXwXwXwXwX XF A S A A D.f.f.f.f.f.f.f.f.f.",
"f.f.f.f.f.f.f.f.d.f j b n M K <X2X3X8X8X7X7X7XeX0XwXwXwXwXwXwXwXwXwXwX_ S S A S S J.f.f.f.f.f.f.f.f.",
"f.f.f.f.f.f.f.m.g h j b n n [ <X2X1X5X8X8X7XeX0X0XwXwXwXwXwXwXwXwXwXwX'.A A S A S G N.f.f.f.f.f.f.f.",
"f.f.f.f.f.f.f.p.d s j j n n _.<X2X1X5X6X8X7X7X0X0X0XwXwXwXwXwXwXwXwXwX XA S A S A A b.f.f.f.f.f.f.f.",
"f.f.f.f.f.f.g.W.a s h j b n ].:X2X1X3X6X8X8X7XeX0X0XwXwXwXwXwXwXwXwXqX4XA A A A A A P.f.f.f.f.f.f.f.",
"f.f.f.f.f.f.v.).g s h j j b _.:X<X1X5X6X6X6X7X7XeX0X0XwX0XwXwXwXwXqXqX4XA A A A A S eXP.f.f.f.f.f.f.",
"f.f.f.f.f.j.(.^.v i i h h b _.:X<X2X1X6X6X6X8X7X7X0XeX0X0XwXwXwXwXwXwX XA A A A A F qXeXI.f.f.f.f.f.",
"f.f.f.f.h.!.(.^.c i i k h h E :X<X2X1X3X5X6X8X8X7X7XeX0X0X0XwXwXwXwXwX3.A A A A A H qX0X8XM.f.f.f.f.",
"f.f.f.f.N.!.(.(.c r u i k h x {.:X<X1X1X6X6X6X6X7X7X7X7XeX0X0X0XwXwX9XH A A A A A H qX0X7XU.f.f.f.f.",
"f.f.f.f.v.!.(.).z e u u i k h W.;X:X<X1X5X5X6X6X6X8X7X7X7X7XeXeX0X0X[.Z V Z Z Z D H qXqXeX8XB.f.f.f.",
"f.f.f.h.Q.!.).!.t e y a u p p x ^.>X:X<X<X1X5X5X6X6X8X6X7X7X7X7X0X3XH B V V V Z Z G 0XqXeX5XU.f.f.f.",
"f.f.f.N.T.!.~.E.t e e y r u u f T /.;X:X:X<X<X1X5X5X6X6X6X7X7X7X8X] N N B B B B V B 9X0XeX5XeXM.f.f.",
"f.f.f.n.T.R.!.Y.q w e e r r r u d R ^.{.;X:X:X<X<X<X1X2X5X5X6X3X] M M N N N N B N B |.0XeX8X6XV.f.f.",
"f.f.f.x.T.T.R.Y q q q w w e r r r d T E./.;X;X>X:X:X<X<X<X1X{.) b n n n n M M M N N } 0XeX8X5XV.f.f.",
"f.f.f.z.T.T.R.z * * * * q q w w e e y t R E./././.;X;X>X].E x h j j j b n n n M M M ) 7X0X6X2XI.f.f.",
"f.f.f.c.Y.Y.( % * & * * * q * q q q w w q w t z Y T c g e r u i f h h h j j b b b n m |.0X5X<XV.f.f.",
"f.f.f.z.Y.Y.2 - & & & & & * * * * * q * * * * q q q w w w e e r r u u f p k h j j b b ] 6X5X:XB.f.f.",
"f.f.f.z.T.( = % % % $ % % % % & & * & & & & * * & * * * * q q w w e e y r d u p f h h g ].<XU.f.f.f.",
"f.f.f.x.Y.< % % $ $ % $ $ % $ % % % % % % & & & & & & & & & * * * q w w e e e r u u p p v /.N.f.f.f.",
"f.f.f.x.2 % % % $ $ $ $ $ $ $ $ $ % % % % % % % % % & & & & % & & & * * q q w e e e r u r P N.f.f.f.",
"f.f.f.x.; % & % $ $ $ $ $ $ $ $ $ $ $ $ % $ $ % # % % % % & % % % & % & & * * q q w w e w y Z.f.f.f.",
"f.f.f.g.z & % % % $ # # # + + + + O O > 6 L I / / #.#./ I L > $ % % % % % % & & * * * q q z M.f.f.f.",
"f.f.f.f.p.& % % % $ # + + @ @ @ : 6 | $.%.;.1.2.2.6.5.8.8.2.8.<.W 1 % $ % % % % % & & * & D.f.f.f.f.",
"f.f.f.f.g.< & % $ $ + + @ o : 6 Q ..%.Q 9 &.<.2.6.4.8.8.:.X.:.8.9.4.#.1 + $ $ % % % & % < B.f.f.f.f.",
"f.f.f.f.f.j.% % $ + @     , 5 7  .O.-.9 ,X..8.0.q.XX+X+XX.,XX.@Xq.9.5.<.W O + + $ % % ; H.f.f.f.f.f.",
"f.f.f.f.f.f.s.% + @ o   , 4 7  .o.;.1.5 W.o.#X$X&X=X*X*Xo.W.0 &X&X#Xr.5.2.~ O O + $ = A.f.f.f.f.f.f.",
"f.f.f.f.f.f.f.d.+ @     3 5 Q %.,.4.8.3 , $.$X&X=X*X*X*XX., 3 -X-X-X*X#X0.>.> o O - A.f.f.f.f.f.f.f.",
"f.f.f.f.f.f.f.f.j.p.o : 5 I O.;.2.8.8., . %.$X&X=X*X*X*XX.. 3 -X-X-X*X*X%X9.6 o t.m.f.f.f.f.f.f.f.f.",
"f.f.f.f.f.f.f.f.f.f.j.0 7 Q %.;.2.8.8., . $.#X%X&X&X=X=Xo.. 4 *X*X*X*X=X&X+X=.A.f.f.f.f.f.f.f.f.f.f.",
"f.f.f.f.f.f.f.f.f.f.f.Z.7  .O.:.;.2.4.3 X ;.oX$X$X&X&X&X:.X Q *X*X=X=X&X$X+XU.f.f.f.f.f.f.f.f.f.f.f.",
"f.f.f.f.f.f.f.f.f.f.f.g.Q  .| $.;.;.2.-.7 8.r.r.oX#X$X$X+XQ XX%X&X$X$XOXXX@XV.f.f.f.f.f.f.f.f.f.f.f.",
"f.f.f.f.f.f.f.f.f.f.f.f.a. .| ..%.&.;.,.2.4.8.0.q.r.r.r.oXoX#XoXOXoXr.e.8..XB.f.f.f.f.f.f.f.f.f.f.f.",
"f.f.f.f.f.f.f.f.f.f.f.f.g. .| | ..+.%.&.&.;.<.3.4.5.8.w.0.q.q.q.w.w.9.3.>.L.f.f.f.f.f.f.f.f.f.f.f.f.",
"f.f.f.f.f.f.f.f.f.f.f.f.f.j.| | | ....| O.%.%.&.;.>.>.<.2.2.<.3.<.,.;.&.G.f.f.f.f.f.f.f.f.f.f.f.f.f.",
"f.f.f.f.f.f.f.f.f.f.f.f.f.f.j.X.| | | | | | | | | O.+.+.+.+.+.O.O.| o.G.f.f.f.f.f.f.f.f.f.f.f.f.f.f.",
"f.f.f.f.f.f.f.f.f.f.f.f.f.f.f.g.v.*...| ! | | | | | | I | | | X.*.J.M.f.f.f.f.f.f.f.f.f.f.f.f.f.f.f.",
"f.f.f.f.f.f.f.f.f.f.f.f.f.f.f.f.f.k.V.N.x.l.l.l.l.l.l.l.x.x.N.V.M.f.f.f.f.f.f.f.f.f.f.f.f.f.f.f.f.f.",
"f.f.f.f.f.f.f.f.f.f.f.f.f.f.f.f.f.f.f.f.f.f.f.f.f.f.f.f.f.f.f.f.f.f.f.f.f.f.f.f.f.f.f.f.f.f.f.f.f.f.",
"f.f.f.f.f.f.f.f.f.f.f.f.f.f.f.f.f.f.f.f.f.f.f.f.f.f.f.f.f.f.f.f.f.f.f.f.f.f.f.f.f.f.f.f.f.f.f.f.f.f.",
"f.f.f.f.f.f.f.f.f.f.f.f.f.f.f.f.f.f.f.f.f.f.f.f.f.f.f.f.f.f.f.f.f.f.f.f.f.f.f.f.f.f.f.f.f.f.f.f.f.f."
};
