/* XPM */
static char *_001f02540e44ffc9e8d6637414ad5d6xasea8RIjLU6Zkhl[] = {
/* columns rows colors chars-per-pixel */
"50 50 256 2 ",
"   c #1B0504",
".  c #0E0103",
"X  c #250606",
"o  c #381716",
"O  c #2C1313",
"+  c #3A211C",
"@  c #3D2926",
"#  c #541511",
"$  c #780A0A",
"%  c #6A0C11",
"&  c #5A290F",
"*  c #572814",
"=  c #6A3315",
"-  c #733A1B",
";  c #6E2A10",
":  c #472927",
">  c #542E28",
",  c #563327",
"<  c #5C3935",
"1  c #4E2F32",
"2  c #71362E",
"3  c #551529",
"4  c #7B4426",
"5  c #62423A",
"6  c #714633",
"7  c #6F412B",
"8  c #031A5C",
"9  c #031D67",
"0  c #0A2C75",
"q  c #2C315C",
"w  c #663751",
"e  c #2D445A",
"r  c #325178",
"t  c #6F4E50",
"y  c #4E596F",
"u  c #6D576B",
"i  c #4D6C75",
"p  c #766E73",
"a  c #535A5F",
"s  c #880506",
"d  c #960304",
"f  c #911513",
"g  c #A30202",
"h  c #AB0101",
"j  c #A10B04",
"k  c #B40101",
"l  c #BA0202",
"z  c #AE1719",
"x  c #8E3B1A",
"c  c #922A31",
"v  c #992420",
"b  c #C50506",
"n  c #DA0202",
"m  c #D50405",
"M  c #CE1718",
"N  c #E80505",
"B  c #F30202",
"V  c #FD0302",
"C  c #FB0C0B",
"Z  c #F60B0A",
"A  c #EA1517",
"S  c #F91615",
"D  c #FE100D",
"F  c #C92C36",
"G  c #EB2527",
"H  c #F62424",
"J  c #F43838",
"K  c #EE3131",
"L  c #DD1E24",
"P  c #83451E",
"I  c #864827",
"U  c #8C5133",
"Y  c #9A5936",
"T  c #955229",
"R  c #A25B32",
"E  c #A96239",
"W  c #B86A38",
"Q  c #C6733C",
"!  c #AA2F4F",
"~  c #96344B",
"^  c #DF3B43",
"/  c #8C5051",
"(  c #AB5349",
")  c #99675A",
"_  c #8B6555",
"`  c #B56C42",
"'  c #BA754A",
"]  c #B37050",
"[  c #83536C",
"{  c #996D68",
"}  c #B3786A",
"|  c #AC756F",
" . c #B1566B",
".. c #DD5057",
"X. c #F54746",
"o. c #E75457",
"O. c #C77747",
"+. c #C26F5B",
"@. c #D3716E",
"#. c #F26464",
"$. c #F37A7A",
"%. c #E86969",
"&. c #C95666",
"*. c #7D8D52",
"=. c #CAB912",
"-. c #F2E710",
";. c #DBDF33",
":. c #FCFA2E",
">. c #D9C308",
",. c #BE8075",
"<. c #BF957D",
"1. c #8DB267",
"2. c #9DAC62",
"3. c #DA8553",
"4. c #D98248",
"5. c #E58C55",
"6. c #EE9358",
"7. c #C38376",
"8. c #CA897A",
"9. c #D28E71",
"0. c #FA9F62",
"q. c #FDA567",
"w. c #FCA15F",
"e. c #B8CE7F",
"r. c #FCFA6B",
"t. c #9B9638",
"y. c #02358C",
"u. c #023D96",
"i. c #023E99",
"p. c #013590",
"a. c #0D3580",
"s. c #6E3D83",
"d. c #02429D",
"f. c #064397",
"g. c #15478A",
"h. c #355793",
"j. c #316E97",
"k. c #0243A3",
"l. c #0246AA",
"z. c #0349AB",
"x. c #0B53AC",
"c. c #024CB4",
"v. c #064EB6",
"b. c #0756BB",
"n. c #1558BA",
"m. c #156CB9",
"M. c #3270AF",
"N. c #314EAF",
"B. c #525B86",
"V. c #4C688D",
"C. c #6B6C95",
"Z. c #4C75A7",
"A. c #7074A3",
"S. c #675696",
"D. c #0254C4",
"F. c #0256CA",
"G. c #0259CD",
"H. c #0559C7",
"J. c #025CD4",
"K. c #035EDA",
"L. c #0156D1",
"P. c #014FC0",
"I. c #0A76C8",
"U. c #0261DC",
"Y. c #0C62D4",
"T. c #166CCF",
"R. c #2872CD",
"E. c #0265E3",
"W. c #0266E9",
"Q. c #0269EB",
"!. c #0C6CE8",
"~. c #1475EA",
"^. c #026CF3",
"/. c #0171F8",
"(. c #2058C8",
"). c #507FC1",
"_. c #9A7A9A",
"`. c #C67882",
"'. c #3187AF",
"]. c #1E84BA",
"[. c #568EB8",
"{. c #6F80A8",
"}. c #569397",
"|. c #1694DC",
" X c #1E8DD4",
".X c #2989CD",
"XX c #2F91D4",
"oX c #0996E9",
"OX c #079DF4",
"+X c #1797EE",
"@X c #249BE8",
"#X c #349DE3",
"$X c #00A7FF",
"%X c #05A8FE",
"&X c #0AA5F9",
"*X c #16A6F6",
"=X c #1CA8F4",
"-X c #28ADF6",
";X c #35A2DC",
":X c #4494D2",
">X c #4CA3D3",
",X c #6CB0D7",
"<X c #45B8FA",
"1X c #52B3EC",
"2X c #72B5E7",
"3X c #62C6FD",
"4X c #B2908B",
"5X c #8E92B5",
"6X c #9EA0BF",
"7X c #B4AAB6",
"8X c #DA9683",
"9X c #C69088",
"0X c #E49D87",
"qX c #F28E8D",
"wX c #E9A48C",
"eX c #F1A88E",
"rX c #E5AC96",
"tX c #F5AC92",
"yX c #FBB89C",
"uX c #D1ACAD",
"iX c #F9BDA2",
"pX c #EEBBAF",
"aX c #D3A7A1",
"sX c #CFC4B7",
"dX c #FAC6A9",
"fX c #FEDCBB",
"gX c #FDD6B5",
"hX c #EFCCB1",
"jX c #FEE2BE",
"kX c #F9E095",
"lX c #97B4D1",
"zX c #A8A9CA",
"xX c #B5B8D5",
"cX c #ADB5D1",
"vX c #B2CECD",
"bX c #91CDF6",
"nX c #B2D4F2",
"mX c #9CC2CF",
"MX c #C5C5DC",
"NX c #D6CECE",
"BX c #F6D1CB",
"VX c #FEEAC6",
"CX c #FEF6D6",
"ZX c #F9E6D8",
"AX c #CBCCE6",
"SX c #D7D6EB",
"DX c #DCDDF2",
"FX c #CBD5EB",
"GX c #CBE2F7",
"HX c #E4E3F3",
"JX c #E9EAF8",
"KX c #F1EDF8",
"LX c #F4F4FB",
"PX c #FCFCFE",
"IX c #F6F4FA",
"UX c #F8EDEB",
/* pixels */
"$X$X$X$X$X$X$X$X$X$X$X$X$X$X$X$X$X$X$X$X$X$X$X$X$X&XXX[ ! A Z A F S.XXOX$X$X$X$X$X$X$X$X$X$X$X$X$X$X",
"$X$X$X$X$X$X$X$X$X$X$X$X$X$X$X$X$X$X$X$X$X$X$X&X.X/ M B V S X.X.X.H F A.OX$X$X$X$X$X$X$X$X$X$X$X$X$X",
"$X$X$X$X$X$X$X$X$X$X$X$X$X$X$X$X$X$X$X$X$X$X|.~ M B V V S BXBXo.pXBX#.H  .@X%X$X$X$X$X$X$X$X$X$X$X$X",
"$X$X$X$X$X$X$X$X$X$X$X$X$X$X$X$X$X$X$X$X$X.X~ N B V V Z $.BXK J X.#.$.#.A _.%X$X$X$X$X$X$X$X$X$X$X$X",
"$X$X$X$X$X$X$X$X$X$X%X<X-X$X$X$X$X$X$X$XM.M n N B V V C `.H qXBX#.`.J BXH H 5X&X$X$X$X$X$X$X$X$X$X$X",
"$X$X$X$X$X$X$X$X%X=XbXPXLXGX-X$X$X$X%X|.z m n n m m m n S X.BXUXPXiXH BXJ Z ..XX$X$X$X$X$X$X$X$X$X$X",
"$X$X$X$X$X$X$X$X2XDXAXLXLXHXnX-X$X$X+Xc m l k h g h h h k l b F %.`.X.qXH D A 5X$X$X$X$X$X$X$X$X$X$X",
"$X$X$X$X$X$X$X=XnXPXMXHXLXKXKXbX%X$XZ.k l g d g g d g h h k l l b M $.X.S S Z &.*X$X$X$X$X$X$X$X$X$X",
"$X$X$X$X$X$X<XDXxXHXHXIXPXPXIXSX,X+Xc k d s $ # X . X % s d k k k k l m S S Z K >X$X$X$X$X$X$X$X$X$X",
"$X$X$X$X%X&X,XSXSX6XAXHXDXKXIXDX5XM.f g % , / 1 < 5 + , / 2 f d g k l l b S C A _.$X$X$X$X$X$X$X$X$X",
"$X$X$X$X$X-XSXvXMXA.C.5XAXKXKXSXA.B.$ # # 7.9.wXyXyX8Xt rX4X{ / c $ d h l m S Z ..&X$X$X$X$X$X$X$X$X",
"$X$X$X$X$X-XFXJX6XC.C.6XSXKXDXMXy u # & / wXeXyXBXUXBXrXgXfXfXaXt   X % k l m Z K =X$X$X$X$X$X$X$X$X",
"$X$X$X$X$X$X1XcX6X6XzXxXAXSXSXSXzXu w $ ] tXiXBXHX,X,XpXgXfXfX4Xt t +   d l b N A #X$X$X$X$X$X$X$X$X",
"$X$X$X$X$X$X$X1XxXSXDXDXAXSXKXHX4X< & x ) tXdXZX2Xe i sXgXVXjXVXfXfXaX@ # h l N A #X$X$X$X$X$X$X$X$X",
"$X$X$X$X$X$X$X*XcXAXFXAXAXKXuX..M # ; >   ) pXMX[.t { hXjXVXvX,XnXZXgX<.t s k n N @X$X$X$X$X$X$X$X$X",
"$X$X$X$X$X$X$X$X-XzXzXxXDX9XL S l $ / O     5 uXaXiXgXjXVXjXi i >XUXgXgX9X: h N A &X$X$X$X$X$X$X$X$X",
"$X$X$X$X$X$X$X$X$X&X,XzX{ k m B k c } :       5 eXdXfXVXCXCXsXe ,XCXjXgXhX* d N ~ $X$X$X$X$X$X$X$X$X",
"$X$X$X$X$X$X$X$X$X$X*X>Xu g l b d ( 8.} 1   . t 0XdXgXVXCXCXVXmXnXCXjXjXiX; f M XX$X$X$X$X$X$X$X$X$X",
"$X$X$X$X$X$X$X$X$X$X$X&X|.c h g d ( 8.7.)   . < 9.iXdXBXVXVXjXsXsXjXhXrXO.x x u &X$X$X$X$X$X$X$X$X$X",
"$X$X$X$X$X$X$X$X$X$X$X$X$X~.f d d v 7.7.,.<   O ) 0XtXiXgXgXdX5 + @ + 5 T ( dX,X$X$X$X$X$X$X$X$X$X$X",
"$X$X$X$X$X$X$X$X$X$X$X$X%X$Xj.f s s ( 7.,.| _ : O ) 8.0XeXwX_ # O o O > - 9.rXsX&X$X$X$X$X$X$X$X$X$X",
"$X$X$X$X$X$X$X$X$X$X$X$X%X%X%XV.d $ % u 7.7.@.) 5 : : 1 , o o o O   O | R iXjXsX%X$X$X$X$X$X$X$X$X$X",
"$X$X$X$X$X$X$X$X$X$X$X$X%X%X&X&Xw 3 q q [ ,.7.7.} { / : > < o : 6 _ <.dXhXjXVX2X$X$X$X$X$X$X$X$X$X$X",
"$X$X$X$X$X$X$X$X$X$X$X$X%X%X%X&Xr 0 a.9 # ) ,.9X8X8X8X0XwX} 9XrXiXdXdXhXjXCXmX*X$X$X$X$X$X$X$X$X$X$X",
"$X$X$X$X$X$X$X$X$X$X$X$X$X$X$X'.t.*.g.0 3 % ) 8XtXiXyXyXyXyXiXiXiXiXeXeXdXlX*X$X$X$X$X$X$X$X$X$X$X$X",
"$X$X$X$X$X$X$X$X$X$X$X$X$X$X'.=.-.e.R.J.K.x.g.u | 0XeXtXwX9.9.@.+. .@X&X&X$X$X$X$X$X$X$X$X$X$X$X$X$X",
"$X$X$X$X$X$X$X$X$X$X$X$X$XOXi >.-.[.K.U.E.E.U.n.h.B.C.B.B.2 v z M G 4X:X=X=X&XOX$X$X$X$X$X$X$X$X$X$X",
"$X$X$X$X$X$X$X$X$X$X$X$X$XI.f.i j.L.U.E.E.Q.Q.Q.T.}.M.!.N.A S S S S G o.`.6XnXnXbX-X$X$X$X$X$X$X$X$X",
"$X$X$X$X$X$X$X$X$X$X$X$X$Xx.k.c.F.K.E.E.E.Q.^.T.1.:.;..Xs.Z C C D C C A X.@.KXJXLXGX-X$X$X$X$X$X$X$X",
"$X$X$X$X$X$X$X$X$X$X$X$XOXk.z.D.F.J.K.U.Q.Q.U.'.;.kXr.e.S.N B B B B V C V A BXLXPXJXJX3X$X$X$X$X$X$X",
"$X$X$X$X$X$X$X$X$X$X$X$XoXk.z.b.H.G.K.U.E.Q.!.m.t.:.:.1.^.! B M h l n B V Z BXPXPXLXJXGX-X$X$X$X$X$X",
"$X$X$X$X$X$X$X$X$X$X$X%XoXk.l.c.D.G.J.K.U.Q.^.U.M.1.1.R.^.(.! Z.B.% d b N ^ IXPXPXPXLXJX3X$X$X$X$X$X",
"$X$X$X$X$X$X$X$X$X$X$X$XOXd.k.c.v.G.J.K.K.E.E.Q.U.E.!.Q.^.W.(.@X&XM.% s f uXKXPXPXPXPXLXnX$X$X$X$X$X",
"$X$X$X$X$X$X$X$X$X$X$X$X$Xn.d.k.c.H.F.J.K.U.E.E.Q.Q.^.Q.^.!.(.@X$X$X XV.5XxXAXKXPXPXPXPXnX$X$X$X$X$X",
"$X$X$X$X$X$X$X$X$X$X$X$X$XI.d.k.k.c.D.L.J.K.U.W.Q.Q.Q.W.W.K.Y.+X$X$X$X&XZ.{.xXJXPXIXSXHX<X$X$X$X$X$X",
"$X$X$X$X$X$X$X$X$X$X$X$X$XoXd.d.d.l.c.v.F.J.K.U.E.E.Q.W.W.K.Y.OX$X$X$X$X&XA.zXSXPXHXFXbX%X$X$X$X$X$X",
"$X$X$X$X$X$X$X$X$X$X$X$X$XoXk.d.k.i.k.l.c.P.F.J.K.K.U.U.K.K.!.+X$X$X$X$X$XXX5XMXHXnX3X%X$X$X$X$X$X$X",
"$X$X$X$X$X$X$X$X$X$X$X$X$X&Xx.i.u.u.i.k.k.l.c.b.D.G.L.J.E././.^.+X$X$X$X$X*X[.lX<X$X$X$X$X$X$X$X$X$X",
"$X$X$X$X$X$X$X$X$X$X$X$X$X%Xx.f.u.p.y.p.u.i.k.l.l.P.G.E.W.^././.~.&X%X$X$X$X$X$X$X$X$X$X$X$X$X$X$X$X",
"$X$X$X$X$X$X$X$X$X$X$X$X$X$Xb.i.u.p.y.y.0 y.y.d.k.c.D.K.E.^./././.+X%X$X$X$X$X$X$X$X$X$X$X$X$X$X$X$X",
"$X$X$X$X$X$X$X$X$X$X$X$X$X$Xm.f.k.z.k.y.0 8 8 y.f.l.c.G.K.W.^././.!.*X$X$X$X$X$X$X$X$X$X$X$X$X$X$X$X",
"$X$X$X$X$X$X$X$X$X$X$X%X$X$XI.f.c.H.U.U.c.9 8 g.i.d.z.D.J.E.!.^.^.W.~.OX%X$X$X$X$X$X$X$X$X$X$X$X$X$X",
"$X$X$X$X$X$X$X$X$X$X$X%X$XOXm.x.H.U.E.U.E.u.9 g.m.d.d.c.D.J.K.U.W.^.I.R.[.;X%X$X$X$X$X$X$X$X$X$X$X$X",
"$X$X$X$X$X$X$X$X$X$X$X*X[.2.] } { V.M.Y.U.P.0 a.oXd.i.l.c.H.G.J.M.p ,.9.9.9.4X>X%X$X$X$X$X$X$X$X$X$X",
"$X$X$X$X$X$X$X$X$X$X*Xp W 4.6.w.q.5.,.u H.K.l.r |.I.f.d.z.b.x.a Y O.4.w.q.q.q.9.>X$X$X$X$X$X$X$X$X$X",
"$X$X$X$X$X$X$X$X$X$X'.T E Q 4.w.q.q.3.4.) h.c.0 M.%Xx.d.d.r 6 T R Q O.6.q.q.q.5.<.%X$X$X$X$X$X$X$X$X",
"$X$X$X$X$X$X$X$X$X$Xi 4 T E O.3.6.5.3.' W ( / e j.$X].q 1 - - 4 P R Q O.3.3.3.4.' =X$X$X$X$X$X$X$X$X",
"$X$X$X$X$X$X$X$X$X$Xi = x T R W O.' W E R U U - j.$X].& & = = = x P R E ` ' W E Y |.$X$X$X$X$X$X$X$X",
"$X$X$X$X$X$X$X$X$X$X]., & = - 4 I T I 4 4 - - , j.$X|., * & & & & & = 4 4 I 4 4 a $X$X$X$X$X$X$X$X$X",
"$X$X$X$X$X$X$X$X$X$X&Xi 4 U Y W 3.' ] Y 6 U Y a OX$X$Xa 4 7 - 4 I U Y ` ' ' ` _ |.$X$X$X$X$X$X$X$X$X"
};
