/* XPM */
static char *_ae8c196b5bc4812879204f37135267eDGp4Hpqo0oLGUeqH[] = {
/* columns rows colors chars-per-pixel */
"50 50 141 2 ",
"   c #042B05",
".  c #063305",
"X  c #073905",
"o  c #083D06",
"O  c #073209",
"+  c #093B0A",
"@  c #0B3910",
"#  c #0B4407",
"$  c #0B4309",
"%  c #0E4C0A",
"&  c #104F0C",
"*  c #0F510C",
"=  c #11530D",
"-  c #135B0D",
";  c #114E15",
":  c #115312",
">  c #155B16",
",  c #155B19",
"<  c #16630F",
"1  c #166412",
"2  c #176813",
"3  c #1A6D12",
"4  c #17621C",
"5  c #19641E",
"6  c #1A6B1C",
"7  c #1C7616",
"8  c #1D7816",
"9  c #1D761C",
"0  c #1E5E2D",
"q  c #186320",
"w  c #1F7B21",
"e  c #1B723E",
"r  c #21692F",
"t  c #207423",
"y  c #237D20",
"u  c #237C29",
"i  c #277E35",
"p  c #287F36",
"a  c #1F8019",
"s  c #21821A",
"d  c #258C1D",
"f  c #28941F",
"g  c #1C8927",
"h  c #1C8C37",
"j  c #258226",
"k  c #278B22",
"l  c #26842D",
"z  c #28862F",
"x  c #2A8C2A",
"c  c #289421",
"v  c #2C9C22",
"b  c #2C912B",
"n  c #2A8435",
"m  c #2B8D33",
"M  c #2D8738",
"N  c #2D8939",
"B  c #2D9135",
"V  c #31A529",
"C  c #34A92B",
"Z  c #36BA2E",
"A  c #35A337",
"S  c #37AF30",
"D  c #37B030",
"F  c #38B231",
"G  c #3FBC39",
"H  c #40BD3B",
"J  c #3CC633",
"K  c #3DCA33",
"L  c #40CE37",
"P  c #40C73D",
"I  c #42CF3A",
"U  c #44D33D",
"Y  c #1F9155",
"T  c #218E4A",
"R  c #229047",
"E  c #24924B",
"W  c #26994A",
"Q  c #299F4C",
"!  c #299958",
"~  c #3C9958",
"^  c #2DA64F",
"/  c #39B44E",
"(  c #31AC53",
")  c #31A465",
"_  c #37AD6F",
"`  c #2DB862",
"'  c #42B54A",
"]  c #42BC48",
"[  c #44B259",
"{  c #47BA60",
"}  c #48BD62",
"|  c #42BD7F",
" . c #33C967",
".. c #36CB68",
"X. c #47C743",
"o. c #48C645",
"O. c #46C944",
"+. c #49C946",
"@. c #4CCC4D",
"#. c #47D541",
"$. c #49D643",
"%. c #4BDA46",
"&. c #4EDB4A",
"*. c #51DF4D",
"=. c #4AC352",
"-. c #4FCC57",
";. c #50CF56",
":. c #51CC5B",
">. c #53D652",
",. c #53DF51",
"<. c #57DA5B",
"1. c #5BDF5C",
"2. c #52E04E",
"3. c #56E253",
"4. c #58E555",
"5. c #5BE35D",
"6. c #5DE95E",
"7. c #44DB6B",
"8. c #5DD469",
"9. c #5FEA61",
"0. c #4FE073",
"q. c #62E765",
"w. c #63EB66",
"e. c #66ED6A",
"r. c #68EE6D",
"t. c #6AF16E",
"y. c #6CF171",
"u. c #2FBEB2",
"i. c #66E98F",
"p. c #72E79C",
"a. c #0DA1CC",
"s. c #17B6C4",
"d. c #15AFD6",
"f. c #04A7E8",
"g. c #09AEEA",
"h. c #00A7FF",
"j. c #81EAAC",
"k. c #8FECBB",
"l. c #9BEDC7",
"z. c #A3EECF",
"x. c #A5EFD2",
/* pixels */
"h.h.h.h.h.h.h.h.h.h.h.h.h.h.h.h.h.h.h.h.h.h.h.h.h.h.h.h.h.h.h.h.h.h.h.h.h.h.h.h.h.h.h.h.h.h.h.h.h.h.",
"h.h.h.h.h.h.h.h.h.h.h.h.h.h.h.h.h.h.h.h.h.h.h.h.h.h.h.h.h.h.h.h.h.h.h.h.h.h.h.h.h.h.h.h.h.h.h.h.h.h.",
"h.h.h.h.h.h.h.h.h.h.h.h.h.h.h.h.h.h.h.h.h.h.h.h.h.h.h.h.h.h.h.h.h.h.h.h.h.h.h.h.h.h.h.h.h.h.h.h.h.h.",
"h.h.h.h.h.h.h.h.h.h.h.h.h.h.h.h.h.h.h.h.h.h.h.h.h.h.h.h.h.h.h.h.h.h.h.h.h.h.h.h.h.h.h.h.h.h.h.h.h.h.",
"h.h.h.h.h.h.h.h.h.h.h.h.h.h.h.h.h.h.h.h.h.h.h.h.h.h.h.h.h.h.h.h.h.h.h.h.h.h.h.h.h.h.h.h.h.h.h.h.h.h.",
"h.h.h.h.h.h.h.h.h.h.h.h.h.h.h.h.h.h.h.h.h.h.h.h.h.h.h.h.h.h.h.h.h.h.h.h.h.h.h.h.h.h.h.h.h.h.h.h.h.h.",
"h.h.h.h.h.h.h.h.h.h.h.h.h.h.h.h.h.h.h.h.h.h.h.h.h.h.h.h.h.h.h.h.h.h.h.h.h.h.h.h.h.h.h.h.h.h.h.h.h.h.",
"h.h.h.h.h.h.h.h.h.h.h.h.h.h.h.h.h.h.h.h.h.h.h.h.h.h.h.h.h.h.h.h.h.h.h.h.h.h.h.h.h.h.h.h.h.h.h.h.h.h.",
"h.h.h.h.h.h.h.h.h.h.h.h.h.h.h.h.h.h.h.h.h.h.h.h.h.h.h.h.h.h.h.h.h.h.h.h.h.h.h.h.h.h.h.h.h.h.h.h.h.h.",
"h.h.h.h.h.h.h.h.h.h.h.h.h.h.h.h.h.h.h.h.h.h.h.h.h.h.h.h.h.h.h.h.h.h.h.h.h.h.h.h.h.h.h.h.h.h.h.h.h.h.",
"h.h.h.h.h.h.h.h.h.h.h.h.h.h.h.h.h.h.h.h.h.h.h.h.h.h.h.h.h.h.h.h.h.h.h.h.h.h.h.h.h.h.h.h.h.h.h.h.h.h.",
"h.h.h.h.h.d.| | _ ) ! E E T T E R W Q ^ ( / ] =.5.8.i.p.j.k.l.z.x.x.k.k.j.p.i.y.0.7.7.g.h.h.h.h.h.h.",
"h.h.h.h.h.u.[ i q , : = & = = - 1 3 7 s d f v C H H +.>.<.w.r.t.y.t.t.9.4.2.%.%.L K U s.h.h.h.h.h.h.",
"h.h.h.h.h.u.[ i 5 , : & & = - - 1 3 7 y d f v C F H +.>.5.q.r.y.y.t.t.6.4.2.%.U L L U s.h.h.h.h.h.h.",
"h.h.h.h.h.u.[ i q 4 : = & = = - 1 3 7 8 d f v C F H +.>.1.w.r.y.t.t.6.6.4.2.%.%.L K U s.h.h.h.h.h.h.",
"h.h.h.h.h.u.[ n 5 , : = = = = - 1 3 8 s d f V C F H +.>.1.w.r.y.t.t.t.6.4.2.%.$.L K U s.h.h.h.h.h.h.",
"h.h.h.h.h.u.[ i 5 , : & & = - - 1 3 8 s s c v C F P +.>.1.q.r.r.y.t.e.9.4.2.%.#.K K %.s.h.h.h.h.h.h.",
"h.h.h.h.h.u.[ i 5 , : & & = - - 1 3 7 y d f v C F H +.>.1.q.r.y.t.t.w.9.4.*.%.#.K K U s.h.h.h.h.h.h.",
"h.h.h.h.h.u.[ i 5 , : & & = = - < 3 7 a d f v C F P o.>.1.q.r.r.t.t.w.6.4.*.%.U K K U s.h.h.h.h.h.h.",
"h.h.h.h.h.u.[ i 5 , : & & = - - < 3 7 a d f V C F H o.>.1.q.r.y.t.t.w.6.2.*.%.U U K U s.h.h.h.h.h.h.",
"h.h.h.h.h.u.[ i q , ; & & = = - 1 3 7 a d f v C F H X.>.1.q.e.r.y.e.w.6.3.*.%.&.K K U s.h.h.h.h.h.h.",
"h.h.h.h.h.u.[ i 5 > : & = = = - < 3 7 s d f v C F H X.>.1.q.r.r.t.e.w.6.3.*.%.K L K U s.h.h.h.h.h.h.",
"h.h.h.h.h.a.e 0 , ; $ $ o o $ $ % % % * = - < 1 2 3 9 y j x b b B b c g d d 8 d f g h g.h.h.h.h.h.h.",
"h.h.h.h.h.h.h.h.~ 0 @ O           X X X # # % % > 4 5 t u l n n n w w 6 6 2 1 6 R h.h.h.h.h.h.h.h.h.",
"h.h.h.h.h.h.h.h.( r @ @ @ O . . X o # # = = : , 1 6 t u z B B B m u g y 9 9 6 9 Y h.h.h.h.h.h.h.h.h.",
"h.h.h.h.h.h.h.h.{ p ; @ + + X + # # % & = , - 2 6 t u b A ' =.:.;.;.@.O.J G Z Z ` h.h.h.h.h.h.h.h.h.",
"h.h.h.h.h.h.h.h.{ p , ; + + $ $ # % & = - < 2 9 k A H @.<.q.r.e.w.9.3.&.$.I J J  .h.h.h.h.h.h.h.h.h.",
"h.h.h.h.h.h.h.h.} M , : & $ $ % % & = - 1 7 s v C H o.;.8.q.e.r.9.6.3.&.$.U J K  .h.h.h.h.h.h.h.h.h.",
"h.h.h.h.h.h.h.h.} M q : % % % % = - - < 8 d c V C H +.,.5.e.r.r.w.9.3.&.$.I K K  .h.h.h.h.h.h.h.h.h.",
"h.h.h.h.h.h.h.h.} M q : = % % * = - < 7 s d v V F H +.>.5.w.r.e.w.9.3.*.$.U K K  .h.h.h.h.h.h.h.h.h.",
"h.h.h.h.h.h.h.h.:.M 4 > = % % * * < 3 7 s d c V F H +.>.8.w.r.e.w.9.4.&.&.X.J J  .h.h.h.h.h.h.h.h.h.",
"h.h.h.h.h.h.h.h.[ M 5 > = * % * - < 3 7 s k v C F H +.>.5.q.r.r.w.6.4.*.$.U L L ..h.h.h.h.h.h.h.h.h.",
"h.h.h.h.h.h.h.h.[ M 5 > = & & = - < 3 7 s d v V C H I >.1.r.r.r.w.5.4.2.U U U L -.h.h.h.h.h.h.h.h.h.",
"h.h.h.h.h.h.h.h.{ M 5 , = = = = - < 3 7 s f v V H H P >.1.e.r.r.e.5.3.&.U U L L ..h.h.h.h.h.h.h.h.h.",
"h.h.h.h.h.h.h.h.} M q , = = & = - < 3 8 s f v V H H +.<.1.e.e.e.w.6.3.&.U U K K ..h.h.h.h.h.h.h.h.h.",
"h.h.h.h.h.h.h.h.} M q , = % = = < < 3 8 s d v V H H +.>.1.q.r.r.w.5.3.*.U L K K ..h.h.h.h.h.h.h.h.h.",
"h.h.h.h.h.h.h.h.[ N 5 , = & = = - < 3 8 s d v V C H +.>.q.q.r.e.w.6.3.*.U U H J  .h.h.h.h.h.h.h.h.h.",
"h.h.h.h.h.h.h.h.:.M 5 > = & = = - < 3 8 s d v V H H U <.1.r.e.e.w.6.3.2.U U L L  .h.h.h.h.h.h.h.h.h.",
"h.h.h.h.h.h.h.h.{ N 5 > = & & = - < 3 8 s f v V C H P >.1.e.e.e.w.6.2.2.U U L L ..h.h.h.h.h.h.h.h.h.",
"h.h.h.h.h.h.h.h.} N 5 > = & = = - < 3 8 s d v V C H P >.1.e.r.e.w.6.3.U *.U L H ..h.h.h.h.h.h.h.h.h.",
"h.h.h.h.h.h.h.h.} N 5 , = & % = - < 3 8 s d v V F H +.>.1.q.e.e.w.5.*.&.U L J L ..h.h.h.h.h.h.h.h.h.",
"h.h.h.h.h.h.h.h.} N 5 , = = = = - < 3 8 s f v V F H +.>.1.q.e.e.w.1.,.*.$.L J L ..h.h.h.h.h.h.h.h.h.",
"h.h.h.h.h.h.h.h.} N q , = & = = - < 3 8 s f v V F H o.>.5.w.e.w.w.4.,.*.$.U J J ..h.h.h.h.h.h.h.h.h.",
"h.h.h.h.h.h.h.h.} N q , = = = = - < 3 8 s d f V S H X.>.1.w.e.r.q.6.*.*.$.I J J ..h.h.h.h.h.h.h.h.h.",
"h.h.h.h.h.h.h.h.} N 5 > = & = = - < 3 8 s d v v S H P >.1.w.w.w.w.4.3.*.$.I L L  .h.h.h.h.h.h.h.h.h.",
"h.h.h.h.h.h.h.h.} M 5 > : & = = - < 3 8 s d v V S H +.>.1.q.r.w.9.5.3.&.$.I J J  .h.h.h.h.h.h.h.h.h.",
"h.h.h.h.h.h.h.h.=.N 5 > = * & = - < 3 8 s d v V H H +.>.1.w.w.w.q.5.*.*.U U J J ..h.h.h.h.h.h.h.h.h.",
"h.h.h.h.h.h.h.h.} T 5 > = * * = - < 3 8 s f v v C H P >.1.q.w.w.6.5.*.$.U L J L ..h.h.h.h.h.h.h.h.h.",
"h.h.h.h.h.h.h.h.} N q , = = = = - < 3 8 s d f C F H P >.1.q.w.w.9.5.2.*.U I L L  .h.h.h.h.h.h.h.h.h.",
"h.h.h.h.h.h.h.h.[ M q , = = & = - < 3 7 s d f V S P X.>.1.q.w.w.9.5.2.%.U I H L  .f.h.h.h.h.h.h.h.h."
};
