/* XPM */
static char *_033_b68654c305f4e8f3b9b6ff0cbed724c2e30794e969c81eab45b6e873814a9af8_0[] = {
/* columns rows colors chars-per-pixel */
"50 50 198 2 ",
"   c #083907",
".  c #153F04",
"X  c #772E12",
"o  c #7A362D",
"O  c #0B4309",
"+  c #0E4C0B",
"@  c #075300",
"#  c #08520C",
"$  c #10520D",
"%  c #145D0D",
"&  c #0D4112",
"*  c #115211",
"=  c #145B18",
"-  c #0A6906",
";  c #0E6216",
":  c #186616",
">  c #186812",
",  c #17621C",
"<  c #18621C",
"1  c #1B7213",
"2  c #1E7919",
"3  c #20781E",
"4  c #035F33",
"5  c #196527",
"6  c #247E28",
"7  c #3C504D",
"8  c #046A46",
"9  c #06704A",
"0  c #036D69",
"q  c #047873",
"w  c #634647",
"e  c #56596E",
"r  c #8D1D01",
"t  c #931E00",
"y  c #9A1E01",
"u  c #A21F00",
"i  c #982207",
"p  c #932D1A",
"a  c #A72506",
"s  c #B72301",
"d  c #B43115",
"f  c #8C322C",
"g  c #B53921",
"h  c #C22500",
"j  c #CF2700",
"k  c #C9300F",
"l  c #E73006",
"z  c #FB3703",
"x  c #94402B",
"c  c #8D4A37",
"v  c #944133",
"b  c #A74935",
"n  c #D8431D",
"m  c #D44C30",
"M  c #FB5126",
"N  c #994B4F",
"B  c #925749",
"V  c #825255",
"C  c #B05249",
"Z  c #8C6758",
"A  c #AF6A69",
"S  c #AB7375",
"D  c #D46D54",
"F  c #EA6B48",
"G  c #C6736A",
"H  c #148B06",
"J  c #189405",
"K  c #1D9D01",
"L  c #12971D",
"P  c #248A1C",
"I  c #27901E",
"U  c #1CA501",
"Y  c #1DBC08",
"T  c #1EA610",
"R  c #22A300",
"E  c #25AB01",
"W  c #24B401",
"Q  c #2CB400",
"!  c #35B902",
"~  c #21BA11",
"^  c #149C37",
"/  c #268B25",
"(  c #2C9729",
")  c #309C2D",
"_  c #339937",
"`  c #2FA025",
"'  c #32A428",
"]  c #36AB2D",
"[  c #37A13C",
"{  c #3DB737",
"}  c #3DB937",
"|  c #44BF3F",
" . c #36C30D",
".. c #39C537",
"X. c #3ECC35",
"o. c #42C201",
"O. c #44CC00",
"+. c #4CD608",
"@. c #48C816",
"#. c #53D912",
"$. c #42CD3C",
"%. c #45D23E",
"&. c #0F8D4C",
"*. c #0B8757",
"=. c #389C4A",
"-. c #339755",
";. c #16AE4A",
":. c #31A544",
">. c #39A256",
",. c #38A559",
"<. c #0B8E6C",
"1. c #0C997B",
"2. c #11A164",
"3. c #18A377",
"4. c #45BC45",
"5. c #46D541",
"6. c #4FD04C",
"7. c #4DD44E",
"8. c #4FDB4B",
"9. c #50D24E",
"0. c #51DE4D",
"q. c #56D55C",
"w. c #52E04F",
"e. c #5CE65D",
"r. c #5EE95F",
"t. c #5EE361",
"y. c #5EEA60",
"u. c #60E563",
"i. c #65ED68",
"p. c #66ED6A",
"a. c #6AF06E",
"s. c #69E975",
"d. c #BE8378",
"f. c #E78C75",
"g. c #587090",
"h. c #6E6B84",
"j. c #87738D",
"k. c #9B7892",
"l. c #068686",
"z. c #148F8C",
"x. c #0B9B87",
"c. c #099A98",
"v. c #10B095",
"b. c #21BC93",
"n. c #0B99A2",
"m. c #3886A9",
"M. c #15A9AE",
"N. c #1CB2A2",
"B. c #1FBCAD",
"V. c #6982AB",
"C. c #75F084",
"Z. c #07A1CC",
"A. c #2CBAC9",
"S. c #1288FE",
"D. c #00A7FF",
"F. c #13B0F5",
"G. c #7FABDE",
"H. c #57B2E8",
"J. c #7BC4EF",
"K. c #6AC1F4",
"L. c #A88F96",
"P. c #BD99A6",
"I. c #A39BB7",
"U. c #91A3A6",
"Y. c #94ADB3",
"T. c #C09395",
"R. c #F89D85",
"E. c #C59EA1",
"W. c #F6C8BE",
"Q. c #8799C3",
"!. c #88AADB",
"~. c #A9ADC6",
"^. c #B7B7CB",
"/. c #A7ADD0",
"(. c #ACB7D7",
"). c #AFC4DC",
"_. c #B8C4DD",
"`. c #93CEF3",
"'. c #BAC8E3",
"]. c #A9D2F3",
"[. c #BADAF5",
"{. c #C6C6D6",
"}. c #F1D8D0",
"|. c #FEE2DB",
" X c #C7CDE6",
".X c #CDD4E5",
"XX c #CAD4EC",
"oX c #CED8EB",
"OX c #D4DCEC",
"+X c #C9E7FA",
"@X c #DBE6F4",
"#X c #DBF0FB",
"$X c #F6F1EE",
"%X c #E5ECF5",
"&X c #EDF0F6",
"*X c #EDF4FB",
"=X c #F4F7FB",
"-X c #FDFEFE",
/* pixels */
"D.D.D.D.D.D.D.D.D.D.D.D.D.D.D.D.D.D.D.D.D.D.D.D.D.D.D.D.D.D.D.D.D.D.D.D.D.D.D.D.D.D.D.D.D.D.D.D.D.D.",
"D.D.D.D.D.D.D.D.D.D.D.D.D.D.D.D.D.D.D.D.D.D.D.D.D.D.D.D.D.D.D.D.D.D.D.D.D.D.D.D.D.D.D.D.D.D.D.D.D.D.",
"D.D.D.D.D.D.D.D.D.D.D.D.D.D.D.D.D.D.D.D.D.D.D.D.D.D.D.D.D.D.D.D.D.D.D.D.D.D.D.D.D.D.D.D.D.D.D.D.D.D.",
"D.D.D.D.D.D.D.D.D.D.D.D.D.D.D.D.D.D.D.D.D.D.D.D.D.D.`.#X`.D.D.D.D.D.D.D.D.D.D.D.D.D.D.D.D.D.D.D.D.D.",
"D.D.D.D.D.D.D.D.D.D.D.D.D.D.D.D.D.D.D.D.D.D.D.D.D.D.-X-X@XV.D.D.D.D.D.D.D.D.D.D.D.D.D.D.D.D.D.D.D.D.",
"D.D.D.D.D.D.D.D.D.D.D.D.D.D.D.D.D.D.D.D.D.D.D.D.D.K.-X-X=XG W.+XJ.D.D.D.D.D.D.D.D.D.D.D.D.D.D.D.D.D.",
"D.D.D.D.D.D.D.D.D.D.D.D.D.D.D.D.D.D.D.D.D.D.D.D.D.D.-X-X-XE.F |.|.m g.D.D.D.D.D.D.D.D.D.D.D.D.D.D.D.",
"D.D.D.D.D.D.D.D.D.D.D.D.D.D.D.D.D.D.D.D.D.D.D.D.D.D.+X-X-X{.n z z z n H.D.D.D.D.D.D.D.D.D.D.D.D.D.D.",
"D.D.D.D.D.D.D.D.D.D.D.D.D.D.D.D.D.D.D.D.D.D.D.D.D.D.D.*X-X@XG z z R.F d.D.D.D.D.D.D.D.D.D.D.D.D.D.D.",
"D.D.D.D.D.D.D.D.D.D.D.D.D.D.D.D.D.D.D.D.D.D.D.D.D.D.D.OX*X%XP.z M $X}.d v D.D.D.D.D.D.D.D.D.D.D.D.D.",
"D.D.D.D.D.D.D.D.D.D.D.D.D.D.D.D.D.D.D.D.D.D.D.D.D.D.D.H.[.@X_.m l f.D s u e D.D.D.D.D.D.D.D.D.D.D.D.",
"D.D.D.D.D.D.D.D.D.D.D.D.D.D.D.D.D.D.D.D.D.D.D.D.D.D.D.D.D.@XXXS l j h s y o D.D.D.D.D.D.D.D.D.D.D.D.",
"D.D.D.D.D.D.D.D.D.D.D.D.D.D.D.D.D.D.D.D.D.D.D.D.D.D.D.D.D.XXXXI.k j s b B p D.D.D.D.D.D.D.D.D.D.D.D.",
"D.D.D.D.D.D.D.D.D.D.D.D.D.D.D.D.D.D.D.D.D.D.D.D.D.D.D.D.D.K.XX/.N s g Y.Y.Z D.D.D.D.D.D.D.D.D.D.D.D.",
"D.D.D.D.D.D.D.D.D.D.D.D.D.D.D.D.D.D.D.D.D.D.D.D.K.D.'.J.[.OX X).L.a C Y.Y.Z D.D.D.D.D.D.D.D.D.D.D.D.",
"D.D.D.D.D.D.D.D.D.D.D.D.D.D.D.D.D.D.D.D.D.D.D.D.OX)..X^.{.OX^._.V.i x U.Y.w D.D.D.D.D.D.D.D.D.D.D.D.",
"D.D.D.D.D.D.D.D.D.D.D.D.D.D.D.D.D.D.D.D.D.D.].OXoX~..XI.^.*X%X(.h.t t c c w D.D.D.D.D.D.D.D.D.D.D.D.",
"D.D.D.D.D.D.D.D.D.D.D.D.D.D.D.D.D.D.D.D.D.+X=X&X&X%X=X=X*XOX~.j.f r r r r 7 D.D.D.D.D.D.D.D.D.D.D.D.",
"D.D.D.D.D.D.D.D.D.D.D.D.D.D.D.D.D.D.D.D.D.%X*X*X&X%XOX'./.k.N p i t i i X . 4 D.D.D.D.D.D.D.D.D.D.D.",
"D.D.D.D.D.D.D.D.D.D.D.D.D.D.D.D.D.D.D.D.D.].XX X'.(.I.k.N a A L.S a i x m.0 # 4 D.D.D.D.D.D.D.D.D.D.",
"D.D.D.D.D.D.D.D.D.D.D.D.D.D.D.D.D.D.D.D.D.D.G.!.Q.A g s s C _.^._.g a D.D.D.l.@ q D.D.D.D.D.D.D.D.D.",
"D.D.D.D.D.D.D.D.D.D.D.D.D.D.D.D.D.D.D.D.D.D.D.D.D.D.~.k h d T.T.C v D.D.D.D.D.@ 9 D.D.D.D.D.D.D.D.D.",
"D.D.D.D.D.D.D.D.D.D.D.D.D.D.D.D.D.D.D.D.D.D.D.D.D.D.D.D.e V V h.D.D.D.D.D.D.D.@ 9 D.D.D.D.D.D.D.D.D.",
"D.D.D.D.D.D.D.D.D.D.D.D.D.D.D.D.D.D.D.D.D.D.D.D.D.D.D.D.D.D.D.D.D.D.D.D.D.D.q @ l.D.D.D.D.D.D.D.D.D.",
"D.D.D.D.D.D.D.D.D.D.D.D.D.D.D.D.D.D.D.D.D.D.D.D.D.D.D.D.D.D.D.D.D.D.D.D.D.l.# ; D.D.D.D.D.D.D.D.D.D.",
"D.D.D.D.D.D.D.D.D.D.D.D.D.D.D.D.D.D.D.D.D.D.D.D.D.N.b.b.D.D.D.D.D.D.D.D.8 - - n.D.D.D.D.D.D.D.D.D.D.",
"D.D.D.D.D.D.D.D.D.D.D.D.D.D.D.D.D.D.D.D.D.D.D.v.~ Q  .O.O.@...N.D.D.D.L J J @.#.+.#.O.Q T 2.D.D.D.D.",
"D.D.D.D.D.D.D.D.D.D.D.D.D.D.D.D.D.D.D.D.D.D.v.1.c.;.W Q ! o.o.! 3.D.;.U S.! O.O.O.Q R U J z.<.D.D.D.",
"D.D.D.D.D.D.D.D.D.D.D.D.D.D.D.D.D.D.D.D.D.D.D.D.D.D.1.1.^ U E U H x.~ S.H W E U K J <.n.D.D.D.D.D.D.",
"D.D.D.D.D.D.D.D.D.D.D.D.D.D.D.D.D.D.D.D.D.D.D.D.D.D.D.D.D.x.&.*.<.*.Y H 1.Z.1.x.x.c.D.D.D.D.D.D.D.D.",
"D.D.D.D.D.D.D.D.D.D.D.D.D.D.D.D.D.D.D.D.D.D.D.D.D.D.D.D.D.D.D.Z.M.M.~ :.A.F.D.D.D.D.D.D.D.D.D.D.D.D.",
"D.D.D.D.D.D.D.D.D.D.D.D.D.D.D.D.D.D.D.D.D.D.D.D.D.D.,.5 5 = , 2 6 ( ] | q.s.C.C.s.t.7.5.D.D.D.D.D.D.",
"D.D.D.D.D.D.D.D.D.D.D.D.D.D.D.D.D.D.D.D.D.D.D.D.D.D.=.< * $ % > 2 I ' | 6.u.a.a.y.w.%.%.b.D.D.D.D.D.",
"D.D.D.D.D.D.D.D.D.D.D.D.D.D.D.D.D.D.D.D.D.D.D.D.D.D.=.< * $ $ > 2 I ' } 6.u.a.a.y.w.%.$.B.D.D.D.D.D.",
"D.D.D.D.D.D.D.D.D.D.D.D.D.D.D.D.D.D.D.D.D.D.D.D.D.D.=., * $ % > 2 I ' } 6.t.a.a.y.w.%.$.B.D.D.D.D.D.",
"D.D.D.D.D.D.D.D.D.D.D.D.D.D.D.D.D.D.D.D.D.D.D.D.D.D.=.= $ + % > 2 I ` | 6.u.p.a.y.w.%.$.B.D.D.D.D.D.",
"D.D.D.D.D.D.D.D.D.D.D.D.D.D.D.D.D.D.D.D.D.D.D.D.D.D.z.5       O @ % : 3 / _ [ [ ( ( ( 2.D.D.D.D.D.D.",
"D.D.D.D.D.D.D.D.D.D.D.D.D.D.D.D.D.D.D.D.D.D.D.D.D.D.D.-.&       O $ % : 6 _ =._ ) / I D.D.D.D.D.D.D.",
"D.D.D.D.D.D.D.D.D.D.D.D.D.D.D.D.D.D.D.D.D.D.D.D.D.D.D.>.= O O + $ > 2 ( 4.q.u.e.6.$.X.D.D.D.D.D.D.D.",
"D.D.D.D.D.D.D.D.D.D.D.D.D.D.D.D.D.D.D.D.D.D.D.D.D.D.D.,., & + $ > 2 ` { 9.u.a.u.0.5.$.D.D.D.D.D.D.D.",
"D.D.D.D.D.D.D.D.D.D.D.D.D.D.D.D.D.D.D.D.D.D.D.D.D.D.D.,., $ $ % 1 P ( { 9.u.p.r.0.5.X.D.D.D.D.D.D.D.",
"D.D.D.D.D.D.D.D.D.D.D.D.D.D.D.D.D.D.D.D.D.D.D.D.D.D.D.,., $ $ % 1 P ` | 9.i.p.r.0.%.X.D.D.D.D.D.D.D.",
"D.D.D.D.D.D.D.D.D.D.D.D.D.D.D.D.D.D.D.D.D.D.D.D.D.D.D.,., $ $ % 1 P ` } 9.u.p.r.0.%.$.D.D.D.D.D.D.D.",
"D.D.D.D.D.D.D.D.D.D.D.D.D.D.D.D.D.D.D.D.D.D.D.D.D.D.D.>., $ % % 1 P ` | 9.u.p.r.0.%.X.D.D.D.D.D.D.D.",
"D.D.D.D.D.D.D.D.D.D.D.D.D.D.D.D.D.D.D.D.D.D.D.D.D.D.D.,.< $ $ % 1 P ` } 9.t.p.r.0.%.X.D.D.D.D.D.D.D.",
"D.D.D.D.D.D.D.D.D.D.D.D.D.D.D.D.D.D.D.D.D.D.D.D.D.D.D.,., $ $ % 1 P ` } 9.t.i.e.8.%.X.D.D.D.D.D.D.D.",
"D.D.D.D.D.D.D.D.D.D.D.D.D.D.D.D.D.D.D.D.D.D.D.D.D.D.D.,., $ % % 1 P ` } 6.u.i.e.8.%.X.D.D.D.D.D.D.D.",
"D.D.D.D.D.D.D.D.D.D.D.D.D.D.D.D.D.D.D.D.D.D.D.D.D.D.D.,., $ $ % 1 P ` } 6.e.i.e.0.$.X.D.D.D.D.D.D.D.",
"D.D.D.D.D.D.D.D.D.D.D.D.D.D.D.D.D.D.D.D.D.D.D.D.D.D.D.,., $ $ % 1 P ` } 6.e.i.e.8.$.X.D.D.D.D.D.D.D.",
"D.D.D.D.D.D.D.D.D.D.D.D.D.D.D.D.D.D.D.D.D.D.D.D.D.D.D.,.< $ $ % 1 P ` } 6.e.i.e.8.$.X.D.D.D.D.D.D.D."
};
