/* XPM */
static char *_5117_e20a6e5371b8771201b5b4a32c1fed1a70575c4382d4c166c49baeee3e8e7146_0[] = {
/* columns rows colors chars-per-pixel */
"50 50 201 2 ",
"   c #083907",
".  c #153F04",
"X  c #793220",
"o  c #0B4309",
"O  c #0E4C0B",
"+  c #075300",
"@  c #08520C",
"#  c #10520D",
"$  c #145D0D",
"%  c #0D4112",
"&  c #115211",
"*  c #145B18",
"=  c #0C650E",
"-  c #186812",
";  c #17621C",
":  c #18641A",
">  c #1B7213",
",  c #1E7919",
"<  c #20781E",
"1  c #035F33",
"2  c #196527",
"3  c #247E28",
"4  c #3C504D",
"5  c #046A46",
"6  c #06704A",
"7  c #036D69",
"8  c #047873",
"9  c #634647",
"0  c #56596E",
"q  c #8D1D01",
"w  c #971E01",
"e  c #982207",
"r  c #932D1A",
"t  c #A72506",
"y  c #B72301",
"u  c #B43115",
"i  c #8C322C",
"p  c #B53921",
"a  c #C52600",
"s  c #C9300F",
"d  c #E73006",
"f  c #FB3703",
"g  c #8F4633",
"h  c #944133",
"j  c #A74935",
"k  c #D8431D",
"l  c #F54909",
"z  c #F55E1C",
"x  c #F96E16",
"c  c #D44C30",
"v  c #EE5328",
"b  c #F07027",
"n  c #994B4F",
"m  c #925749",
"M  c #825255",
"N  c #B05249",
"B  c #8C6758",
"V  c #BD7244",
"C  c #A76A69",
"Z  c #B56E70",
"A  c #AB7375",
"S  c #D46D54",
"D  c #EE6F45",
"F  c #C6736A",
"G  c #148B06",
"H  c #1B9903",
"J  c #12971D",
"K  c #209601",
"L  c #208019",
"P  c #248A1C",
"I  c #27901E",
"U  c #1CA501",
"Y  c #1DBC08",
"T  c #23A500",
"R  c #28B401",
"E  c #35B902",
"W  c #21BA11",
"Q  c #149C37",
"!  c #268B25",
"~  c #2C9729",
"^  c #339937",
"/  c #2FA025",
"(  c #32A428",
")  c #36AB2D",
"_  c #37A13C",
"`  c #3DB937",
"'  c #44BF3F",
"]  c #36C30D",
"[  c #39C537",
"{  c #3ECC35",
"}  c #42C201",
"|  c #44CC00",
" . c #4FD70D",
".. c #48C816",
"X. c #42CD3C",
"o. c #45D23E",
"O. c #0F8D4C",
"+. c #0B8757",
"@. c #389C4A",
"#. c #339755",
"$. c #16AE4A",
"%. c #31A544",
"&. c #39A256",
"*. c #38A559",
"=. c #0B8E6C",
"-. c #0C997B",
";. c #11A164",
":. c #18A377",
">. c #45BC45",
",. c #46D541",
"<. c #4FD04C",
"1. c #4FDB4B",
"2. c #50D24E",
"3. c #51DE4D",
"4. c #51D555",
"5. c #52E04F",
"6. c #5CE65D",
"7. c #5EE95F",
"8. c #5EE361",
"9. c #5EEA60",
"0. c #60E563",
"q. c #65ED68",
"w. c #66ED6A",
"e. c #6AF06E",
"r. c #69E975",
"t. c #FB8507",
"y. c #FFB809",
"u. c #FEAD15",
"i. c #D8B12E",
"p. c #FFCB16",
"a. c #85957A",
"s. c #86A579",
"d. c #C8B640",
"f. c #C1827F",
"g. c #E78C75",
"h. c #587090",
"j. c #6E6B84",
"k. c #87738D",
"l. c #9B7892",
"z. c #0A8988",
"x. c #0B9B87",
"c. c #099A98",
"v. c #10B095",
"b. c #21BC93",
"n. c #0B99A2",
"m. c #3886A9",
"M. c #1CB2A2",
"N. c #1FBCAD",
"B. c #6F89AB",
"V. c #75F084",
"C. c #2C97D8",
"Z. c #07A1CC",
"A. c #2CBAC9",
"S. c #159EEA",
"D. c #1288FE",
"F. c #00A7FF",
"G. c #0AA5F8",
"H. c #14A8F4",
"J. c #57B2E8",
"K. c #7BC4EF",
"L. c #6AC1F4",
"P. c #AD9691",
"I. c #8084A3",
"U. c #B79BA7",
"Y. c #A39BB7",
"T. c #91A3A6",
"R. c #94ADB3",
"E. c #A8ABAE",
"W. c #CB9593",
"Q. c #F89D85",
"!. c #C59EA1",
"~. c #FFF89B",
"^. c #F6C8BE",
"/. c #FFF4A3",
"(. c #8799C3",
"). c #88AADB",
"_. c #A9ADC6",
"`. c #B7B7CB",
"'. c #A7ADD0",
"]. c #ACB7D7",
"[. c #AFC4DC",
"{. c #B8C4DD",
"}. c #93CEF3",
"|. c #BAC8E3",
" X c #A9D2F3",
".X c #BADAF5",
"XX c #C6C6D6",
"oX c #F1D8D0",
"OX c #FEE2DB",
"+X c #C7CDE6",
"@X c #CBD4E9",
"#X c #D4DCEC",
"$X c #C9E7FA",
"%X c #DBE6F4",
"&X c #DBF0FB",
"*X c #F6F1EE",
"=X c #E5ECF5",
"-X c #EDF0F6",
";X c #EDF4FB",
":X c #F4F7FB",
">X c #FDFEFE",
/* pixels */
"F.F.F.F.F.F.F.F.F.F.F.F.F.F.F.F.F.F.F.F.F.F.F.F.F.F.F.F.F.F.F.F.F.F.F.F.F.F.F.F.F.F.F.F.F.F.F.F.F.F.",
"F.F.F.F.F.F.F.F.F.F.F.F.F.F.F.F.F.F.F.F.F.F.F.F.F.F.F.F.F.F.F.F.F.F.F.F.F.F.F.F.F.F.F.F.F.F.F.F.F.F.",
"F.F.F.F.F.F.F.F.F.F.F.F.F.F.F.F.F.F.F.F.F.F.F.F.F.F.F.F.F.F.F.F.F.F.F.F.F.F.F.F.F.F.F.F.F.F.F.F.F.F.",
"F.F.F.F.F.F.F.F.F.F.F.F.F.F.F.F.F.F.F.F.F.F.F.F.F.F.}.&X}.F.F.F.F.F.F.F.F.F.F.F.F.F.F.F.F.F.F.F.F.F.",
"F.F.F.F.F.F.F.F.F.F.F.F.F.F.F.F.F.F.F.F.F.F.F.F.F.F.>X>X%XB.F.F.F.F.F.F.F.F.F.F.F.F.F.F.F.F.F.F.F.F.",
"F.F.F.F.F.F.F.F.F.F.F.F.F.F.F.F.F.F.F.F.F.F.F.F.F.L.>X>X:XF ^.$XK.F.F.F.F.F.F.F.F.F.F.F.F.F.F.F.F.F.",
"F.F.F.F.F.F.F.F.F.F.F.F.F.F.F.F.F.F.F.F.F.F.F.F.F.F.:X>X>X!.D oXOXc h.F.F.F.F.F.F.F.F.F.F.F.F.F.F.F.",
"F.F.F.F.F.F.F.F.F.F.F.F.F.F.F.F.F.F.F.S.a.V C C.G.F.$X>X>XXXv f f f k J.F.F.F.F.F.F.F.F.F.F.F.F.F.F.",
"F.F.F.F.F.F.F.F.F.F.F.F.F.F.F.F.F.F.F.a.y.p.t.c A G.F.:X>X%XF f f Q.D Z F.F.F.F.F.F.F.F.F.F.F.F.F.F.",
"F.F.F.F.F.F.F.F.F.F.F.F.F.F.F.F.F.F.F.i.~./.y.l z U.F.%X;X=XU.f v *XoXu h F.F.F.F.F.F.F.F.F.F.F.F.F.",
"F.F.F.F.F.F.F.F.F.F.F.F.F.F.F.F.F.F.F.d.~./.u.x b W.G.J.$X=XXXc d g.S y t 0 F.F.F.F.F.F.F.F.F.F.F.F.",
"F.F.F.F.F.F.F.F.F.F.F.F.F.F.F.F.F.F.F.s.y.y.t.z b E.F.F.F.$X+XA d d a t w X F.F.F.F.F.F.F.F.F.F.F.F.",
"F.F.F.F.F.F.F.F.F.F.F.F.F.F.F.F.F.F.F.S.V b x t.D (.F.F.F.|.@XY.s s y j m r F.F.F.F.F.F.F.F.F.F.F.F.",
"F.F.F.F.F.F.F.F.F.F.F.F.F.F.F.F.F.F.F.F.G.C.B.P.E.H.F.F.F.L.@X].n a p E.R.B F.F.F.F.F.F.F.F.F.F.F.F.",
"F.F.F.F.F.F.F.F.F.F.F.F.F.F.F.F.F.F.F.F.F.F.F.F.L.F.{.K..X%X+X{.k.t m R.R.B F.F.F.F.F.F.F.F.F.F.F.F.",
"F.F.F.F.F.F.F.F.F.F.F.F.F.F.F.F.F.F.F.F.F.F.F.F.%X[.+X`.XX#X'.{.I.e h T.E.9 F.F.F.F.F.F.F.F.F.F.F.F.",
"F.F.F.F.F.F.F.F.F.F.F.F.F.F.F.F.F.F.F.F.F.F. X#X@X_.@XY.`.:X=X].j.w q g g 9 F.F.F.F.F.F.F.F.F.F.F.F.",
"F.F.F.F.F.F.F.F.F.F.F.F.F.F.F.F.F.F.F.F.F.$X:X-X-X-X:X:X*X#X_.k.i q q q q 4 F.F.F.F.F.F.F.F.F.F.F.F.",
"F.F.F.F.F.F.F.F.F.F.F.F.F.F.F.F.F.F.F.F.F.&X;X;X-X=X#X+X'.l.n r e w e e X o 1 F.F.F.F.F.F.F.F.F.F.F.",
"F.F.F.F.F.F.F.F.F.F.F.F.F.F.F.F.F.F.F.F.F. X@X+X|.].(.l.n t C P.A t e h m.7 @ = F.F.F.F.F.F.F.F.F.F.",
"F.F.F.F.F.F.F.F.F.F.F.F.F.F.F.F.F.F.F.F.F.F.).).(.Z p y y N `.|.{.p t F.F.F.z.+ 8 F.F.F.F.F.F.F.F.F.",
"F.F.F.F.F.F.F.F.F.F.F.F.F.F.F.F.F.F.F.F.F.F.F.F.F.F.Y.s a u f.W.N h F.F.F.F.F.+ 6 F.F.F.F.F.F.F.F.F.",
"F.F.F.F.F.F.F.F.F.F.F.F.F.F.F.F.F.F.F.F.F.F.F.F.F.F.F.F.j.M M h.F.F.F.F.F.F.F.+ 6 F.F.F.F.F.F.F.F.F.",
"F.F.F.F.F.F.F.F.F.F.F.F.F.F.F.F.F.F.F.F.F.F.F.F.F.F.F.F.F.F.F.F.F.F.F.F.F.F.8 @ z.F.F.F.F.F.F.F.F.F.",
"F.F.F.F.F.F.F.F.F.F.F.F.F.F.F.F.F.F.F.F.F.F.F.F.F.F.F.F.F.F.F.F.F.F.F.F.F.z.@ = F.F.F.F.F.F.F.F.F.F.",
"F.F.F.F.F.F.F.F.F.F.F.F.F.F.F.F.F.F.F.F.F.F.F.F.F.v.v.b.F.F.F.F.F.F.F.F.5 = = n.F.F.F.F.F.F.F.F.F.F.",
"F.F.F.F.F.F.F.F.F.F.F.F.F.F.F.F.F.F.F.F.F.F.F.v.W R } | | ..[ M.F.F.F.J G H .. . . .| E H ;.F.F.F.F.",
"F.F.F.F.F.F.F.F.F.F.F.F.F.F.F.F.F.F.F.F.F.F.v.-.c.$.R R E } } ] :.F.$.U D.E | | } R T K H c.-.F.F.F.",
"F.F.F.F.F.F.F.F.F.F.F.F.F.F.F.F.F.F.F.F.F.F.F.F.F.F.x.-.Q U T T G x.Y D.G R R H K H =.n.F.F.F.F.F.F.",
"F.F.F.F.F.F.F.F.F.F.F.F.F.F.F.F.F.F.F.F.F.F.F.F.F.F.F.F.F.x.O.+.=.+.Y G -.Z.-.x.x.c.F.F.F.F.F.F.F.F.",
"F.F.F.F.F.F.F.F.F.F.F.F.F.F.F.F.F.F.F.F.F.F.F.F.F.F.F.F.F.F.F.Z.Z.M.W %.A.H.F.F.F.F.F.F.F.F.F.F.F.F.",
"F.F.F.F.F.F.F.F.F.F.F.F.F.F.F.F.F.F.F.F.F.F.F.F.F.F.*.2 2 * ; , ! ~ ) >.4.r.V.V.r.8.3.,.F.F.F.F.F.F.",
"F.F.F.F.F.F.F.F.F.F.F.F.F.F.F.F.F.F.F.F.F.F.F.F.F.F.@.; & # # - , I ( ' 2.8.e.e.9.5.o.o.b.F.F.F.F.F.",
"F.F.F.F.F.F.F.F.F.F.F.F.F.F.F.F.F.F.F.F.F.F.F.F.F.F.@.; & # $ - , I ( ` <.8.e.e.9.5.o.X.N.F.F.F.F.F.",
"F.F.F.F.F.F.F.F.F.F.F.F.F.F.F.F.F.F.F.F.F.F.F.F.F.F.@.; # # $ - , I ( ` <.8.e.e.9.5.o.X.N.F.F.F.F.F.",
"F.F.F.F.F.F.F.F.F.F.F.F.F.F.F.F.F.F.F.F.F.F.F.F.F.F.@.; # # $ - , I ( ` 2.6.e.e.9.5.o.X.N.F.F.F.F.F.",
"F.F.F.F.F.F.F.F.F.F.F.F.F.F.F.F.F.F.F.F.F.F.F.F.F.F.z.2 .     o # $ - < ! ^ _ _ ~ ~ I :.F.F.F.F.F.F.",
"F.F.F.F.F.F.F.F.F.F.F.F.F.F.F.F.F.F.F.F.F.F.F.F.F.F.F.#.        o # * > 3 ^ @.^ ~ ~ P F.F.F.F.F.F.F.",
"F.F.F.F.F.F.F.F.F.F.F.F.F.F.F.F.F.F.F.F.F.F.F.F.F.F.F.&.2 % o O # $ L / >.4.0.6.<.X.{ F.F.F.F.F.F.F.",
"F.F.F.F.F.F.F.F.F.F.F.F.F.F.F.F.F.F.F.F.F.F.F.F.F.F.F.*.* % O # $ L ~ ` <.0.r.0.3.o.X.F.F.F.F.F.F.F.",
"F.F.F.F.F.F.F.F.F.F.F.F.F.F.F.F.F.F.F.F.F.F.F.F.F.F.F.*.; # # $ > P / ` 2.0.e.7.3.,.{ F.F.F.F.F.F.F.",
"F.F.F.F.F.F.F.F.F.F.F.F.F.F.F.F.F.F.F.F.F.F.F.F.F.F.F.*.; # # $ > P / ` 2.0.w.0.3.o.{ F.F.F.F.F.F.F.",
"F.F.F.F.F.F.F.F.F.F.F.F.F.F.F.F.F.F.F.F.F.F.F.F.F.F.F.*.; # # $ > P / ' 2.q.w.7.3.o.X.F.F.F.F.F.F.F.",
"F.F.F.F.F.F.F.F.F.F.F.F.F.F.F.F.F.F.F.F.F.F.F.F.F.F.F.*.; # # $ > P / ` 2.0.w.7.3.o.{ F.F.F.F.F.F.F.",
"F.F.F.F.F.F.F.F.F.F.F.F.F.F.F.F.F.F.F.F.F.F.F.F.F.F.F.*.; # # $ > P / ` 2.0.w.6.3.o.{ F.F.F.F.F.F.F.",
"F.F.F.F.F.F.F.F.F.F.F.F.F.F.F.F.F.F.F.F.F.F.F.F.F.F.F.*.; # # $ > P / ` <.0.q.6.1.o.{ F.F.F.F.F.F.F.",
"F.F.F.F.F.F.F.F.F.F.F.F.F.F.F.F.F.F.F.F.F.F.F.F.F.F.F.*.: # $ $ > P / ` 2.6.q.6.1.o.{ F.F.F.F.F.F.F.",
"F.F.F.F.F.F.F.F.F.F.F.F.F.F.F.F.F.F.F.F.F.F.F.F.F.F.F.*.: # # $ > P / ` 2.6.q.6.1.o.{ F.F.F.F.F.F.F.",
"F.F.F.F.F.F.F.F.F.F.F.F.F.F.F.F.F.F.F.F.F.F.F.F.F.F.F.*.: # # $ > P / ` <.6.q.6.1.o.{ F.F.F.F.F.F.F.",
"F.F.F.F.F.F.F.F.F.F.F.F.F.F.F.F.F.F.F.F.F.F.F.F.F.F.F.&.: # # $ > P ~ ` <.6.q.6.1.X.{ F.F.F.F.F.F.F."
};
