/* XPM */
static char *_098_df793f52ff756e920f031d93de43316c2783c2bae0ce05c850ce431b85c06eca_0[] = {
/* columns rows colors chars-per-pixel */
"50 50 207 2 ",
"   c #083907",
".  c #153F04",
"X  c #793220",
"o  c #0B4309",
"O  c #0E4C0B",
"+  c #075300",
"@  c #08520C",
"#  c #10520D",
"$  c #145D0D",
"%  c #0D4112",
"&  c #115211",
"*  c #145B18",
"=  c #0C650E",
"-  c #186812",
";  c #17621C",
":  c #18641A",
">  c #1B7213",
",  c #1E7919",
"<  c #20781E",
"1  c #035F33",
"2  c #196527",
"3  c #126928",
"4  c #247E28",
"5  c #3C504D",
"6  c #046A46",
"7  c #06704A",
"8  c #047470",
"9  c #634647",
"0  c #56596E",
"q  c #8D1D01",
"w  c #971E01",
"e  c #A21F00",
"r  c #982207",
"t  c #932D1A",
"y  c #A72506",
"u  c #B72301",
"i  c #B43115",
"p  c #8C322C",
"a  c #B53921",
"s  c #C52600",
"d  c #C9300F",
"f  c #E73006",
"g  c #FB3703",
"h  c #8F4633",
"j  c #944133",
"k  c #A74935",
"l  c #D8431D",
"z  c #F54909",
"x  c #F55E1C",
"c  c #F96E16",
"v  c #D44C30",
"b  c #E95328",
"n  c #E16523",
"m  c #F76F21",
"M  c #F87C30",
"N  c #994B4F",
"B  c #925749",
"V  c #825255",
"C  c #B05249",
"Z  c #8C6758",
"A  c #BA6745",
"S  c #BF7D42",
"D  c #9B786E",
"F  c #817F7C",
"G  c #A66B6B",
"H  c #AE7173",
"J  c #D46D54",
"K  c #F07244",
"L  c #C6736A",
"P  c #148B06",
"I  c #1B9903",
"U  c #12971D",
"Y  c #208019",
"T  c #248A1C",
"R  c #27901E",
"E  c #1CA501",
"W  c #1DBC08",
"Q  c #23A500",
"!  c #28B401",
"~  c #35B902",
"^  c #21BA11",
"/  c #149C37",
"(  c #268B25",
")  c #2C9729",
"_  c #309C2D",
"`  c #339937",
"'  c #2FA025",
"]  c #32A428",
"[  c #36AB2D",
"{  c #37A13C",
"}  c #3DB937",
"|  c #3EBA38",
" . c #44BF3F",
".. c #39C537",
"X. c #3ECC35",
"o. c #42C201",
"O. c #44CC00",
"+. c #4DD210",
"@. c #42CD3C",
"#. c #45D23E",
"$. c #0C8953",
"%. c #389C4A",
"&. c #339755",
"*. c #16AE4A",
"=. c #31A544",
"-. c #39A256",
";. c #38A559",
":. c #0B8E6C",
">. c #0C997B",
",. c #15A371",
"<. c #45BC45",
"1. c #46D541",
"2. c #4FD04C",
"3. c #4FDB4B",
"4. c #50D24E",
"5. c #51DE4D",
"6. c #51D555",
"7. c #52E04F",
"8. c #5CE65D",
"9. c #5EE95F",
"0. c #5EE361",
"q. c #5EEA60",
"w. c #60E563",
"e. c #65ED68",
"r. c #66ED6A",
"t. c #6AF06E",
"y. c #69E975",
"u. c #FB8507",
"i. c #FFB809",
"p. c #FEA815",
"a. c #FEB115",
"s. c #D8B12E",
"d. c #FFCB16",
"f. c #85957A",
"g. c #86A579",
"h. c #C8B640",
"j. c #E78C75",
"k. c #037C8A",
"l. c #587090",
"z. c #6E6B84",
"x. c #91758F",
"c. c #0A8988",
"v. c #0B9B87",
"b. c #099A98",
"n. c #10B095",
"m. c #21BC93",
"M. c #0B99A2",
"N. c #3886A9",
"B. c #1EBAAB",
"V. c #6982AB",
"C. c #7590AA",
"Z. c #75F084",
"A. c #289ADC",
"S. c #3094D4",
"D. c #07A1CC",
"F. c #2CBAC9",
"G. c #159EEA",
"H. c #1288FE",
"J. c #00A7FF",
"K. c #0AA5F8",
"L. c #15A7F7",
"P. c #7DA9D1",
"I. c #57B2E8",
"U. c #5EC3FC",
"Y. c #72C2F2",
"T. c #B19C8C",
"R. c #A88F96",
"E. c #B59BA7",
"W. c #A39BB7",
"Q. c #91A3A6",
"!. c #94ADB3",
"~. c #AAABAD",
"^. c #B2A9AF",
"/. c #A3A1B7",
"(. c #CF9692",
"). c #F89D85",
"_. c #C59EA1",
"`. c #FFF89B",
"'. c #F6C8BE",
"]. c #FFF4A3",
"[. c #8799C3",
"{. c #88AADB",
"}. c #A9ADC6",
"|. c #B7B7CB",
" X c #A7ADD0",
".X c #ACB7D7",
"XX c #AFC4DC",
"oX c #B8C4DD",
"OX c #93CEF3",
"+X c #BAC8E3",
"@X c #A9D2F3",
"#X c #BADAF5",
"$X c #C6C6D6",
"%X c #F1D8D0",
"&X c #FEE2DB",
"*X c #C7CDE6",
"=X c #CBD4E9",
"-X c #D4DCEC",
";X c #C9E7FA",
":X c #DBE6F4",
">X c #DBF0FB",
",X c #F6F1EE",
"<X c #E5ECF5",
"1X c #EDF0F6",
"2X c #EDF4FB",
"3X c #F4F7FB",
"4X c #FDFEFE",
/* pixels */
"J.J.J.J.J.J.J.J.J.J.J.J.J.J.J.J.J.J.J.J.J.J.J.J.J.J.J.J.J.J.J.J.J.J.J.J.J.J.J.J.J.J.J.J.J.J.J.J.J.J.",
"J.J.J.J.J.J.J.J.J.J.J.J.J.J.J.J.J.J.J.J.J.J.J.J.J.J.J.J.J.J.J.J.J.J.J.J.J.J.J.J.J.J.J.J.J.J.J.J.J.J.",
"J.J.J.J.J.J.J.J.J.J.J.J.J.J.J.J.J.J.J.J.J.J.J.J.J.J.J.J.J.J.J.J.J.J.J.J.J.J.J.J.J.J.J.J.J.J.J.J.J.J.",
"J.J.J.J.J.J.J.J.J.J.J.J.J.J.J.J.J.J.J.J.J.J.J.J.J.J.OX>XOXJ.J.J.J.J.J.J.J.J.J.J.J.J.J.J.J.J.J.J.J.J.",
"J.J.J.J.J.J.J.J.J.J.J.J.J.J.J.J.J.J.J.J.J.J.J.J.J.J.4X4X:XV.J.J.J.J.J.J.J.J.J.J.J.J.J.J.J.J.J.J.J.J.",
"J.J.J.J.J.J.J.J.J.J.J.J.J.J.J.J.J.J.J.J.J.J.J.J.J.U.4X4X1XL '.;XOXJ.J.J.J.J.J.J.J.J.J.J.J.J.J.J.J.J.",
"J.J.J.J.J.J.J.J.J.J.J.J.J.J.J.J.J.J.J.J.J.J.J.J.J.J.3X4X4X_.K %X&Xv l.J.J.J.J.J.J.J.J.J.J.J.J.J.J.J.",
"J.J.J.J.J.J.J.J.J.J.G.F S D S.J.J.J.J.G.F S D S.K.J.;X4X4X$Xb g g g l I.J.J.J.J.J.J.J.J.J.J.J.J.J.J.",
"J.J.J.J.J.J.J.J.J.J.f.i.d.u.b G L.J.J.f.i.d.c b G L.J.2X3X:XL g g ).K H J.J.J.J.J.J.J.J.J.J.J.J.J.J.",
"J.J.J.J.J.J.J.J.J.J.s.`.].a.z m E.J.J.s.`.`.i.z m E.J.-X2X<XE.g b ,X%Xi j J.J.J.J.J.J.J.J.J.J.J.J.J.",
"J.J.J.J.J.J.J.J.J.J.s.].].p.x M (.J.J.h.`.`.a.c m (.J.I.#X:X$Xv f j.J u e 0 J.J.J.J.J.J.J.J.J.J.J.J.",
"J.J.J.J.J.J.J.J.J.H.y.i.a.u.x u.^.J.J.g.i.i.u.x M ^.J.J.J.:X*XH f f s y w X J.J.J.J.J.J.J.J.J.J.J.J.",
"J.J.J.J.J.J.J.J.J.J.G.C n c u.K P.J.J.G.A n u.m M {.J.J.J.#X=XW.d s u k B p J.J.J.J.J.J.J.J.J.J.J.J.",
"J.J.J.J.J.J.J.J.J.J.J.K.A.C.T.~.L.J.J.J.K.A.C.T.~.L.J.J.J.Y.=X XN u a ~.!.B J.J.J.J.J.J.J.J.J.J.J.J.",
"J.J.J.J.J.J.J.J.J.J.J.J.K.J.J.J.J.J.J.J.J.J.J.J.Y.J.+XY.#X:X*X.Xx.y B !.!.Z J.J.J.J.J.J.J.J.J.J.J.J.",
"J.J.J.J.J.J.J.J.J.J.J.J.J.J.J.J.J.J.J.J.J.J.J.J.-XXX$X|.$X-X}.*XC.r k Q.~.9 J.J.J.J.J.J.J.J.J.J.J.J.",
"J.J.J.J.J.J.J.J.J.J.J.J.J.J.J.J.J.J.J.J.J.J.@X-X=X}.=X/.|.1X<X.Xz.w r h h 9 J.J.J.J.J.J.J.J.J.J.J.J.",
"J.J.J.J.J.J.J.J.J.J.J.J.J.J.J.J.J.J.J.J.J.;X4X<X1X1X3X3X1X-X Xx.p q q q q 5 J.J.J.J.J.J.J.J.J.J.J.J.",
"J.J.J.J.J.J.J.J.J.J.J.J.J.J.J.J.J.J.J.J.J.:X2X2X1X<X-X*X Xx.N t r w q r X . 1 J.J.J.J.J.J.J.J.J.J.J.",
"J.J.J.J.J.J.J.J.J.J.J.J.J.J.J.J.J.J.J.J.J.@X=X*X+X.XW.x.N y G R.H r y j N.8 @ = J.J.J.J.J.J.J.J.J.J.",
"J.J.J.J.J.J.J.J.J.J.J.J.J.J.J.J.J.J.J.J.J.J.{.{.[.H a u u C .XoX.Xa y J.J.J.k.+ 8 J.J.J.J.J.J.J.J.J.",
"J.J.J.J.J.J.J.J.J.J.J.J.J.J.J.J.J.J.J.J.J.J.J.J.K.J.}.d s d T.(.A j J.J.J.J.J.+ 7 J.J.J.J.J.J.J.J.J.",
"J.J.J.J.J.J.J.J.J.J.J.J.J.J.J.J.J.J.J.J.J.J.J.J.J.J.J.J.0 V V z.J.J.J.J.J.J.J.+ 7 J.J.J.J.J.J.J.J.J.",
"J.J.J.J.J.J.J.J.J.J.J.J.J.J.J.J.J.J.J.J.J.J.J.J.J.J.J.J.J.J.J.J.J.J.J.J.J.J.8 + c.J.J.J.J.J.J.J.J.J.",
"J.J.J.J.J.J.J.J.J.J.J.J.J.J.J.J.J.J.J.J.J.J.J.J.J.J.J.J.J.J.J.J.J.J.J.J.J.c.@ 3 J.J.J.J.J.J.J.J.J.J.",
"J.J.J.J.J.J.J.J.J.J.J.J.J.J.J.J.J.J.J.J.J.J.J.J.J.n.n.m.J.J.J.J.J.J.J.J.6 = = M.J.J.J.J.J.J.J.J.J.J.",
"J.J.J.J.J.J.J.J.J.J.J.J.J.J.J.J.J.J.J.J.J.J.J.n.^ ! o.O.O.+...B.J.J.J.U I I +.+.+.+.O.~ I ,.J.J.J.J.",
"J.J.J.J.J.J.J.J.J.J.J.J.J.J.J.J.J.J.J.J.J.J.n.>.b.*.! ! ! o.o.~ ,.J.*.E H.! O.O.O.~ Q E I c.>.J.J.J.",
"J.J.J.J.J.J.J.J.J.J.J.J.J.J.J.J.J.J.J.J.J.J.J.J.J.J.>.>./ Q Q Q Y v.W H.P ! ! I I I :.M.J.J.J.J.J.J.",
"J.J.J.J.J.J.J.J.J.J.J.J.J.J.J.J.J.J.J.J.J.J.J.J.J.J.J.J.J.v.$.$.:.$.W P >.D.>.v.v.b.J.J.J.J.J.J.J.J.",
"J.J.J.J.J.J.J.J.J.J.J.J.J.J.J.J.J.J.J.J.J.J.J.J.J.J.J.J.J.J.J.D.D.n.^ =.F.L.J.J.J.J.J.J.J.J.J.J.J.J.",
"J.J.J.J.J.J.J.J.J.J.J.J.J.J.J.J.J.J.J.J.J.J.J.J.J.J.;.2 2 * ; < ( _ [  .6.y.Z.Z.y.0.3.1.J.J.J.J.J.J.",
"J.J.J.J.J.J.J.J.J.J.J.J.J.J.J.J.J.J.J.J.J.J.J.J.J.J.%.; & # # - , R ] | 4.0.t.t.q.7.#.#.m.J.J.J.J.J.",
"J.J.J.J.J.J.J.J.J.J.J.J.J.J.J.J.J.J.J.J.J.J.J.J.J.J.%.; & # $ - , R ] | 4.0.t.t.q.7.#.@.B.J.J.J.J.J.",
"J.J.J.J.J.J.J.J.J.J.J.J.J.J.J.J.J.J.J.J.J.J.J.J.J.J.%.; & # $ - , R ] | 2.0.r.t.q.7.#.@.B.J.J.J.J.J.",
"J.J.J.J.J.J.J.J.J.J.J.J.J.J.J.J.J.J.J.J.J.J.J.J.J.J.%.* # O $ - , R ] | 2.0.t.t.q.7.#.@.B.J.J.J.J.J.",
"J.J.J.J.J.J.J.J.J.J.J.J.J.J.J.J.J.J.J.J.J.J.J.J.J.J.c.2 % .   o # $ - < ( ` { { _ ) R ,.J.J.J.J.J.J.",
"J.J.J.J.J.J.J.J.J.J.J.J.J.J.J.J.J.J.J.J.J.J.J.J.J.J.J.&.        o # $ : 4 ` %.` ) ( R J.J.J.J.J.J.J.",
"J.J.J.J.J.J.J.J.J.J.J.J.J.J.J.J.J.J.J.J.J.J.J.J.J.J.J.-.* . o O # - , ' <.6.y.8.3.@.X.J.J.J.J.J.J.J.",
"J.J.J.J.J.J.J.J.J.J.J.J.J.J.J.J.J.J.J.J.J.J.J.J.J.J.J.;.2 % O # = Y R  .4.w.r.w.5.1.#.J.J.J.J.J.J.J.",
"J.J.J.J.J.J.J.J.J.J.J.J.J.J.J.J.J.J.J.J.J.J.J.J.J.J.J.;.; # # $ > T ' } 4.w.t.9.5.1.X.J.J.J.J.J.J.J.",
"J.J.J.J.J.J.J.J.J.J.J.J.J.J.J.J.J.J.J.J.J.J.J.J.J.J.J.;.; # # $ > T ' } 4.w.e.q.5.1.X.J.J.J.J.J.J.J.",
"J.J.J.J.J.J.J.J.J.J.J.J.J.J.J.J.J.J.J.J.J.J.J.J.J.J.J.;.; # # = > T '  .4.w.e.9.5.#.@.J.J.J.J.J.J.J.",
"J.J.J.J.J.J.J.J.J.J.J.J.J.J.J.J.J.J.J.J.J.J.J.J.J.J.J.;.; # # $ > T '  .4.w.e.9.5.#.X.J.J.J.J.J.J.J.",
"J.J.J.J.J.J.J.J.J.J.J.J.J.J.J.J.J.J.J.J.J.J.J.J.J.J.J.;.: & # $ > T ' } 4.0.e.9.5.@.X.J.J.J.J.J.J.J.",
"J.J.J.J.J.J.J.J.J.J.J.J.J.J.J.J.J.J.J.J.J.J.J.J.J.J.J.;.: & # $ > T ' } 4.0.e.8.5.@.X.J.J.J.J.J.J.J.",
"J.J.J.J.J.J.J.J.J.J.J.J.J.J.J.J.J.J.J.J.J.J.J.J.J.J.J.;.: # # $ > T ' } 4.0.e.8.5.@.X.J.J.J.J.J.J.J.",
"J.J.J.J.J.J.J.J.J.J.J.J.J.J.J.J.J.J.J.J.J.J.J.J.J.J.J.;.: # # $ > T ' } 4.0.e.8.3.#.X.J.J.J.J.J.J.J.",
"J.J.J.J.J.J.J.J.J.J.J.J.J.J.J.J.J.J.J.J.J.J.J.J.J.J.J.;.: # # $ > T ]  .2.8.w.8.3.@.X.J.J.J.J.J.J.J.",
"J.J.J.J.J.J.J.J.J.J.J.J.J.J.J.J.J.J.J.J.J.J.J.J.J.J.J.;.; # # $ > T R } 2.8.e.8.3.#.X.J.J.J.J.J.J.J."
};
