/* XPM */
static char *_9876_fe2f43fd8e2c1b38a07e0de046a8efbb5b6f060bbea32b572b8ab96ab2dee652_0[] = {
/* columns rows colors chars-per-pixel */
"50 50 220 2 ",
"   c #083907",
".  c #153F04",
"X  c #793220",
"o  c #0B4309",
"O  c #0E4C0B",
"+  c #075300",
"@  c #08520C",
"#  c #10520D",
"$  c #145D0D",
"%  c #0D4112",
"&  c #115211",
"*  c #145B18",
"=  c #0C650E",
"-  c #186812",
";  c #17621C",
":  c #18641A",
">  c #1B7213",
",  c #1E7919",
"<  c #20781E",
"1  c #035F33",
"2  c #156727",
"3  c #247E28",
"4  c #3C504D",
"5  c #056E49",
"6  c #047470",
"7  c #634647",
"8  c #56596E",
"9  c #8D1D01",
"0  c #971E01",
"q  c #A21F00",
"w  c #982207",
"e  c #932D1A",
"r  c #A72506",
"t  c #B72301",
"y  c #B43115",
"u  c #8C322C",
"i  c #B53921",
"p  c #C52600",
"a  c #C9300F",
"s  c #E73006",
"d  c #FB3703",
"f  c #8F4633",
"g  c #944133",
"h  c #A74935",
"j  c #D8431D",
"k  c #F54909",
"l  c #F85F11",
"z  c #F55E1C",
"x  c #F4600F",
"c  c #F97916",
"v  c #D44A2F",
"b  c #D85834",
"n  c #E95328",
"m  c #D37233",
"M  c #F76F21",
"N  c #EF732C",
"B  c #8F524E",
"V  c #B05249",
"C  c #8C6758",
"Z  c #BA6745",
"A  c #BC7E46",
"S  c #9B786E",
"D  c #847E7B",
"F  c #A66B6B",
"G  c #AE7173",
"H  c #D46D54",
"J  c #F07244",
"K  c #C6736A",
"L  c #138F0E",
"P  c #1B9903",
"I  c #209601",
"U  c #208019",
"Y  c #248A1C",
"T  c #27901E",
"R  c #1CA501",
"E  c #1DBC08",
"W  c #23A500",
"Q  c #28B401",
"!  c #35B902",
"~  c #21BA11",
"^  c #149C37",
"/  c #268B25",
"(  c #2C9729",
")  c #309C2D",
"_  c #339937",
"`  c #2FA025",
"'  c #32A428",
"]  c #36AB2D",
"[  c #3DB937",
"{  c #44BF3F",
"}  c #36C30D",
"|  c #39C537",
" . c #3ECC35",
".. c #42C201",
"X. c #44CC00",
"o. c #4DD210",
"O. c #42CD3C",
"+. c #45D23E",
"@. c #0C8953",
"#. c #389C4A",
"$. c #339755",
"%. c #16AE4A",
"&. c #31A544",
"*. c #39A256",
"=. c #38A559",
"-. c #0B8E6C",
";. c #0C997B",
":. c #15A371",
">. c #45BC45",
",. c #46D541",
"<. c #4FD04C",
"1. c #4FDB4B",
"2. c #50D24E",
"3. c #51DE4D",
"4. c #51D555",
"5. c #52E04F",
"6. c #5CE65D",
"7. c #5EE95F",
"8. c #5EE361",
"9. c #5EEA60",
"0. c #60E563",
"q. c #65ED68",
"w. c #66ED6A",
"e. c #6AF06E",
"r. c #69E975",
"t. c #FB8508",
"y. c #E7991C",
"u. c #FCA10E",
"i. c #FFB809",
"p. c #FEA815",
"a. c #FEB115",
"s. c #D8B12E",
"d. c #FEBF33",
"f. c #FFCB16",
"g. c #FFD135",
"h. c #AEA557",
"j. c #85957A",
"k. c #BE8378",
"l. c #86A579",
"z. c #C98775",
"x. c #E78C75",
"c. c #DFC34F",
"v. c #FFDD5E",
"b. c #587090",
"n. c #6E6B84",
"m. c #85748B",
"M. c #9B7892",
"N. c #0A8988",
"B. c #0B9B87",
"V. c #099A98",
"C. c #10B095",
"Z. c #21BC93",
"A. c #0B99A2",
"S. c #3886A9",
"D. c #15A9AE",
"F. c #1EBAAB",
"G. c #729B8E",
"H. c #7AA788",
"J. c #6E8CAA",
"K. c #75F084",
"L. c #299AD9",
"P. c #3094D4",
"I. c #07A1CC",
"U. c #2BADCF",
"Y. c #159EEA",
"T. c #1288FE",
"R. c #13A1EC",
"E. c #0DA5F4",
"W. c #00A7FF",
"Q. c #0AA5F9",
"!. c #15A7F6",
"~. c #13B0F5",
"^. c #2FA8E9",
"/. c #4D96C5",
"(. c #78A9D1",
"). c #57B2E8",
"_. c #5EC3FC",
"`. c #72C2F2",
"'. c #AB978F",
"]. c #8192AD",
"[. c #B59BA7",
"{. c #A69CB3",
"}. c #91A3A6",
"|. c #94ADB3",
" X c #AAABAD",
".X c #B2A9AF",
"XX c #A3A1B7",
"oX c #CA978F",
"OX c #F89D85",
"+X c #C59EA1",
"@X c #FCE886",
"#X c #FFF89B",
"$X c #F6C8BE",
"%X c #FFF4A3",
"&X c #87A2CF",
"*X c #A9ADC6",
"=X c #B7B7CB",
"-X c #A7ADD0",
";X c #ACB7D7",
":X c #AFC4DC",
">X c #B8C4DD",
",X c #93CEF3",
"<X c #BAC8E3",
"1X c #A9D2F3",
"2X c #BADAF5",
"3X c #C6C6D6",
"4X c #F1D8D0",
"5X c #FEE2DB",
"6X c #C7CDE6",
"7X c #CBD4E9",
"8X c #D4DCEC",
"9X c #C9E7FA",
"0X c #DBE6F4",
"qX c #DBF0FB",
"wX c #F6F1EE",
"eX c #E5ECF5",
"rX c #EDF0F6",
"tX c #EDF4FB",
"yX c #F4F7FB",
"uX c #FDFEFE",
/* pixels */
"W.W.W.W.W.W.W.W.W.W.W.W.W.W.W.W.W.W.W.W.W.W.W.W.W.W.W.W.W.W.W.W.W.W.W.W.W.W.W.W.W.W.W.W.W.W.W.W.W.W.",
"W.W.W.W.W.W.W.W.W.W.W.W.W.W.W.W.W.W.W.W.W.W.W.W.W.W.W.W.W.W.W.W.W.W.W.W.W.W.W.W.W.W.W.W.W.W.W.W.W.W.",
"W.W.W.W.W.W.W.W.W.W.W.W.W.W.W.W.W.W.W.W.W.W.W.W.W.W.W.W.W.W.W.W.W.W.W.W.W.W.W.W.W.W.W.W.W.W.W.W.W.W.",
"W.W.W.W.W.W.W.W.W.W.W.W.W.W.W.W.W.W.W.W.W.W.W.W.W.W.,XqX,XW.W.W.W.W.W.W.W.W.W.W.W.W.W.W.W.W.W.W.W.W.",
"W.W.W.W.W.W.W.W.W.W.W.W.W.W.W.W.W.W.W.W.W.W.W.W.W.W.uXuX0XJ.W.W.W.W.W.W.W.W.W.W.W.W.W.W.W.W.W.W.W.W.",
"W.W.W.W.W.W.W.W.W.W.W.W.W.W.W.W.W.W.W.W.W.W.W.W.W._.uXuXyXK $X9X`.W.W.W.W.W.W.W.W.W.W.W.W.W.W.W.W.W.",
"W.W.W.W.W.W.W.W.W.W.W.W.W.W.W.W.W.W.W.W.W.W.W.W.W.W.uXuXuX+XJ 4X5Xb b.W.W.W.W.W.W.W.W.W.W.W.W.W.W.W.",
"W.W.W.W.W.W.W.W.W.W.R.D A S P.W.W.W.W.R.D A S P.Q.W.9XuXuX3Xj d d d j ).W.W.W.W.W.W.W.W.W.W.W.W.W.W.",
"W.W.W.W.W.W.W.W.W.W.j.i.f.t.n F E.W.W.G.i.f.t.n F !.W.tXuX0XK d d OXJ G W.W.W.W.W.W.W.W.W.W.W.W.W.W.",
"W.W.W.W.W.W.W.W.W.W.s.#X%Xp.k z [.W.W.s.#X#Xa.k M [.W.8XtXeX[.d n wX4Xy g W.W.W.W.W.W.W.W.W.W.W.W.W.",
"W.W.W.W.W.W.W.W.W.W.s.%X%Xp.z M oXW.W.s.#X%Xa.l M oXW.).2XqX3Xv s x.H t q 8 W.W.W.W.W.W.W.W.W.W.W.W.",
"W.W.W.W.W.W.W.W.W.T.r.i.i.t.z y..XW.W.l.i.i.t.x N .XW.W.W.0X6XG s s p r q X W.W.W.W.W.W.W.W.W.W.W.W.",
"W.W.W.W.W.W.W.W.W.W.Y.Z n t.c J &XW.W.R.Z N c c N &XW.W.W.2X6X{.a p p h C e W.W.W.W.W.W.W.W.W.W.W.W.",
"W.W.W.W.W.W.W.W.W.W.W.Q.L.J.'. X!.W.W.W.Q.L.J.'..X!.W.W.W.`.7X-XB p y XX|.C W.W.W.W.W.W.W.W.W.W.W.W.",
"W.W.W.W.W.W.W.W.W.Q.!.W.W.W.W.W.W.W.W.W.W.W.W.W.`.W.>X`.2X0X6X>Xm.q h |.|.C W.W.W.W.W.W.W.W.W.W.W.W.",
"W.W.W.W.W.W.W.W.L.J.oX{.(.!.Q.W.W.W.W.W.W.W.W.W.0X:X6X=X3X8X-X>XJ.e f }.}.B W.W.W.W.W.W.W.W.W.W.W.W.",
"W.W.W.W.W.W.W.Y.n.b M J z.|.!.W.W.W.W.W.W.W.1X8X7X*X7X{.=XrXeX;Xn.0 9 f f 7 W.W.W.W.W.W.W.W.W.W.W.W.",
"W.W.W.W.W.W.W.J.m x x z M z.^.W.W.W.W.W.W.9XuXeXrXrXyXyXrX8X-Xm.u 9 9 9 9 4 W.W.W.W.W.W.W.W.W.W.W.W.",
"W.W.W.W.W.W.Y.A p.d.p.t.t.'.E.W.W.W.W.W.W.0XtXtXrXeX8X<X-XM.B w w 0 9 w X . 1 W.W.W.W.W.W.W.W.W.W.W.",
"W.W.W.W.W.W.P.h.g.%X@Xu.m /.W.W.W.W.W.W.W.1X7X9X<X;XXXM.B r F [.G r w g S.6 @ = W.W.W.W.W.W.W.W.W.W.",
"W.W.W.Q.W.W.R.G.c.#Xv.y.j.Y.Q.W.W.W.W.W.W.W.&X&X].G i t t V ;X>X=Xi y W.W.W.N.+ 6 W.W.W.W.W.W.W.W.W.",
"W.W.W.Q.W.W.Q.U.H.h.h.G.P.W.W.W.W.W.W.W.W.W.W.W.W.W.*Xa p a k.oXV g W.W.W.W.W.+ 5 W.W.W.W.W.W.W.W.W.",
"W.W.W.W.W.W.W.W.W.W.~.E.W.W.W.W.W.W.W.W.W.W.W.W.W.W.W.W.b.B B b.W.W.W.W.W.W.W.+ 5 W.W.W.W.W.W.W.W.W.",
"W.W.W.W.W.W.W.W.W.W.W.W.W.W.W.W.W.W.W.W.W.W.W.W.W.W.W.W.T.W.W.W.W.W.W.W.W.W.6 + N.W.W.W.W.W.W.W.W.W.",
"W.W.W.W.W.W.W.W.W.W.W.W.W.W.W.W.W.W.W.W.W.W.W.W.W.W.W.W.W.W.W.W.W.W.W.W.W.N.+ ; W.W.W.W.W.W.W.W.W.W.",
"W.W.W.W.W.W.W.W.W.W.W.W.W.W.W.W.W.W.W.W.W.W.W.W.W.C.Z.Z.W.W.W.W.W.W.W.W.5 = - A.W.W.W.W.W.W.W.W.W.W.",
"W.W.W.W.W.W.W.W.W.W.W.W.W.W.W.W.W.W.W.W.W.W.W.C.~ ! } X...o.| F.W.W.W.L P I } o.o.o.X.! P :.W.W.W.W.",
"W.W.W.W.W.W.W.W.W.W.W.W.W.W.W.W.W.W.W.W.W.W.V.:.V.%.Q Q Q ....! :.W.%.R T.Q o.X.X.! W R P N.;.W.W.W.",
"W.W.W.W.W.W.W.W.W.W.W.W.W.W.W.W.W.W.W.W.W.W.W.W.W.W.B.;.^ R W W L B.~ T.L Q Q P P P -.A.W.W.W.W.W.W.",
"W.W.W.W.W.W.W.W.W.W.W.W.W.W.W.W.W.W.W.W.W.W.W.W.W.W.W.W.W.B.@.@.-.@.E L -.I.;.B.B.V.W.W.W.W.W.W.W.W.",
"W.W.W.W.W.W.W.W.W.W.W.W.W.W.W.W.W.W.W.W.W.W.W.W.W.W.W.W.W.W.W.I.D.D.} &.U.~.W.W.W.W.W.W.W.W.W.W.W.W.",
"W.W.W.W.W.W.W.W.W.W.W.W.W.W.W.W.W.W.W.W.W.W.W.W.W.W.=.2 ; * ; , / ^ ] >.4.r.K.K.r.8.1.,.W.W.W.W.W.W.",
"W.W.W.W.W.W.W.W.W.W.W.W.W.W.W.W.W.W.W.W.W.W.W.W.W.W.#.; & # # - , T ' { <.0.r.e.0.5.+.+.Z.W.W.W.W.W.",
"W.W.W.W.W.W.W.W.W.W.W.W.W.W.W.W.W.W.W.W.W.W.W.W.W.W.#.; & # $ - , T ' [ <.0.e.e.9.5.+.O.F.W.W.W.W.W.",
"W.W.W.W.W.W.W.W.W.W.W.W.W.W.W.W.W.W.W.W.W.W.W.W.W.W.#.; # # $ - , T ' [ <.0.w.w.9.5.+.O.F.W.W.W.W.W.",
"W.W.W.W.W.W.W.W.W.W.W.W.W.W.W.W.W.W.W.W.W.W.W.W.W.W.#.; # # $ - , T ' [ <.0.w.r.7.5.+.O.F.W.W.W.W.W.",
"W.W.W.W.W.W.W.W.W.W.W.W.W.W.W.W.W.W.W.W.W.W.W.W.W.W.N.2 .     o # $ - < / _ { _ ) / T :.W.W.W.W.W.W.",
"W.W.W.W.W.W.W.W.W.W.W.W.W.W.W.W.W.W.W.W.W.W.W.W.W.W.W.$.        o # * > 3 _ &._ ) / T W.W.W.W.W.W.W.",
"W.W.W.W.W.W.W.W.W.W.W.W.W.W.W.W.W.W.W.W.W.W.W.W.W.W.W.*.;   % O # $ , ) >.4.0.6.3.O. .W.W.W.W.W.W.W.",
"W.W.W.W.W.W.W.W.W.W.W.W.W.W.W.W.W.W.W.W.W.W.W.W.W.W.W.=.; % & # $ U ` [ <.0.r.0.3.,.+.W.W.W.W.W.W.W.",
"W.W.W.W.W.W.W.W.W.W.W.W.W.W.W.W.W.W.W.W.W.W.W.W.W.W.W.=.: # # $ - Y ` [ 2.0.w.7.3.,. .W.W.W.W.W.W.W.",
"W.W.W.W.W.W.W.W.W.W.W.W.W.W.W.W.W.W.W.W.W.W.W.W.W.W.W.=.; # # $ > Y ' [ 2.0.e.7.3.+. .W.W.W.W.W.W.W.",
"W.W.W.W.W.W.W.W.W.W.W.W.W.W.W.W.W.W.W.W.W.W.W.W.W.W.W.=.: # # $ > Y ' [ 2.0.w.7.3.+.O.W.W.W.W.W.W.W.",
"W.W.W.W.W.W.W.W.W.W.W.W.W.W.W.W.W.W.W.W.W.W.W.W.W.W.W.=.; # # $ > Y ` { 2.0.w.7.3.+. .W.W.W.W.W.W.W.",
"W.W.W.W.W.W.W.W.W.W.W.W.W.W.W.W.W.W.W.W.W.W.W.W.W.W.W.=.: & # $ > Y ' [ <.0.q.7.3.+. .W.W.W.W.W.W.W.",
"W.W.W.W.W.W.W.W.W.W.W.W.W.W.W.W.W.W.W.W.W.W.W.W.W.W.W.=.; & # $ > Y ` [ <.0.q.6.3.O. .W.W.W.W.W.W.W.",
"W.W.W.W.W.W.W.W.W.W.W.W.W.W.W.W.W.W.W.W.W.W.W.W.W.W.W.=.: & # $ > Y ` [ <.0.q.6.1.+. .W.W.W.W.W.W.W.",
"W.W.W.W.W.W.W.W.W.W.W.W.W.W.W.W.W.W.W.W.W.W.W.W.W.W.W.=.: # # $ > Y ` [ <.6.q.6.1.+. .W.W.W.W.W.W.W.",
"W.W.W.W.W.W.W.W.W.W.W.W.W.W.W.W.W.W.W.W.W.W.W.W.W.W.W.=.; # # $ > Y ` [ <.7.q.6.1.+. .W.W.W.W.W.W.W.",
"W.W.W.W.W.W.W.W.W.W.W.W.W.W.W.W.W.W.W.W.W.W.W.W.W.W.W.=.; # # $ > Y ( [ <.6.0.6.1.+. .W.W.W.W.W.W.W."
};
