/* XPM */
static char *_4463_f62cbcade743f70537cf745cc2fe2a30e1c857fe10779d7a7986efd598531e59_0[] = {
/* columns rows colors chars-per-pixel */
"50 50 235 2 ",
"   c #083907",
".  c #153F04",
"X  c #793220",
"o  c #0D470A",
"O  c #075205",
"+  c #10520D",
"@  c #145D0D",
"#  c #0D4112",
"$  c #135714",
"%  c #0C650E",
"&  c #186812",
"*  c #17621C",
"=  c #18641A",
"-  c #1B7213",
";  c #1E7919",
":  c #156727",
">  c #187228",
",  c #5A4B0D",
"<  c #514739",
"1  c #3C504D",
"2  c #056E49",
"3  c #047470",
"4  c #685A58",
"5  c #8D1D01",
"6  c #971E01",
"7  c #972916",
"8  c #A72506",
"9  c #B72301",
"0  c #B43115",
"q  c #B53921",
"w  c #FE1A02",
"e  c #C52600",
"r  c #C9300F",
"t  c #EB2B0C",
"y  c #FF2901",
"u  c #FC3703",
"i  c #D73E3A",
"p  c #A95D14",
"a  c #8F4633",
"s  c #944133",
"d  c #D34D10",
"f  c #FB4705",
"g  c #EF5F0C",
"h  c #FA5803",
"j  c #F44C16",
"k  c #F55D19",
"l  c #FB6305",
"z  c #FE6B01",
"x  c #FE7302",
"c  c #FC7C03",
"v  c #F76418",
"b  c #F67415",
"n  c #D44A2F",
"m  c #D95836",
"M  c #E84F2A",
"N  c #D26C34",
"B  c #E26422",
"V  c #F6772C",
"C  c #8F524E",
"Z  c #B35348",
"A  c #8C6758",
"S  c #BA6745",
"D  c #BC7E46",
"F  c #847E7B",
"G  c #987171",
"H  c #A66A67",
"J  c #AC7174",
"K  c #CC5357",
"L  c #D56E58",
"P  c #F07244",
"I  c #C56C68",
"U  c #138F0E",
"Y  c #1B9903",
"T  c #248A1C",
"R  c #27901E",
"E  c #1CA501",
"W  c #1DB50A",
"Q  c #23A500",
"!  c #28B401",
"~  c #35B902",
"^  c #21BA11",
"/  c #149C37",
"(  c #268B25",
")  c #2C9729",
"_  c #309C2D",
"`  c #339937",
"'  c #2FA025",
"]  c #32A529",
"[  c #37A13C",
"{  c #3DB737",
"}  c #3DB937",
"|  c #3EBA38",
" . c #44BF3F",
".. c #36C30D",
"X. c #39C537",
"o. c #3ECC35",
"O. c #42C201",
"+. c #44CC00",
"@. c #4DD210",
"#. c #42CD3C",
"$. c #45D23E",
"%. c #0C8953",
"&. c #389C4A",
"*. c #339755",
"=. c #16AE4A",
"-. c #31A544",
";. c #39A256",
":. c #38A559",
">. c #0B8E6C",
",. c #0C997B",
"<. c #15A371",
"1. c #45BC45",
"2. c #4BD846",
"3. c #4FD04C",
"4. c #50D24E",
"5. c #51DE4D",
"6. c #51D555",
"7. c #52E04F",
"8. c #5CE75D",
"9. c #5EE361",
"0. c #5EEA60",
"q. c #60E563",
"w. c #65ED68",
"e. c #66ED6A",
"r. c #6AF06E",
"t. c #69E975",
"y. c #FD8606",
"u. c #FF9702",
"i. c #E7991C",
"p. c #D3A11A",
"a. c #FEA407",
"s. c #FFB808",
"d. c #FEA815",
"f. c #FEB313",
"g. c #D8B12E",
"h. c #FFB82D",
"j. c #FFC804",
"k. c #FFC916",
"l. c #F7CA2D",
"z. c #FFE72A",
"x. c #B98C47",
"c. c #85957A",
"v. c #86A579",
"b. c #B1A165",
"n. c #C98775",
"m. c #E78C75",
"M. c #DFC34F",
"N. c #FFD44F",
"B. c #FEE951",
"V. c #FFF472",
"C. c #037C8A",
"Z. c #587090",
"A. c #726F8A",
"S. c #7178A2",
"D. c #87738B",
"F. c #907593",
"G. c #0A8988",
"H. c #0B9B87",
"J. c #099A98",
"K. c #10B095",
"L. c #0B99A2",
"P. c #15A9AE",
"I. c #1EBAAB",
"U. c #729B8E",
"Y. c #6585A8",
"T. c #6F90AE",
"R. c #75F084",
"E. c #3C92CA",
"W. c #2A99D8",
"Q. c #3295D6",
"!. c #07A1CC",
"~. c #2BADCF",
"^. c #179EEA",
"/. c #1288FE",
"(. c #2A9DE3",
"). c #15A1ED",
"_. c #0CA5F5",
"`. c #00A7FF",
"'. c #09A5F9",
"]. c #03A8FE",
"[. c #12A4F4",
"{. c #1AA7F5",
"}. c #13B0F5",
"|. c #2AA3EA",
" X c #34A8E4",
".X c #4D96C5",
"XX c #78A9D1",
"oX c #57B2E8",
"OX c #5EC3FC",
"+X c #72C2F2",
"@X c #8D8398",
"#X c #AB978F",
"$X c #ADA78D",
"%X c #8192AD",
"&X c #B59BA7",
"*X c #A69CB3",
"=X c #91A3A6",
"-X c #94ADB3",
";X c #AAABAD",
":X c #ADA6B2",
">X c #CA978F",
",X c #DF9E93",
"<X c #FDEA85",
"1X c #FFED9A",
"2X c #FFF89B",
"3X c #DAD6AD",
"4X c #F6C8BE",
"5X c #FFF4A3",
"6X c #FFF7A8",
"7X c #FFFBBA",
"8X c #87A2CF",
"9X c #A9ADC6",
"0X c #B7B7CB",
"qX c #ABB5D5",
"wX c #AFC4DC",
"eX c #B8C4DD",
"rX c #93CEF3",
"tX c #B3CCE9",
"yX c #BADAF5",
"uX c #C6C6D6",
"iX c #EBDAD0",
"pX c #FDFACA",
"aX c #FEEFD6",
"sX c #C7CDE6",
"dX c #CBD4E9",
"fX c #D4DCEC",
"gX c #CEE9FA",
"hX c #DBE6F4",
"jX c #EDECE1",
"kX c #F9F8E9",
"lX c #E5ECF5",
"zX c #EDF0F6",
"xX c #EDF4FB",
"cX c #F4F7FB",
"vX c #FDFEFE",
/* pixels */
"`.`.`.`.`.`.`.`.`.`.`.`.`.`.`.`.`.`.`.`.`.`.`.`.`.`.].].].].`.`.`.`.`.`.`.`.`.`.`.`.`.`.`.`.`.`.`.`.",
"`.`.`.`.`.`.`.`.`.`.`.`.`.`.`.`.`.`.`.`.`.`.`.`.`.`.].].].].`.`.`.`.`.`.`.`.`.`.`.`.`.`.`.`.`.`.`.`.",
"`.`.`.`.`.`.`.`.`.`.`.`.`.`.`.`.`.`.`.`.`.`.`.`.`.`.`.].`.`.`.`.`.`.`.`.`.`.`.`.`.`.`.`.`.`.`.`.`.`.",
"`.`.`.`.`.`.`.`.`.`.`.`.`.`.`.`.`.`.`.`.`.`.`.`.`.`.rXgXrX`.`.`.`.`.`.`.`.`.`.`.`.`.`.`.`.`.`.`.`.`.",
"`.`.`.`.`.`.`.`.`.`.`.`.`.`.`.`.`.`.`.`.`.`.`.`.].].vXvXhXT.`.`.`.`.`.`.`.`.`.`.`.`.`.`.`.`.`.`.`.`.",
"`.`.`.`.`.`.`.`.`.`.`.`.`.`.`.`.`.`.`.`.`.`.`.`.`.OXvXvXzXI 4XgX+X`.`.`.`.`.`.`.`.`.`.`.`.`.`.`.`.`.",
"`.`.`.`.`.`.`.`.`.`.'.{.`.`.`.`.`.`.`.`.`.`.`.`.`.`.cXvXvX>XP iXaXn Z.`.`.`.`.`.`.`.`.`.`.`.`.`.`.`.",
"`.`.`.`.`.`.`.`.`.'.^.:.N G Q.'.`.`.`.^.F D G Q.'.`.gXvXvXuXM u u u n oX`.`.`.`.`.`.`.`.`.`.`.`.`.`.",
"`.`.`.`.`.`.`.`.`.`.c.s.k.y.M J [.].{.:.s.k.y.M H '.`.xXcXhXI u u ,XP J ].].`.`.`.`.`.`.`.`.`.`.`.`.",
"`.`.`.`.`.`.`.`.`.`.g.2X5Xf.f B &X'.'.g.2X5Xf.f v &X`.fXxXlX&Xu k jXiXr s ].`.`.`.`.`.`.`.`.`.`.`.`.",
"`.`.`.`.`.`.`.`.`.`.g.6X1Xd.k V ,X`.`.g.5X5Xd.v V ,X`.oXyXlXuXn u m.L 9 8 4 `.`.`.`.`.`.`.`.`.`.`.`.",
"`.`.`.`.`.`.`.`.`./.t.s.f.y.k i.:X`.`.v.s.f.u.k V :X`.`.`.gXdXJ t r e 9 6 X `.`.`.`.`.`.`.`.`.`.`.`.",
"`.`.`.`.`.`.`.`.`.`.^.S B b b P XX`.`.^.S B y.b P XX].].`.yXsX*Xr e e s A 7 `.`.`.`.`.`.`.`.`.`.`.`.",
"`.`.`.`.`.`.`.`.`.`.`._.W.T.#X;X{.`.`.`.'.W.T.#X;X{.`.].`.+XsXqXC 9 q ;X-XA `.`.`.`.`.`.`.`.`.`.`.`.",
"`.`.`.`.`.`.`.`.`.'.[.`.`.`.`.`.`.`.`.`.`.`.].].+X].eX+XyXhXsXeXD.8 C -X-XA `.`.`.`.`.`.`.`.`.`.`.`.",
"`.`.`.`.`.`.`.`.W.T.>X*XXX|.`.`.`.`.`.`.`.].].].fXwXsX0XuXfX9XeX@X5 s =X=XC `.`.`.`.`.`.`.`.`.`.`.`.",
"`.`.`.`.`.`.`.).D.m v P n.%X{.`.`.`.`.`.].].rXfXdX9XdX*X0XxXlXqXA.5 5 a a 4 `.`.`.`.`.`.`.`.`.`.`.`.",
"`.`.`.`.`.`.`.Y.N g v v b >X X`.`.`.`.`.].gXvXzXzXzXcXcXxXfX9XD.s 5 5 5 5 1 `.`.`.`.`.`.`.`.`.`.`.`.",
"`.`.`.`.`.`.).x.a.l.d.y.y.#X_.`.`.`.`.`.].hXxXxXzXlXfXsXqXF.C 7 6 6 6 5 X   : `.`.`.`.`.`.`.`.`.`.`.",
"`.`.`.`.`.`.W.x.l.5X<Xd.N .X`.`.`.`.`.`.].tXdXdXeXqX*XF.Z 8 H #XJ 8 6 s Z.3 O : `.`.`.`.`.`.`.`.`.`.",
"`.`.`.`.`.`.).U.M.2XB.i.F ^.`.`.`.`.`.`.`.`.8X8X%XJ 0 9 9 Z eXeXeXq 8 ].`.`.C.O 3 `.`.`.`.`.`.`.`.`.",
"`.`.`.`.].].`.W.U.b.b.U.Q.`.`.`.`.`.`.`.`.`.`.`.'.`.9Xr 9 r I &XZ s ].].`.`.`.O 2 `.`.`.`.`.`.`.`.`.",
"`.`.`.`.].].].].].].}._.'.`.`.`.`.`.`.`.`.`.`.`.`.`.`.`.Z.C C Z.`.`.`.`.`.`.].O 2 `.`.`.`.`.`.`.`.`.",
"`.`.`.`.].].].].].].).).`.`.`.`.`.`.`.`.`.`.`.`.`.`.`.`.`.`.`.`.`.`.`.`.`.`.3 O G.`.`.`.`.`.`.`.`.`.",
"`.`.`.`.`.`.`.`.`.'.i i Q.`.`.`.`.`.`.`.`.`.`.`.`.`.'.].].].].].].].].].].G.@ % `.`.`.`.`.`.`.`.`.`.",
"`.`.`.`.`.`.`.`.'.K w w F.(.'.`.`.`.`.`.`.`.`.].`.K.K.K.].].].].].].].].2 % % L.`.`.`.`.`.`.`.`.`.`.",
"`.`.`.`.`.`.`.].F.w w f i m {.`.].`.`.`.`.`.`.K.^ ! O.+.+.@.X.I.].].].U Y Y @.@.@.@.+.~ E <.`.`.`.`.",
"`.`.`.`.`.`.`.).t w y c f f (.`.`.`.`.`.`.`.J.,.J.=.! ! ! ..O.~ <.].=.E /.! O.+.+.~ Q Y Y H.G.`.`.`.",
"`.`.`.`.`.`.].@Xy w u h.x f F.].`.`.`.`.`.`.`.`.`.`.H.,./ Q Q Q U ,.W /.U ! ! Y Y Y >.L.`.`.`.`.`.`.",
"`.`.`.`.`.`.Y.h y w z l.x h f K ).].`.`.`.`.`.`.`.`.`.`.`.H.%.%.>.>.W U >.!.,.H.H.J.].].`.`.`.`.`.`.",
"`.`.].`.].].J z z f z l.y.l h h M S._.].`.`.`.`.`.`.`.`.].].`.!.P.P...-.~.}.`.`.`.`.`.`.`.`.`.`.`.`.",
"`.`.].].].].G x c u.d.N.N.a.u.a.z j |.].`.`.`.`.`.`.;.> : $ * ; ( ) [  .6.t.R.R.t.9.2.2.`.`.`.`.`.`.",
"`.`.`.`.`.`.G z z y.s.<X7X1Xz.l.N h H _.'.`.`.`.`.`.&.= + + + & ; R ] | 4.q.r.r.q.7.$.$.I.].].].`.`.",
"`.`.`.`.`.'.Z h y.u.k.1XkXjX2Xl.&.d f E.`.`.`.`.`.`.&.* + + @ & ; R ] | 3.q.r.r.0.7.$.#.I._.].].`.`.",
"`.`.`.`.`.'.N f u.s.N.pX3X#XpXB., p f .X`.`.`.`.].].&.* + + @ & ; R ] { 3.9.r.r.0.7.$.#.I.`.].].`.`.",
"`.`.`.`.].].Y.h z f.V.7X3X< 3XV.p.p j W.`.`.`.`.].].&.$ + + @ & ; R ] | 3.9.r.r.0.7.$.#.I.`.`.].`.`.",
"`.`.`.`.`.`.Q.h x a.V.7XjX< $XV.j.a.H `.`.`.`.`.].].G.: .     o + @ & ; ( ` [ [ _ ( ( <.].].].].`.`.",
"`.`.`.`.`.`.W.c s.f.N.pXkXiXpXz.u.g E.`.`.`.`.`.`.].`.*.        o + $ & > ` [ ` _ ) ( `.].].].].`.`.",
"`.`.`.`.`.`.`.x.f.a.u.N.V.B.z.s.i.F.`.`.`.`.`.`.`.`.`.;.*   # o + & ; _ 1.6.q.9.2.#.X.].`.`.].].`.`.",
"`.`.`.`.`.`.`.^.L j g u.j.j.a.B Q.].`.`.`.`.`.`.`.`.`.:.: # + + @ ; ' { 6.w.r.q.5.$.o.`.`.`.`.].`.`.",
"`.`.`.`.`.`.`.`.).S h x c g G ^.`.`.`.`.`.`.`.`.`.`.`.:.* + + @ & T ' } 4.q.e.0.5.2.o.`.`.`.`.`.`.`.",
"`.`.`.`.`.`.`.`.`.'.E.S.A.^.`.`.`.`.`.`.`.`.`.`.`.`.`.:.* + + @ - T ] } 4.q.r.q.5.$.o.`.`.`.`.`.`.`.",
"`.`.`.`.`.`.`.`.`.`.`.`.`.`.`.`.`.`.`.`.`.`.`.`.`.`.`.:.= + + @ - T ] } 4.q.e.0.5.$.o.`.`.`.`.`.`.`.",
"`.`.`.`.`.`.`.`.`.`.`.`.`.`.`.`.`.`.`.`.`.`.`.`.`.`.`.:.* + + @ - T ] | 4.q.e.8.5.$.o.`.`.`.`.`.`.`.",
"`.`.`.`.`.`.`.`.`.`.`.`.`.`.`.`.`.`.`.`.`.`.`.`.`.`.`.:.* + $ @ - T ' } 3.q.w.8.5.$.o.`.`.`.`.`.`.`.",
"`.`.`.`.`.`.`.`.`.`.`.`.`.`.`.`.`.`.`.`.`.`.`.`.`.`.`.:.* + + @ - T ' } 3.q.w.8.5.$.o.`.`.`.`.`.`.`.",
"`.`.`.`.`.`.`.`.`.`.`.`.`.`.`.`.`.`.`.`.`.`.`.`.`.`.`.:.= + + @ - T ' } 3.q.w.8.2.$.o.`.`.`.`.`.`.`.",
"`.`.`.`.`.`.`.`.`.`.`.`.`.`.`.`.`.`.`.`.`.`.`.`.`.`.`.:.= + + @ - T ' } 3.8.w.8.5.#.o.`.`.`.`.`.`.`.",
"`.`.`.`.`.`.`.`.`.`.`.`.`.`.`.`.`.`.`.`.`.`.`.`.`.`.`.;.* + + @ - T ' } 3.8.q.8.5.#.o.`.`.`.`.`.`.`.",
"`.`.`.`.`.`.`.`.`.`.`.`.`.`.`.`.`.`.`.`.`.`.`.`.`.`.`.;.* + + $ - T ' } 3.8.w.8.2.#.o.`.`.`.`.`.`.`."
};
