/* XPM */
static char *_6453_d425e05b17611448ef0cd0a8f7250e68e8dea3ada3f812894d91f610cf5c3dab_1[] = {
/* columns rows colors chars-per-pixel */
"50 50 245 2 ",
"   c #0D0B0F",
".  c #160606",
"X  c #230D0B",
"o  c #2B1616",
"O  c #2E222A",
"+  c #3B292F",
"@  c #461C0D",
"#  c #5B1902",
"$  c #681700",
"%  c #6A1D01",
"&  c #731708",
"*  c #4A240F",
"=  c #4C2511",
"-  c #4D2913",
";  c #542B12",
":  c #5A2D15",
">  c #5B3216",
",  c #6D2104",
"<  c #762604",
"1  c #772D12",
"2  c #643516",
"3  c #6C3B19",
"4  c #753E1A",
"5  c #521D38",
"6  c #741B24",
"7  c #4F352A",
"8  c #7A2D2D",
"9  c #653D26",
"0  c #79441C",
"q  c #54473B",
"w  c #694734",
"e  c #724831",
"r  c #091E54",
"t  c #12364F",
"y  c #302E52",
"u  c #0B2669",
"i  c #0A2972",
"p  c #0A2D7D",
"a  c #1C3373",
"s  c #2A356C",
"d  c #542348",
"f  c #75384B",
"g  c #532F6D",
"h  c #71326E",
"j  c #3B5560",
"k  c #2C4B77",
"l  c #514F4C",
"z  c #595568",
"x  c #744A69",
"c  c #4F6472",
"v  c #547279",
"b  c #6E7070",
"n  c #821B00",
"m  c #851919",
"M  c #8B1A1A",
"N  c #931914",
"B  c #941A1A",
"V  c #9B1A1A",
"C  c #B5160D",
"Z  c #A81B17",
"A  c #A31A1A",
"S  c #AB1A1A",
"D  c #B31A1A",
"F  c #BC1B1A",
"G  c #892608",
"H  c #90321A",
"J  c #B6201D",
"K  c #901C2A",
"L  c #AE1D24",
"P  c #8C2B2F",
"I  c #B1272D",
"U  c #C61914",
"Y  c #C21B1A",
"T  c #CD1B1A",
"R  c #D31C1B",
"E  c #DB1C1C",
"W  c #E31C1C",
"Q  c #EC1D1C",
"!  c #F41D1C",
"~  c #FC1E1D",
"^  c #F4211F",
"/  c #FE201F",
"(  c #DB1F21",
")  c #FA1F21",
"_  c #D62B2C",
"`  c #EB2829",
"'  c #F42323",
"]  c #FF2220",
"[  c #854A1E",
"{  c #8A4825",
"}  c #8F512C",
"|  c #AF5032",
" . c #B76529",
".. c #AD6732",
"X. c #C44C3B",
"o. c #C86D2C",
"O. c #8B3748",
"+. c #993444",
"@. c #A93759",
"#. c #D23644",
"$. c #95524D",
"%. c #A55449",
"&. c #93615C",
"*. c #AE7252",
"=. c #C9534B",
"-. c #CD624B",
";. c #D66C52",
":. c #CA7152",
">. c #DB785B",
",. c #E27B5C",
"<. c #DA7E62",
"1. c #F27979",
"2. c #CEC932",
"3. c #9B9B69",
"4. c #98A263",
"5. c #DA8968",
"6. c #C9936E",
"7. c #D79877",
"8. c #EC9270",
"9. c #E99673",
"0. c #D5A57A",
"q. c #EAA47B",
"w. c #F3A57D",
"e. c #B1C76B",
"r. c #D9E46E",
"t. c #FDFC73",
"y. c #0B3084",
"u. c #0B338C",
"i. c #103186",
"p. c #0C3595",
"a. c #0D3B90",
"s. c #0C379A",
"d. c #0C399D",
"f. c #323E9F",
"g. c #0D3BA3",
"h. c #0D3DA9",
"j. c #143FA8",
"k. c #0E3EB3",
"l. c #2B4288",
"z. c #375887",
"x. c #1C629F",
"c. c #0F42B5",
"v. c #0B4AB1",
"b. c #0F4DB2",
"n. c #0F42BC",
"m. c #1145BB",
"M. c #3C7CB8",
"N. c #57788F",
"B. c #697388",
"V. c #4A74A9",
"C. c #0F4EC6",
"Z. c #1047C4",
"A. c #1148C5",
"S. c #114BCB",
"D. c #124DD3",
"F. c #134FD9",
"G. c #1350D7",
"H. c #1A51D1",
"J. c #1452DC",
"K. c #2253C8",
"L. c #076ECF",
"P. c #2B67D1",
"I. c #1556E2",
"U. c #1658E7",
"Y. c #0D6FE3",
"T. c #8C5B82",
"R. c #3089B6",
"E. c #708896",
"W. c #548CB6",
"Q. c #7596AD",
"!. c #0E89D2",
"~. c #1694DC",
"^. c #2791D0",
"/. c #038CE8",
"(. c #0A99EA",
"). c #139AE8",
"_. c #089CF3",
"`. c #279AE4",
"'. c #13A4EE",
"]. c #00A7FF",
"[. c #09A6F9",
"{. c #18A9F5",
"}. c #2CA4E4",
"|. c #23ACF4",
" X c #2FB2F7",
".X c #4183C4",
"XX c #54A6D6",
"oX c #76B0D1",
"OX c #49B6EB",
"+X c #68BBE2",
"@X c #56C3FC",
"#X c #6DC7F7",
"$X c #8B9391",
"%X c #AB9185",
"&X c #8399AD",
"*X c #BB9BA2",
"=X c #89A6BC",
"-X c #9CA9B3",
";X c #95A8BA",
":X c #AAACAE",
">X c #D18D8C",
",X c #F3989A",
"<X c #C2AC8E",
"1X c #F5AA85",
"2X c #EAB08A",
"3X c #EAB789",
"4X c #F7B588",
"5X c #C2B4B4",
"6X c #E1C398",
"7X c #F8C698",
"8X c #E8D39E",
"9X c #FCD29B",
"0X c #EBD0A6",
"qX c #FDD9A8",
"wX c #FCE3AD",
"eX c #F9E6B3",
"rX c #FCEBB6",
"tX c #FBF0BB",
"yX c #8DABC2",
"uX c #93B3CB",
"iX c #99B6CA",
"pX c #A0ABC1",
"aX c #A7BACA",
"sX c #A8C5D7",
"dX c #B3C6D3",
"fX c #8FCFF3",
"gX c #A1CEE8",
"hX c #BBD6E6",
"jX c #B2E4FD",
"kX c #C9D0D9",
"lX c #EDCFD3",
"zX c #CBE6CE",
"xX c #EAE2CF",
"cX c #FEF9C5",
"vX c #C7DAE6",
"bX c #D1DBE6",
"nX c #DEE6EE",
"mX c #D6E9F3",
"MX c #D1EAF7",
"NX c #E1E3EB",
"BX c #E4EEF6",
"VX c #E8F4F9",
"CX c #F1F3F8",
"ZX c #F4FBFE",
"AX c #FCFEFF",
/* pixels */
"].].].].].].].].].].].].].].].].].[.^.B.#._ ` #.T.`.[.].].].].].].].].].].].].].].].].].].].].].].].",
"].].].].].].].].].].].].].].].].[.N._ ) ~ ) ) ] ' #. X[.].].].].].].].].].].].].].].].].].].].].].].",
"].].].].].].].].].].].].].].].).@.Q ) ) ~ / ) / ] ] NX`.].].].].].].].].].].].].].].].].].].].].].].",
"].].].].].].].].].].].].].].(.I E Q ! ) ) / / / ] ] 1.>X[.].].].].].].].].].].].].].].].].].].].].].",
"].].].].].].].].].].].].].].O.R W ! ! ~ ~ ~ ) / ] ] ` ,X X].].].[.[.].].].].].].].].].].].].].].].].",
"].].].].].].].].].].].].].x T E Q ! ) ~ ) ) ) ) ] ] ] 1.+X[.].).^.V..X].].].].].].].].].].].].].].].",
"].].].].].].].].].].].].^.F T W Q ! ~ ~ ~ ~ ~ ) ] ' Q _ =.#.) ~ Q L P (.].].].].].].].].].].].].].].",
"].].].].].].].].].].]._.O.U T W Q ) ~ ~ ~ ) ~ ) / ' ! ) ) ~ ! Y M m z ].].].].].].].].].].].].].].].",
"].].].].].].].].].].].V.D Y R W Q ! ~ / / / / / ' ! ~ ~ ~ ( B m m f (.].].].].].].].].].].].].].].].",
"].].].].].].].].].].'.O.D Y R W Q ~ ~ ~ / / / ! Q ~ Y $ V M m M P !.[.].].].].].].].].].].].].].].].",
"].].].].].].].].].].V.A D F T E Q ! / ~ ~ ! Q W Q _ : %.e 8 m f ~.].].[.].].].].].].].].].].].].].].",
"].].].].].].].].].[.x A S F T E W Q ! Q W E Y _ _ <.<.>X7.%.z ).].].].[.].].].].].].].].].].].].].].",
"].].].].].].].].]._.L V A J Y T R E R R Y F X.<.8.w.4X5XQ.<X[.].].[.OX#X|.[.].].].].].].].].].].].].",
"].].].].].].].].).f A L A S D F Y Y D Z G G >.1X9XrXtXkXz.%X{.].XX4XqXtXcX@X].].].].].].].].].].].].",
"].].].].].].].~.P A A V V V A A A P N < < G H :.7XrXeXxXV.b oXQ.1X4XqXcXcXzX].].].].].].].].].].].].",
"].].].].].].].f A V V V B M M %.6X8X0.H , < < < *.eXwX0X-X$X3X9.8.1X7XqXeXeX|.].].].].].].].].].].].",
"].].].].].].).S S A V V V N K 0XwXq.w.0.$ , , # 0.wXrX0.. 7 $.*.:.5.1X1X4X0X|.].].].].].].].].].].].",
"].].].].].].).F S A V B B B %.qXwX7X9.q.6.< , < 3XeXrX8XO . . . e *.6.7.1X:X[.].].].].].].].].].].].",
"].].].].].].].+.D A A V B m { 9XrX8Xq.7.7X0.*.q.9XwXwXwX0.7 . . X > $.6.=X[.].].].].].].].].].].].].",
"].].].].].].].M.L D S V M $ , 2XwXtX8Xq.9X7X7X7X9X9X9X9X7X6.9 . . X + ~.].].].].].].].].].].].].].].",
"].].].].].].].].M.+.S V % % % { w.wXeXrX7Xq.w.w.w.4X4X4Xq.q.6.*.e   t ].].].].].].].].].].].].].].].",
"].].].].].].].].].~.x P , % $ $ [ 7.1X1X>.,.8.8.w.q.9.9.9.9.6Xq.:X!._.].].].].].].].].].].].].].].].",
"].].].].].].].].[.[.[.~.l , $ # # % , , | -.;.,.,.,.,.>.5.8.q.0.XX].].].].].].].].].].].].].].].].].",
"].].].].].].].].].#X@X#XfX5X*X{ $ $ & n G | X.=.o.-.-.:.>.5.q.:X].].].].{.fXVXBXjX@X].].].].].].].].",
"].].].].].].[.#XMXVXZXAXZXVXBXCX>XR U C N P 8 8 P $.| =.-.-.6.).{. XgXgXvXBXZXZXAXAXjX[.].].].].].].",
"].].].].].{.gXmXVXZXZXAXAXAXAXCXCX1./ / / ' ( K y a s f K P P O.I *XBXkXnXCXVXmXVXAXZX#X].].].].].].",
"].].].].].XXiXhXhXmXVXZXAXAXAXAXNXlX' ^ ^ / ' ! W g F.H.h I d K W *XkXdXBXZXvX=XhXZXZXZX{.].].].].].",
"].].].].].oXiXiXsXhXhXMXZXZXAXAXNXlX_ E E ( W Q ' Q g I.P.V.P.K.%.<X:XdXmXZXsX;XhXBXVXZX@X].].].].].",
"].].].].].oX=XyXiXsXiXhXMXvXmXVXbX:XJ Y F F F E Q Q W b.e.9Xr.W.K.4.$X;XhXVXkXsXsXdXvXVX@X].].].].].",
"].].].].].oX=X=XyXiXyXsXhXyXaXmXkX%XV V V N S E W W @.m.3.t.t.e.I.z.b Q.yXvXBX-XQ.&XdXvXOX].].].].].",
"].].].].]. XoX=X=X=X=XiXsXpX;XvXuXf 6 m 6 N U T I h G.G.j.4.2.4.G.C.v E.Q.Q.sXdXb E.&XdX[.].].].].].",
"].].].].].].[.XXoXyX=X=XuXaXkXhX'.Y.a 5 6 K K h f.D.S.S.v.b.k b.G.G.V.E.W.W.E.$X*.&.3.Q.].].].].].].",
"].].].].].].].].[.{.XX&X&XaXdXOX].(.g.p.i.a.j.c.m.S.H.G.D.S.Z.Z.D.S.Y.[.].[.N...o.o. .} ~.].].].].].",
"].].].].].].].].].].|.uXpX;XXX[.]./.d.d.p.s.c.m.A.A.S.S.D.D.D.D.S.D.Y.].].(.}  .o.o. .[ c ].].].].].",
"].].].].].].].].].].].].[.R.x.k x.L.g.d.p.s.j.c.n.C.Z.Z.S.D.F.I.U.U.I.U.L.k }  ... .{ 1 *.'.].].].].",
"].].].].].].].].].].].].[.4 @ o o y.g.d.p.s.d.c.c.c.c.m.D.F.J.I.I.U.U.I.n.j [ } } [ [ 4 $X].].].].].",
"].].].].].].].].].].].].^.: @ = O i h.g.s.s.s.h.c.v.k.D.F.F.F.F.J.I.I.J.C.s { [ 0 0 0 ..}.].].].].].",
"].].].].].].].].].].].].N.@ = = u r g.g.p.p.p.s.g.h.k.k.Z.S.D.D.D.G.J.J.S.l.0 0 0 2 > E.[.].].].].].",
"].].].].].].].].].].].[.l @ = + i r p.g.g.p.p.p.s.g.g.k.k.k.Z.Z.S.S.S.S.A.l.0 4 2 ; } {.].].].].].].",
"].].].].].].].].].].].'.9 = ; y i u i d.g.g.s.s.p.s.s.g.g.h.k.k.n.n.Z.Z.m.l.3 3 > > v ].].].].].].].",
"].].].].].].].].].].].'.+ - > a p p i u u.d.g.g.g.g.d.p.d.d.d.g.h.c.c.c.v.k 0 2 - w ).[.].].].].].].",
"].].].].].].].].].].].R.- ; : a y.y.y.p i i p u.u.s.g.v.d.d.d.a.d.d.h.c.v.y > ; ; v ].].].].].].].].",
"].].].].].].].].].].).l - ; > s y.u.u.u.u.y.y.p p p y.b.b.v.d.g.g.s.s.d.s.7 > - w ^.].].].].].].].].",
"].].].].].].].].].].R.9 - > > + p.p.p.p.p.u.u.u.u.u.L.].].].(.L.h.h.d.d.a > - - E.].].].].].].].].].",
"].].].].].].].].].].v - - > 3 7 a.p.p.p.d.d.d.d.v./.[.].].].].]._.L.v.g.7 ; * 0 ~.].].].].].].].].].",
"].].].].].].].].].].w * ; 3 3 3 y d.d.v.b.L.L./.].].].].].].].].].].(.l.> * ; v ].].].].].].].].].].",
"].].].].].].].].].'.0 * > 3 0 0 > a./.].].].].].].].].].].].].].].].].[.c j b ^.].].].].].].].].].].",
"].].].].].].].].].R.> ; 2 0 0 0 0 [.].].].].].].].].].].].].].].].].].].].[.[.].].].].].].].].].].].",
"].].].].].].].].].[.l > 0 0 [ [ v ].].].].].].].].].].].].].].].].].].].].].].].].].].].].].].].].].",
"].].].].].].].].].].!.q 0 0 [ l '.].].].].].].].].].].].].].].].].].].].].].].].].].].].].].].].].]."
};
