/* XPM */
static char *_1550_1fadb1a2e034320d60480ef9bff46f65cc627fa0d83ecb3c68fe1e1db78c7135_1[] = {
/* columns rows colors chars-per-pixel */
"50 50 238 2 ",
"   c #0D0B0F",
".  c #160606",
"X  c #230D0B",
"o  c #2B1616",
"O  c #2E222A",
"+  c #3B292F",
"@  c #461C0D",
"#  c #5B1902",
"$  c #681700",
"%  c #6A1D01",
"&  c #731708",
"*  c #4A240F",
"=  c #4D2913",
"-  c #542B12",
";  c #5A2D15",
":  c #5B3216",
">  c #6D2104",
",  c #762604",
"<  c #772D12",
"1  c #643516",
"2  c #683819",
"3  c #6C3B19",
"4  c #753E1A",
"5  c #521D38",
"6  c #741B24",
"7  c #4F352A",
"8  c #7A2D2D",
"9  c #653D26",
"0  c #79441C",
"q  c #694734",
"w  c #724831",
"e  c #091E54",
"r  c #12364F",
"t  c #302E52",
"y  c #0B2669",
"u  c #0A2972",
"i  c #0A2D7D",
"p  c #1C3373",
"a  c #2A356C",
"s  c #542348",
"d  c #75384B",
"f  c #532F6D",
"g  c #71326E",
"h  c #3B5560",
"j  c #2C4B77",
"k  c #514F4C",
"l  c #595568",
"z  c #744A69",
"x  c #4F6472",
"c  c #547279",
"v  c #6E7070",
"b  c #821B00",
"n  c #851919",
"m  c #8B1A1A",
"M  c #931914",
"N  c #941A1A",
"B  c #9B1A1A",
"V  c #B5160D",
"C  c #A81B17",
"Z  c #A31A1A",
"A  c #AB1A1A",
"S  c #B31A1A",
"D  c #BC1B1A",
"F  c #892608",
"G  c #90321A",
"H  c #B6201D",
"J  c #901C2A",
"K  c #AE1D24",
"L  c #8C2B2F",
"P  c #B1272D",
"I  c #C61914",
"U  c #C21B1A",
"Y  c #CD1B1A",
"T  c #D31C1B",
"R  c #DB1C1C",
"E  c #E31C1C",
"W  c #EC1D1C",
"Q  c #F41D1C",
"!  c #FC1E1D",
"~  c #F4211F",
"^  c #FE201F",
"/  c #DB1F21",
"(  c #FA1F21",
")  c #D62B2C",
"_  c #EB2829",
"`  c #F42323",
"'  c #FF2220",
"]  c #854A1E",
"[  c #8A4825",
"{  c #8F512C",
"}  c #AF5032",
"|  c #B76529",
" . c #AD6732",
".. c #C44C3B",
"X. c #C86D2C",
"o. c #8B3748",
"O. c #993444",
"+. c #A93759",
"@. c #D23644",
"#. c #95524D",
"$. c #A55449",
"%. c #93615C",
"&. c #AE7252",
"*. c #C9534B",
"=. c #CD624B",
"-. c #D66C52",
";. c #CA7152",
":. c #DB785B",
">. c #E27B5C",
",. c #F27979",
"<. c #CEC932",
"1. c #98A263",
"2. c #DA8968",
"3. c #C9936E",
"4. c #D79877",
"5. c #EC9270",
"6. c #E99673",
"7. c #D5A57A",
"8. c #EAA47B",
"9. c #F3A57D",
"0. c #B1C76B",
"q. c #D9E46E",
"w. c #FDFC73",
"e. c #0B3084",
"r. c #0B338C",
"t. c #103186",
"y. c #0C3595",
"u. c #0D3B90",
"i. c #0C379A",
"p. c #0C399D",
"a. c #323E9F",
"s. c #0D3BA3",
"d. c #0D3DA9",
"f. c #143FA8",
"g. c #0E3EB3",
"h. c #2B4288",
"j. c #375887",
"k. c #1C629F",
"l. c #0F42B5",
"z. c #0B4AB1",
"x. c #0F4DB2",
"c. c #0F42BC",
"v. c #1145BB",
"b. c #3C7CB8",
"n. c #57788F",
"m. c #697388",
"M. c #4A74A9",
"N. c #0F4EC6",
"B. c #1047C4",
"V. c #1148C5",
"C. c #114BCB",
"Z. c #124DD3",
"A. c #134FD9",
"S. c #1A51D1",
"D. c #1452DC",
"F. c #2253C8",
"G. c #076ECF",
"H. c #2B67D1",
"J. c #1556E2",
"K. c #1658E7",
"L. c #0D6FE3",
"P. c #8C5B82",
"I. c #3089B6",
"U. c #708896",
"Y. c #548CB6",
"T. c #7596AD",
"R. c #0E89D2",
"E. c #1694DC",
"W. c #2791D0",
"Q. c #038CE8",
"!. c #0A99EA",
"~. c #139AE8",
"^. c #089CF3",
"/. c #279AE4",
"(. c #13A4EE",
"). c #00A7FF",
"_. c #09A6F9",
"`. c #18A9F5",
"'. c #2CA4E4",
"]. c #23ACF4",
"[. c #2FB2F7",
"{. c #54A6D6",
"}. c #76B0D1",
"|. c #49B6EB",
" X c #68BBE2",
".X c #56C3FC",
"XX c #6DC7F7",
"oX c #8B9391",
"OX c #AB9185",
"+X c #8399AD",
"@X c #BB9BA2",
"#X c #89A6BC",
"$X c #9CA9B3",
"%X c #95A8BA",
"&X c #AAACAE",
"*X c #D18D8C",
"=X c #F3989A",
"-X c #C2AC8E",
";X c #F5AA85",
":X c #EAB08A",
">X c #EAB789",
",X c #F7B588",
"<X c #E1C398",
"1X c #F8C698",
"2X c #E8D39E",
"3X c #FCD29B",
"4X c #EBD0A6",
"5X c #FDD9A8",
"6X c #FCE3AD",
"7X c #F9E6B3",
"8X c #FCEBB6",
"9X c #FBF0BB",
"0X c #8DABC2",
"qX c #93B3CB",
"wX c #99B6CA",
"eX c #A7BACA",
"rX c #A8C5D7",
"tX c #B3C6D3",
"yX c #8FCFF3",
"uX c #A1CEE8",
"iX c #BBD6E6",
"pX c #B2E4FD",
"aX c #C9D0D9",
"sX c #EDCFD3",
"dX c #CBE6CE",
"fX c #EAE2CF",
"gX c #FEF9C5",
"hX c #C7DAE6",
"jX c #D1DBE6",
"kX c #DEE6EE",
"lX c #D6E9F3",
"zX c #D1EAF7",
"xX c #E1E3EB",
"cX c #E4EEF6",
"vX c #E8F4F9",
"bX c #F1F3F8",
"nX c #F4FBFE",
"mX c #FCFEFF",
/* pixels */
").).).).).).).).).).).).).).).).).).).).).).)._./.P.@._ _ @.m./._.).).).).).).).).).).).).).).).).).",
").).).).).).).).).).).).).).).).).).).).).).).[.@.( ' ' ( ( ( ) M.).).).).).).).).).).).).).).).).).",
").).).).).).).).).).).).).).).).).).).).).)./.sX' ' ' ' ( ( ( W W +.~.).).).).).).).).).).).).).).).",
").).).).).).).).).).).).).).).).).).).).).^.*X=X' ' ' ' ! ( ( ( ( / P ^.).).).).).).).).).).).).).).",
").).).).).).).).).).).).).).).^.).).).).).[.=X_ ' ' ' ( ! ! ! ( Q W T o.^.).).).).).).).).).).).).).",
").).).).).).).).).).).).).).).W.M.W.~.)._. X,.( ' ' ^ ! ! ! ! ( Q W R Y z ).).).).).).).).).).).).).",
").).).).).).).).).).).).).).!.L D W ! ( @.*.) W ! ' ( ( ! ! ! ! Q Q E Y H W.).).).).).).).).).).).).",
").).).).).).).).).).).).).).).l J N U Q ! ! ( ( W ! ( ( ( ! ! ! Q W E T U o.^._.).).).).).).).).).).",
").).).).).).).).).).).).).).).!.d m m N T ( ! ! Q Q ( ^ ^ ^ ! ! Q W E T I S b.^.).).).).).).).).).).",
").).).).).).).).).).).).).).).).R.8 n n m B $ Y ! Q ` ' ^ ^ ! ! ! W E T D S o.~.).).).).).).).).).).",
").).).).).).).).).).).).).).).).).E.d m 8 w #.; _ Q E W Q ! ! ! Q E R Y D S C M.).).).).).).).).).).",
").).).).).).).).).).).).).).).).).).~.f &.4.4.2.;...Y Y R E Q Q W E R Y D A Z z ).).).).).).).).).).",
").).).).).).).).).).).).).]. X|.^.).).).-XT.aX;X9.5.>...H U T / R T Y U S A B K ^.).).).).).).).).).",
").).).).).).).).).).).)..XgX9X5X,X{.).`.OXj sX7X7X5X9.>.F F A S U D D S Z Z B K d ~.).).).).).).).).",
").).).).).).).).).).)._.dXgXgX5X,X;XT.}.v M.fX8X7X1X;.[ F , , M P B Z Z B B B Z B L E.).).).).).).).",
").).).).).).).).).).).].7X7X5X1X;X5.6.:XoX$X4X6X6X&., > > > 4 7.2X<X$.m N N B B Z Z o.).).).).).).).",
").).).).).).).).).).).].4X1X,X6.2.;.&.#.7 X 0.9X7X4.> , > > 7.;X8.5X4XL N N N B Z A A ~.).).).).).).",
").).).).).).).).).).).).$X;X6.3.&.w X   . O 2X8X8X>X< > < &.8.6.1X6X5X} m N B B Z A S ~.).).).).).).",
").).).).).).).).).).).).(.#X3.%.7 X . . : 3.6X6X5X3X8.&.7.2X6.7.2X8X1X[ n N B Z A S O.).).).).).).).",
").).).).).).).).).).).).).).W.O X .   9 2.1X3X3X3X3X1X,X1X7X8.2X8X5X:X< $ N B Z A H b.).).).).).).).",
").).).).).).).).).).).).).).).r   d &.4.8.8.9.,X,X,X9.9.8.1X6X6X5X,X[ $ % % B C O.b.).).).).).).).).",
").).).).).).).).).).).).).).).!.R.&X>X>X8.6.5.5.9.5.5.5.2.>.8.9.6.L $ $ % % J z E.).).).).).).).).).",
").).).).).).).).).).).).).).).).).{.4.8.5.2.:.2.>.>.:.-.=.} , < # @ # % > k ~.).).).).).).).).).).).",
").).).).).).).)..XpXlXcXyX].).).).).$X8.2.:.;.=.=.X.*...} F b > & $ [ -X&XyXXXXXXX_.).).).).).).).).",
").).).).).)._.pXmXnXnXnXvXjXuXuX].^./.OX=.=.*.} } 8 8 8 L M V I Y *XbXxXbXmXmXnXvXzXXX`.).).).).).).",
").).).).).).XXnXnXcXkXvXnXkXaXxX@X@.L o.8 G o.a t.t J / ` ' ' ' ,.bXbXmXmXmXmXmXvXcXzXuX`.).).).).).",
").).).).)._.mXmXnXiX#XiXnXcXtXjX@XE P s K g S.S.f / ( ( ~ ~ ` ` sXxXmXmXmXmXnXvXzXhXiXwX X).).).).).",
").).).).)..XnXvXvXiX%XrXnXkXtX&XOX$.F.H.M.H.D.f W ` W / / E / ) sXkXmXnXnXbXlXiXiXrXwXqX}.).).).).).",
").).).).)..XvXhXtXtXrXhXvXiX0XoX1.F.Y.q.w.1.l./ W W R D D H D H &XjXvXzXzXzXiXrXrXwX#X#X}.).).).).).",
").).).).).|.jXrX+XU.$XvXhX0XT.v j.J.0.w.w.1.v.+.W E R S M B B B OXaXlXeX#XiXrX0XqX0X#X#X}.).).).).).",
").).).).).`.rX+XU.U.tXrX#XU.U.x V.D.1.<.1.f.A.A.g P T U N & n 6 d wXjX%X%XrXwX#X#XqX#X}.[.).).).).).",
").).).).).).Y.&.&.&.oXU.Y.Y.U.M.S.D.x.j l.l.A.A.C.a.g J J 6 5 p G.`.iXiX$XwX#X#X#X}.{._.).).).).).).",
").).).).).W.{ | X.X. .c ).).(.Q.C.C.C.B.C.Z.A.Z.C.B.l.d.t.t.p.s.!.).|.tXeX+X+X{.]._.).).).).).).).).",
").).).).).h ]  .X.| |  .(.).).L.A.Z.Z.Z.Z.C.C.C.N.B.c.d.i.y.p.f.Q.).).{.%X$XqX].).).).).).).).).).).",
").).).).(.&.0 {  .| | { j G.L.D.K.K.J.D.Z.C.B.B.v.c.l.z.i.y.p.s.G.k.j k.I.).).).).).).).).).).).).).",
").).).).).oX0 0 ] { ] ] h V.D.K.K.J.D.D.A.Z.c.g.l.g.l.i.i.i.i.s.p o o @ w _.).).).).).).).).).).).).",
").).).).).'. .9 4 ] [ [ a V.J.J.D.D.D.A.A.Z.C.l.l.l.d.i.y.y.p.s.y O * * ; W.).).).).).).).).).).).).",
").).).).).).U.0 1 3 0 0 h.F.A.A.A.A.Z.Z.C.B.c.c.l.s.i.i.y.i.s.s.e y = * * n.).).).).).).).).).).).).",
").).).).).).`.{ ; 1 4 4 h.V.Z.C.C.C.B.c.g.g.l.s.p.i.y.y.i.s.s.y.e u + = @ k _.).).).).).).).).).).).",
").).).).).).).c ; ; 2 4 h.c.B.B.c.c.g.g.d.d.p.i.y.y.i.i.s.s.p.u y u t = * 7 ~.).).).).).).).).).).).",
").).).).).)._.(.q = 1 0 a z.c.l.g.d.s.s.i.i.p.p.s.s.s.s.i.r.y u u i a ; = + (.).).).).).).).).).).).",
").).).).).).).).c - : 1 t z.l.d.s.i.i.i.i.s.s.s.i.y.e.e.u u e.e.e.i p : - * I.).).).).).).).).).).).",
").).).).).).).).W.q * : 7 p.p.i.i.s.s.s.d.x.N.e.i i i i e.r.r.r.r.r.r 1 - * k (.).).).).).).).).).).",
").).).).).).).).).U.* = : p p.s.s.s.G.Q.).).).G.r.r.r.r.y.y.u.u.y.y.t 1 : = q I.).).).).).).).).).).",
").).).).).).).).).E.q = - 7 p.z.G._.).).).).).).L.z.p.p.u.p.p.i.y.r.7 1 1 - - c ).).).).).).).).).).",
").).).).).).).).)._.c : - 2 h.Q.).).).).).).).).).).!.G.G.x.z.p.u.t 3 3 1 ; * q ).).).).).).).).).).",
").).).).).).).).).).W.k h x ).).).).).).).).).).).).).).).).).!.u.q 0 0 3 ; * q ~.).).).).).).).).).",
").).).).).).).).).).)._._.).).).).).).).).).).).).).).).).).).).!.0 0 0 0 1 - : I.).).).).).).).).).",
").).).).).).).).).).).).).).).).).).).).).).).).).).).).).).).).).c 0 0 0 0 - k (.).).).).).).).).).",
").).).).).).).).).).).).).).).).).).).).).).).).).).).).).).).).).(.v ] ] 0 7 R.)._.).).).).).).).)."
};
