/* XPM */
static char *_cf06fa9fee24c18fbd94d4ee8feb52129lkiTBIrNvfSdlT[] = {
/* columns rows colors chars-per-pixel */
"50 50 247 2 ",
"   c #371819",
".  c #3D2422",
"X  c #451C1A",
"o  c #781E1B",
"O  c #4B231E",
"+  c #4E2B2A",
"@  c #5A3935",
"#  c #6E382F",
"$  c #693B35",
"%  c #7D422D",
"&  c #73413A",
"*  c #7B2A46",
"=  c #53386A",
"-  c #734D49",
";  c #505577",
":  c #72506B",
">  c #921A19",
",  c #A91D1C",
"<  c #902B2D",
"1  c #A32020",
"2  c #A62525",
"3  c #AC2322",
"4  c #B32624",
"5  c #B82725",
"6  c #AD3534",
"7  c #C71B22",
"8  c #C52A29",
"9  c #D72728",
"0  c #CF3334",
"q  c #E9292A",
"w  c #F22C2D",
"e  c #FD2C2C",
"r  c #F32F30",
"t  c #E93232",
"y  c #F43232",
"u  c #FD3333",
"i  c #F83A38",
"p  c #FF3B3C",
"a  c #874935",
"s  c #924935",
"d  c #974F37",
"f  c #A8522F",
"g  c #AE4B35",
"h  c #A95636",
"j  c #B65A35",
"k  c #C35239",
"l  c #EB433F",
"z  c #C3613A",
"x  c #94374B",
"c  c #A3394E",
"v  c #C43A53",
"b  c #E63E4F",
"n  c #FA3C41",
"m  c #985645",
"M  c #884F52",
"N  c #A65644",
"B  c #AE504F",
"V  c #B75947",
"C  c #9C6951",
"Z  c #A46447",
"A  c #B66647",
"S  c #A96D56",
"D  c #B76854",
"F  c #A6765C",
"G  c #A5795F",
"H  c #8C546C",
"J  c #B5596A",
"K  c #8C7069",
"L  c #977B6A",
"P  c #A57960",
"I  c #A97963",
"U  c #B17071",
"Y  c #D85450",
"T  c #FF4343",
"R  c #FF4949",
"E  c #ED4C50",
"W  c #C96946",
"Q  c #D4724E",
"!  c #C46A58",
"~  c #C97857",
"^  c #E5715B",
"/  c #CF5268",
"(  c #C87D6D",
")  c #D47C64",
"_  c #CA6E70",
"`  c #F47268",
"'  c #E77B7B",
"]  c #85817D",
"[  c #BA886A",
"{  c #B48D74",
"}  c #E6815E",
"|  c #C4B35C",
" . c #CE8E6D",
".. c #D78668",
"X. c #CD867A",
"o. c #D88A78",
"O. c #D99A79",
"+. c #EE896C",
"@. c #EB9178",
"#. c #FA9A7C",
"$. c #E6A37B",
"%. c #E9DD5E",
"&. c #D1D271",
"*. c #2B399C",
"=. c #373E99",
"-. c #2C3CA5",
";. c #323EA6",
":. c #2F3EB1",
">. c #3A5092",
",. c #3744A8",
"<. c #2E40B6",
"1. c #3546B8",
"2. c #2B56B3",
"3. c #3C7DAD",
"4. c #4A4C90",
"5. c #6E5493",
"6. c #556991",
"7. c #737090",
"8. c #4446A8",
"9. c #5051AA",
"0. c #674CB0",
"q. c #4A74AD",
"w. c #7479AC",
"e. c #283EC7",
"r. c #2D42C8",
"t. c #3548C7",
"y. c #3655C6",
"u. c #2E45D3",
"i. c #354BD9",
"p. c #3C51DC",
"a. c #2576C7",
"s. c #344DE4",
"d. c #374EEB",
"f. c #3953E8",
"g. c #3B53EC",
"h. c #3752F4",
"j. c #3953F2",
"k. c #3A56FD",
"l. c #3C58FF",
"z. c #306FE7",
"x. c #4E4BCE",
"c. c #4254D7",
"v. c #6E54CD",
"b. c #486DD2",
"n. c #494FE4",
"m. c #4356E8",
"M. c #465AF9",
"N. c #435CFF",
"B. c #6456E0",
"V. c #4A60FF",
"C. c #B13F83",
"Z. c #96459F",
"A. c #8B6C94",
"S. c #AB6983",
"D. c #8744A5",
"F. c #825BA2",
"G. c #728594",
"H. c #4E89AF",
"J. c #6F91A8",
"K. c #5AA9AA",
"L. c #1882DD",
"P. c #3496CA",
"I. c #2F8CD1",
"U. c #2A99D9",
"Y. c #38A8DC",
"T. c #1294EE",
"R. c #169BE9",
"E. c #219CE6",
"W. c #18A3EC",
"Q. c #00A7FF",
"!. c #09A6F9",
"~. c #15A7F6",
"^. c #1BB0FE",
"/. c #29A4E6",
"(. c #37A6E5",
"). c #35B1EE",
"_. c #25B2FE",
"`. c #4C89C7",
"'. c #5599C5",
"]. c #7C9FC1",
"[. c #50A5D3",
"{. c #72B0D1",
"}. c #41A9E0",
"|. c #45BCFB",
" X c #74CCFC",
".X c #938E94",
"XX c #99969A",
"oX c #B7958E",
"OX c #8B95AB",
"+X c #999DA7",
"@X c #A497A8",
"#X c #9DA6A8",
"$X c #AAA7AA",
"%X c #B7A6AB",
"&X c #AFA8B2",
"*X c #B8B6B7",
"=X c #D38E86",
"-X c #F48D8D",
";X c #EA9984",
":X c #F49D84",
">X c #EF9090",
",X c #E89494",
"<X c #D4A79C",
"1X c #FAA487",
"2X c #FDAC8B",
"3X c #FCB28E",
"4X c #F0B394",
"5X c #FEB492",
"6X c #F8B597",
"7X c #FFBA94",
"8X c #FEBC9B",
"9X c #CDB2B1",
"0X c #C4B8B8",
"qX c #EEB5A8",
"wX c #FCC39B",
"eX c #EACCAF",
"rX c #FFC6A1",
"tX c #FFCBA4",
"yX c #FFCCAA",
"uX c #FFD1AB",
"iX c #FFD8AF",
"pX c #FEDBB5",
"aX c #FFE3BC",
"sX c #93A7C4",
"dX c #9BA6CA",
"fX c #CBBBC0",
"gX c #82CCF4",
"hX c #A5DAF6",
"jX c #A9E1FE",
"kX c #C5C4C4",
"lX c #CBC9C8",
"zX c #D6C8C8",
"xX c #C5C8DA",
"cX c #D9D4D5",
"vX c #EFCCC6",
"bX c #E6DBDB",
"nX c #FEE9C3",
"mX c #CBE9FA",
"MX c #E5E3E4",
"NX c #EBE3E4",
"BX c #EAEAEA",
"VX c #F6E5E5",
"CX c #F2EDED",
"ZX c #E7F2F8",
"AX c #F5F3F3",
"SX c #F7F6F7",
"DX c #FDFCFC",
/* pixels */
"Q.Q.Q.Q.Q.Q.Q.Q.Q.Q.Q.Q.Q.Q.!.~.`.[.(.!.Q.Q.Q.Q.Q.Q.Q.Q.Q.Q.!.|. XhXgXhX|.~.Q.Q.Q.Q.Q.Q.Q.Q.Q.Q.Q.Q.",
"Q.Q.Q.Q.Q.Q.Q.Q.Q.Q.Q.Q.Q.E.S.E ,XvX-X' dXE.R.w.7.q.T.Q.Q._.ZXDXAXCXDXcXCXMX{.Q.Q.Q.Q.Q.Q.Q.Q.Q.Q.Q.",
"Q.Q.Q.Q.Q.Q.Q.Q.Q.Q.Q.Q.U.J R -XvX` ` ' ' S.c 6 5 6 H T.Q. XSXAXbXbXNXkXCX*X#X~.Q.Q.Q.Q.Q.Q.Q.Q.Q.Q.",
"Q.Q.Q.Q.Q.Q.Q.Q.Q.Q.Q.P.E R R >XVX` ,X9X=X0 5 4 4 3 3 : Q.gXAXBXkXkXzX*XkX.X$XY.Q.Q.Q.Q.Q.Q.Q.Q.Q.Q.",
"Q.Q.Q.Q.Q.Q.Q.Q.Q.Q.R./ R R R R qX-X' ,X0 4 7 4 4 , 3 3 (.MXMXzXXX$X9XlXlXlXkX[.Q.Q.Q.Q.Q.Q.Q.Q.Q.Q.",
"Q.Q.Q.Q.Q.Q.Q.Q.Q.Q.w.T R R R T b >X' E 5 4 , , 3 3 3 3 sX9XoX.XA.cXMXDXSXMXkXY.Q.Q.Q.Q.Q.Q.Q.Q.Q.Q.",
"Q.Q.Q.Q.Q.Q.Q.Q.Q.~./ T R R R p n e n 5 5 8 , > > 1 3 3 ].9X&X$X0XCXCXAXBXcX*X/.Q.Q.Q.Q.Q.Q.Q.Q.Q.Q.",
"Q.Q.Q.Q.Q.Q.Q.Q.Q.H.T R R R n p e e 9 7 5 c W X O > 1 < ~.0XcXNXAXCXBXbXcXkX+XW.Q.Q.Q.Q.Q.Q.Q.Q.Q.Q.",
"Q.Q.Q.Q.Q.Q.Q.Q.Q.S.T R T R p u e u 5 > g ! ! D ! V < I.!.[.*XzXNXNXbXcX0X$XJ.!.Q.Q.Q.Q.Q.Q.Q.Q.Q.Q.",
"Q.Q.Q.Q.Q.Q.Q.Q.R./ p R R T p e u r o   + N ) ..) { A.Q.).[.$X%XzXbXcXzX*XXXK.Q.Q.Q.Q.Q.Q.Q.Q.Q.Q.Q.",
"Q.Q.Q.Q.Q.Q.Q.Q.`.E T T T p u u u 3 X m ! ~ +.#.=X7.oXlXaXtX6X<X0XbXMXcX*X+X/.Q.Q.Q.Q.Q.Q.Q.Q.Q.Q.Q.",
"Q.Q.Q.Q.Q.Q.Q.Q.A.p T T n p u u t o a _ =X=X:X2X:X=XeXnXaXwX3X4X,X9XzXlX0X$X/.Q.Q.Q.Q.Q.Q.Q.Q.Q.Q.Q.",
"Q.Q.Q.Q.Q.Q.Q.Q.A.p n n p u e u l h D ) OX9.sXtX7XwXiXnXpXwX5X#.^ i t 6 : /.!.Q.Q.Q.Q.Q.Q.Q.Q.Q.Q.Q.",
"Q.Q.Q.Q.Q.Q.Q.Q.U p p n p e e t g ! ) @.w..X>.dXuXrXtXuXtXwX2Xo.Y p i 9 7.Q.Q.Q.Q.Q.Q.Q.Q.Q.Q.Q.Q.Q.",
"Q.Q.Q.Q.Q.Q.Q.Q.S.p p u u w u k ! ) :X1X@X4.= {.vX7X1X2X5X1X .I 6 y t 9 3.Q.Q.Q.Q.Q.Q.Q.Q.Q.Q.Q.Q.Q.",
"Q.Q.Q.Q.Q.Q.Q.Q.A.u r u w w 3 ! ) 1X8XtXwX; >.G.oXC D X.( U C @ 6 9 9 5 T.Q.Q.Q.Q.Q.Q.Q.Q.Q.Q.Q.Q.Q.",
"Q.Q.Q.Q.Q.Q.Q.Q.7.i u y q 9 < ! #.6XrXuXuX- + + + . O # # @ . + B 8 8 6 Q.Q.Q.Q.Q.Q.Q.Q.Q.Q.Q.Q.Q.Q.",
"Q.Q.Q.Q.Q.Q.Q.Q.H.l y t q 1 s d D  .rXaXpXoX+ . .           @ & V , 3 : Q.Q.Q.Q.Q.Q.Q.Q.Q.Q.Q.Q.Q.Q.",
"Q.Q.Q.Q.Q.Q.Q.Q.(.b r q 9 < a s a d 4XaXnXnX{ - & $ + @ M + . @ V 3 2 q.Q.Q.Q.Q.Q.Q.Q.Q.Q.Q.Q.Q.Q.Q.",
"Q.Q.Q.Q.Q.Q.Q.Q.Q./ r t ^  .h s s d wXaXpXpXyX8X4X;XO.L +     # B 2 2 R.Q.Q.Q.Q.Q.Q.Q.Q.Q.Q.Q.Q.Q.Q.",
"Q.Q.Q.Q.Q.Q.Q.Q.Q.A.i qXtX7XwX .d d 4XwXtXtXrX8X8X2X1XX..   O M g 2 x Q.Q.Q.Q.Q.Q.Q.Q.Q.Q.Q.Q.Q.Q.Q.",
"Q.Q.Q.Q.Q.Q.Q.Q.Q.R.=X7X#.#.#.2X3X .7X7X7X8X8X8X5X2X;X:X( - U @.6 2 6.Q.Q.Q.Q.Q.Q.Q.Q.Q.Q.Q.Q.Q.Q.Q.",
"Q.Q.Q.Q.Q.Q.Q.Q.Q.Q.{.5X5X1X#.7X8X7X3X3X2X2X2X1X:X,X=X@.:X@.O.( 2 x P.Q.Q.Q.Q.Q.Q.Q.Q.Q.Q.Q.Q.Q.Q.Q.",
"Q.Q.Q.Q.Q.Q.Q.Q.Q.Q./.qX3X7X7XiXtX5X#.#.#.:X:X@.o.=XX.X.=Xo.( H < - !.Q.Q.Q.Q.Q.Q.Q.Q.Q.Q.Q.Q.Q.Q.Q.",
"Q.Q.Q.Q.Q.Q.Q.Q.Q.Q.!.{.4X8XrXuXiX+.Q ` ` +.` ' _ U J S._ _ B * = 4.!.Q.Q.Q.Q.Q.Q.Q.Q.Q.Q.Q.Q.Q.Q.Q.",
"Q.Q.Q.Q.Q.Q.Q.Q.Q.Q.Q.Q./.sX<XqX .2 4 i i i y v 0.8.8.8.c 9 9 7 x 8.z.Y.~.Q.Q.Q.Q.Q.Q.Q.Q.Q.Q.Q.Q.Q.",
"Q.Q.Q.Q.Q.Q.Q.Q.Q.Q.Q.Q.Q.Q.~.I.H y p p p p p u v d.d.d.M.D.D.0.x.p.c.$X&.!.Q.Q.Q.Q.Q.Q.Q.Q.Q.Q.Q.Q.",
"Q.Q.Q.Q.Q.Q.Q.Q.Q.Q.Q.Q.Q.Q.7.n p T T R R T n n b Z.h.h.+X%.| c.d.i.y.c.{ K.Q.Q.Q.Q.Q.Q.Q.Q.Q.Q.Q.Q.",
"Q.Q.Q.Q.Q.Q.Q.Q.Q.Q.Q.Q.I./ u n T T T T n n n n n n v.j.4X%.| 6.s.s.i.i.1.I.Q.Q.Q.Q.Q.Q.Q.Q.Q.Q.Q.Q.",
"Q.Q.Q.Q.Q.Q.Q.Q.Q.Q.!.w.n p n e u i y w r u u n n R B.k.f.y.i.s.j.M.g.p.i.y.R.G.S j Z K P.!.Q.Q.Q.Q.",
"Q.Q.Q.Q.Q.Q.Q.Q.^. XxX` n p e w q q q 9 9 y u n n / M.N.l.N.V.N.k.l.k.m.c.9.B z z z j j h 7.!.Q.Q.Q.",
"Q.Q.Q.Q.Q.Q.Q._.ZXSXSXVX,Xn w 9 7 5 B : x w u n E B.V.N.N.N.l.k.l.k.k.k.m.J z W Q z j h f d H.Q.Q.Q.",
"Q.Q.Q.Q.!.|.jXZXAXNXbXzXcX=X7 7 < q.!.Q.6.u u b v.N.N.N.N.N.l.l.l.l.k.l.F.z W ^ } Q z j A S K R.Q.Q.",
"Q.Q.Q.!. XSXDXDXSXNXfX%X%X%Xc : I.Q.Q.Q.a.n C.n.l.N.N.N.l.l.k.l.l.l.l.l.Z z Q +.} W ~ $.$. .[ H.Q.Q.",
"Q.Q.Q. XSXDXDXDXDXNX&X%X%X.XA.L.Q.Q.Q.Q.!.D.j.k.k.l.N.M.h.h.l.l.l.l.l.M.A z z } W ..wX| [ G G ] R.Q.",
"Q.Q.|.SXDXSXDXZXDXNX@X+X&XXXU.Q.Q.Q.Q.Q.Q.j.j.k.k.N.N.j.d.g.d.k.k.l.k.v.z z z z ..wX[ F F G G ] W.Q.",
"Q.Q.jXSXSXBXSXMXDXBX@X.X&X@XW.Q.Q.Q.Q.Q.!.T.g.j.h.k.j.g.d.s.g.g.k.k.l.0.z j j z wX .F F F G G G.Q.Q.",
"Q.Q.mXAXAXbXSXcXAXBX&XXX*X&XE.Q.Q.Q.Q.Q.Q.Q.m.g.j.j.g.d.s.i.p.f.h.k.N.5.j j j ..| C [ ] G G G U.Q.Q.",
"Q._.mXBXBXlXBXkXkXkX$X.X$X&XE.Q.Q.Q.Q.Q.Q.Q.b.p.s.f.d.s.s.u.u.f.h.j.l.H h f j $.I G [ C F F ] !.Q.Q.",
"Q.Q.gXkXkX*X*X*X+XXX.X.X+XOXQ.Q.Q.Q.Q.Q.Q.~.K 6.c.i.i.i.u.r.1.t.f.g.j.H h f A O.G F F F F ] U.!.Q.Q.",
"Q.Q.!.Y.}.[.[.(.K.OX&X#XJ.W.Q.Q.Q.Q.Q.Q.Q.H.m d 5.x.t.t.1.<.,.;.1.g.s.N f f W [ F G F C L P.Q.Q.Q.Q.",
"Q.Q.Q.Q.!.Q.Q.Q.!.[.].'.!.Q.Q.Q.Q.Q.Q.Q.Q.J.a d : 1.,.,.,.,.>.=.*.p.s.N f f [ [ C C C Z L W.Q.Q.Q.Q.",
"Q.Q.Q.Q.Q.Q.Q.Q.Q.Q.Q.Q.Q.Q.Q.Q.Q.Q.Q.Q.Q.G.a s 4.e.u.t.1.,.=.*.=.<.t.h f f  .S F F G G G.W.Q.Q.Q.Q.",
"Q.Q.Q.Q.Q.Q.Q.Q.Q.Q.Q.Q.Q.Q.Q.Q.Q.Q.Q.Q.Q.H.a & -.e.u.u.r.:.-.*.*.*.2.d f f O.F F G G G P.Q.Q.Q.Q.Q.",
"Q.Q.Q.Q.Q.Q.Q.Q.Q.Q.Q.Q.Q.Q.Q.Q.Q.Q.Q.Q.!.G a $ ;.e.u.u.u.t.,.<.-.*.*.; d A O.L G G G ] !.Q.Q.Q.Q.Q.",
"Q.Q.Q.Q.Q.Q.Q.Q.Q.Q.Q.Q.Q.Q.Q.Q.Q.Q.Q.Q.W.S a % =.:.r.u.u.u.1.<.-.-.*.=.- h [ [ G F ] P.!.!.Q.Q.Q.Q.",
"Q.Q.Q.Q.Q.Q.Q.Q.Q.Q.Q.Q.Q.Q.Q.Q.Q.Q.Q.Q.W.S a % = ,.1.t.r.r.t.1.:.:.;.2.R.3.] [ P ] U.Q.Q.Q.Q.Q.Q.Q.",
"Q.Q.Q.Q.Q.Q.Q.Q.Q.Q.Q.Q.Q.Q.Q.Q.Q.Q.Q.Q.!.H.a a % = =.8.y.y.1.2.<.2.a.T.Q.!.!.U.U.!.Q.Q.Q.Q.Q.Q.Q.Q.",
"Q.Q.Q.Q.Q.Q.Q.Q.Q.Q.Q.Q.Q.Q.Q.Q.Q.Q.Q.Q.Q.W.- a % & & ; R.R.L.L.L.!.Q.Q.Q.Q.Q.Q.Q.Q.Q.Q.Q.Q.Q.Q.Q.Q.",
"Q.Q.Q.Q.Q.Q.Q.Q.Q.Q.Q.Q.Q.Q.Q.Q.Q.Q.Q.Q.Q.Q.W.6.- : 3.!.!.!.Q.!.Q.Q.Q.Q.Q.Q.Q.Q.Q.Q.Q.Q.Q.Q.Q.Q.Q.Q."
};
